<svg xmlns="http://www.w3.org/2000/svg" xmlns:xlink="http://www.w3.org/1999/xlink" width="38.586" height="38.586" viewBox="0 0 38.586 38.586">
  <defs>
    <filter id="Icon_awesome-arrow-down" x="2.025" y="2.861" width="33.944" height="34.358" filterUnits="userSpaceOnUse">
      <feOffset dy="1" input="SourceAlpha"/>
      <feGaussianBlur stdDeviation="3" result="blur"/>
      <feFlood flood-color="#202124" flood-opacity="0.161"/>
      <feComposite operator="in" in2="blur"/>
      <feComposite in="SourceGraphic"/>
    </filter>
  </defs>
  <g id="Group_41" data-name="Group 41" transform="translate(-932 -724)">
    <circle id="Ellipse_66" data-name="Ellipse 66" cx="19.293" cy="19.293" r="19.293" transform="translate(932 724)" fill="#73ccff"/>
    <g transform="matrix(1, 0, 0, 1, 932, 724)" filter="url(#Icon_awesome-arrow-down)">
      <path id="Icon_awesome-arrow-down-2" data-name="Icon awesome-arrow-down" d="M15.273,9.205l.811.811a.873.873,0,0,1,0,1.238l-7.094,7.1a.873.873,0,0,1-1.238,0l-7.1-7.1a.873.873,0,0,1,0-1.238l.811-.811a.877.877,0,0,1,1.252.015l4.191,4.4V3.126a.874.874,0,0,1,.876-.876H8.953a.874.874,0,0,1,.876.876V13.619l4.191-4.4a.871.871,0,0,1,1.252-.015Z" transform="translate(10.63 8.61)" fill="#fff"/>
    </g>
  </g>
</svg>
