<svg version="1.1" xmlns="http://www.w3.org/2000/svg" xmlns:xlink="http://www.w3.org/1999/xlink" x="0px" y="0px" width="85.9px"
	 height="90px" viewBox="0 0 85.9 90" style="enable-background:new 0 0 85.9 90;" xml:space="preserve">
<style type="text/css">
	.icEv0{fill:#73CCFF;}
</style>
<defs>
</defs>
<g>
	<path class="icEv0" d="M25.8,21.2l1.6,2.4c1.3-0.8,1.7-2,1.9-3c0.1-0.4,0.1-0.9,0.2-1.3c0.1-1.2,0.2-1.7,0.8-2.1
		c0.6-0.4,1.1-0.3,2.2,0.1c0.4,0.1,0.8,0.2,1.2,0.3c1,0.2,2.2,0.2,3.5-0.6c1.3-0.8,1.7-2,1.9-3c0.1-0.4,0.1-0.9,0.2-1.3
		c0.1-1.2,0.2-1.7,0.8-2.1c0.6-0.4,1.1-0.3,2.2,0.1c0.4,0.1,0.8,0.2,1.2,0.3c1,0.2,2.2,0.2,3.5-0.6L45.4,8c-0.6,0.4-1.1,0.3-2.2-0.1
		c-1.2-0.4-2.9-0.9-4.7,0.3c-1.8,1.2-1.9,3-2,4.3c-0.1,1.2-0.2,1.7-0.8,2.1c-0.6,0.4-1.1,0.3-2.2-0.1c-1.2-0.4-2.9-0.9-4.7,0.3
		c-1.8,1.2-1.9,3-2,4.3C26.4,20.3,26.3,20.8,25.8,21.2z"/>
	<path class="icEv0" d="M63.4,19c0.4-0.1,0.9-0.2,1.2-0.4c1.2-0.4,1.6-0.5,2.2-0.1c0.6,0.4,0.7,0.9,0.8,2.1c0,0.4,0.1,0.8,0.2,1.3
		c0.2,1,0.7,2.2,1.9,3s2.5,0.8,3.5,0.6c0.4-0.1,0.9-0.2,1.2-0.4c1.2-0.4,1.6-0.5,2.2-0.1c0.6,0.4,0.7,0.9,0.8,2.1
		c0,0.4,0.1,0.8,0.2,1.3c0.2,1,0.7,2.2,1.9,3l1.6-2.4c-0.6-0.4-0.7-0.9-0.8-2.1c-0.1-1.3-0.3-3.1-2.1-4.2c-1.8-1.2-3.5-0.6-4.7-0.2
		c-1.2,0.4-1.6,0.5-2.2,0.1c-0.6-0.4-0.7-0.9-0.8-2.1c-0.1-1.3-0.3-3.1-2.1-4.2c-1.8-1.2-3.5-0.6-4.7-0.2c-1.2,0.4-1.6,0.5-2.2,0.1
		l-1.6,2.4C61.2,19.2,62.4,19.2,63.4,19z"/>
	<path class="icEv0" d="M73.5,3.3c0.4,0.4,1.1,0.4,1.5,0c0.4-0.4,0.4-1.1,0-1.5l-1.5-1.5C73.3,0.1,73,0,72.8,0c-0.3,0-0.5,0.1-0.7,0.3
		S71.7,0.8,71.7,1s0.1,0.5,0.3,0.7L73.5,3.3z"/>
	<path class="icEv0" d="M78.3,8c0.4,0.4,1.1,0.4,1.5,0C79.9,7.8,80,7.6,80,7.3s-0.1-0.5-0.3-0.7L78.2,5c-0.2-0.2-0.5-0.3-0.7-0.3
		S76.9,4.8,76.7,5s-0.3,0.5-0.3,0.7s0.1,0.5,0.3,0.7L78.3,8z"/>
	<path class="icEv0" d="M74.3,4.7c-0.3,0-0.5,0.1-0.7,0.3L72,6.5c-0.4,0.4-0.4,1.1,0,1.5c0.4,0.4,1.1,0.4,1.5,0L75,6.5
		c0.4-0.4,0.4-1.1,0-1.5C74.8,4.8,74.5,4.7,74.3,4.7z"/>
	<path class="icEv0" d="M78.2,3.3l1.5-1.5C79.9,1.6,80,1.3,80,1s-0.1-0.5-0.3-0.7C79.5,0.1,79.3,0,79,0s-0.5,0.1-0.7,0.3l-1.5,1.5
		c-0.2,0.2-0.3,0.5-0.3,0.7s0.1,0.5,0.3,0.7C77.1,3.7,77.8,3.7,78.2,3.3z"/>
	<path class="icEv0" d="M5,16.7c0.4,0.4,1.1,0.4,1.5,0s0.4-1.1,0-1.5L5,13.7c-0.2-0.2-0.5-0.3-0.7-0.3c-0.3,0-0.5,0.1-0.7,0.3
		c-0.4,0.4-0.4,1.1,0,1.5L5,16.7z"/>
	<path class="icEv0" d="M9.7,21.4c0.4,0.4,1.1,0.4,1.5,0c0.2-0.2,0.3-0.5,0.3-0.7c0-0.3-0.1-0.5-0.3-0.7l-1.5-1.5
		c-0.2-0.2-0.5-0.3-0.7-0.3s-0.5,0.1-0.7,0.3c-0.4,0.4-0.4,1.1,0,1.5L9.7,21.4z"/>
	<path class="icEv0" d="M5,21.4l1.5-1.5c0.4-0.4,0.4-1.1,0-1.5c-0.2-0.2-0.5-0.3-0.7-0.3c-0.3,0-0.5,0.1-0.7,0.3l-1.5,1.5
		c-0.4,0.4-0.4,1.1,0,1.5C3.9,21.8,4.6,21.8,5,21.4z"/>
	<path class="icEv0" d="M9.7,16.7l1.5-1.5c0.2-0.2,0.3-0.5,0.3-0.7c0-0.3-0.1-0.5-0.3-0.7s-0.5-0.3-0.7-0.3c-0.3,0-0.5,0.1-0.7,0.3
		l-1.5,1.5c-0.4,0.4-0.4,1.1,0,1.5C8.6,17.1,9.3,17.1,9.7,16.7z"/>
	<path class="icEv0" d="M21.5,11.3c2.8,0,5.1-2.3,5.1-5.1S24.3,1,21.5,1s-5.1,2.3-5.1,5.1C16.3,9,18.6,11.3,21.5,11.3z M21.5,3.9
		c1.2,0,2.3,1,2.3,2.3s-1,2.3-2.3,2.3c-1.2,0-2.3-1-2.3-2.3C19.2,4.9,20.2,3.9,21.5,3.9z"/>
	<g>
		<path class="icEv0" d="M66.3,62.9c0.3-4.2-3-8.5-7-9.5c-5.1-1.1-10.3-1.7-15.5-1.7c-5.2,0-10.4,0.6-15.5,1.7c-4.1,1-7.3,5.3-7.1,9.5
			c0.3,4.4,0.7,8.9,1,13.5c0.5,6.2,5.5,12,11.2,13c3.5,0.5,6.9,0.8,10.4,0.8s6.9-0.3,10.3-0.7c5.7-1,10.8-6.8,11.2-13
			C65.7,71.7,66,67.2,66.3,62.9z"/>
		<path class="icEv0" d="M43.8,48.5c6.4,0,11.6-5.2,11.6-11.6s-5.2-11.6-11.6-11.6s-11.6,5.2-11.6,11.6C32.2,43.3,37.4,48.5,43.8,48.5
			z"/>
		<path class="icEv0" d="M19.4,76.5c-0.3-4.6-0.7-9-1-13.5c-0.1-1.4,0.1-2.8,0.5-4.1c0.2-0.7,0.5-1.3,0.8-1.9c-0.7,0-1.3-0.1-2-0.1h0
			c-4,0-8,0.4-11.9,1.3c-3.4,0.8-6,4.3-5.8,7.7c0.3,3.4,0.5,6.8,0.8,10.3c0.4,4.9,4.4,9.6,8.9,10.3c2.7,0.4,5.4,0.6,8,0.6
			c2,0,4.1-0.1,6.2-0.3c-0.5-0.6-1-1.2-1.4-1.8C20.7,82.5,19.6,79.6,19.4,76.5z"/>
		<path class="icEv0" d="M17.7,54.1c5,0,9.1-4.1,9.1-9.1s-4.1-9.1-9.1-9.1S8.6,40,8.6,45S12.7,54.1,17.7,54.1z"/>
		<path class="icEv0" d="M68.7,69.9c-0.2,2.2-0.3,4.4-0.5,6.6c-0.2,3.1-1.4,6.1-3.1,8.6c-0.2,0.3-0.4,0.6-0.7,0.9
			c1.6,0.1,3.1,0.2,4.7,0.2c2.6,0,5.3-0.2,7.8-0.6c4.2-0.7,7.8-4.9,8.1-9.5c0.3-3.5,0.5-6.9,0.8-10.3c0.2-3-2.1-6-5-6.7
			c-3.9-0.8-8.4-1.3-12.3-1.3c0.5,1.6,0.7,3.5,0.7,5.2c0,0.4-0.1,0.9-0.1,1.3"/>
		<path class="icEv0" d="M63.1,51.9c0.5,0.3,1.1,0.7,1.6,1.1c1.3,0.7,2.8,1.2,4.4,1.2c5,0,9.1-4.1,9.1-9.1s-4.1-9.1-9.1-9.1
			S60,40,60,45C60,47.8,61.2,50.2,63.1,51.9z"/>
	</g>
</g>
</svg>
