<?xml version="1.0" encoding="utf-8"?>
<!-- Generator: Adobe Illustrator 24.0.2, SVG Export Plug-In . SVG Version: 6.00 Build 0)  -->
<svg version="1.1" id="Calque_1" xmlns="http://www.w3.org/2000/svg" xmlns:xlink="http://www.w3.org/1999/xlink" x="0px" y="0px"
	 viewBox="0 0 70 70" style="enable-background:new 0 0 70 70;" xml:space="preserve">
<g>
	<path d="M43.98,63.5L43.98,63.5L43.98,63.5c0.1,0.1,0.2,0.2,0.3,0.2c0,0,0.1,0,0.1,0.1c0.1,0,0.2,0.1,0.3,0.1c0,0,0,0,0.1,0
		l22.92,5.63c0.1,0,0.2,0,0.4,0c0.4,0,0.79-0.2,1.09-0.4c0.4-0.4,0.49-0.89,0.4-1.38l-5.63-22.93c0,0,0,0,0-0.1s-0.1-0.2-0.1-0.3
		c0,0,0-0.1-0.1-0.1c-0.1-0.1-0.1-0.2-0.2-0.2l0,0l0,0L23.73,4.48c-5.34-5.34-14.03-5.34-19.37,0s-5.34,14.04,0,19.38L43.98,63.5z
		 M47.93,61.62l13.54-13.54l4.45,17.99L47.93,61.62z M45.07,60.33l-33.2-33.22l15.12-15.13l33.2,33.22L45.07,60.33z M6.43,6.56
		c1.98-1.98,4.74-3.16,7.61-3.16s5.53,1.09,7.61,3.16l3.36,3.36L9.79,25.04l-3.36-3.36c-1.98-1.98-3.16-4.75-3.16-7.61
		S4.46,8.53,6.43,6.56z"/>
</g>
</svg>
