<?xml version="1.0" encoding="utf-8"?>
<!-- Generator: Adobe Illustrator 24.0.2, SVG Export Plug-In . SVG Version: 6.00 Build 0)  -->
<svg version="1.1" id="Calque_1" xmlns="http://www.w3.org/2000/svg" xmlns:xlink="http://www.w3.org/1999/xlink" x="0px" y="0px"
	 viewBox="0 0 73 73" style="enable-background:new 0 0 73 73;" xml:space="preserve">
<style type="text/css">
	.st0{fill:#FFC894;}
	.st1{fill:#E59E03;}
	.st2{fill:#FFFFFF;}
	.st3{fill:#1BAD8F;}
</style>
<g id="Calque_2_1_">
	<g>
		<g>
			<path class="st0" d="M8.1,39.1C7.7,42.6,7.8,46,8.3,49.4c1-0.3,1.9-0.5,2.9-0.8c-0.2-1.2-0.3-3-1.2-3.8c-1-0.9-2.4-0.4-3.1,0.7
				c-1.3,2.3-0.4,5.9,0.7,8.1c0.7,1.4,2.8,0.7,2.8-0.8c0-1.6-0.4-3-1.2-4.4c-0.7-1.3-2.8-0.7-2.8,0.8c0,1.7,0.5,3.3,1.3,4.8
				c0.4,0.8,1.7,1,2.4,0.3c0.9-0.9,1.1-2.2,0.4-3.3c-0.8-1.3-2.8-0.8-2.8,0.8c0,2,0.5,4,1.6,5.8c0.8,1.3,2.7,0.7,2.8-0.8
				c0.1-1.6-0.3-3.2-1.3-4.5c-0.9-1.2-2.6-0.8-2.8,0.8c-0.2,1.7,0.2,3.9,1.4,5.2c1.2,1.3,3.2,1,3.8-0.7c-1-0.1-2-0.3-2.9-0.4
				c0,0.8,0.2,1.5,0.8,2.1c0.2,0.3,0.5,0.5,0.8,0.8c0.1,0.1,0.3,0.2,0.4,0.4c0.2,0.4,0.3,0.4,0.2,0c0.7-0.2,1.4-0.4,2.1-0.5
				c-1.1-0.8-0.5-3.5-0.2-4.5c0.4-1.7,1.2-3.3,2-4.8c-0.9-0.4-1.8-0.8-2.7-1.2c-0.7,2.9-1.3,5.7-0.9,8.6c0.2,1.7,3,1.3,2.9-0.4
				c-0.1-3.7,1.1-7.2,3.6-9.9c-0.8-0.6-1.6-1.2-2.4-1.8c-1,2-1.7,4-2.3,6.2c-0.4,1.7,1.8,2.5,2.7,1.2c1.8-2.5,2.6-5.4,5-7.4
				c2.3-1.9,5.1-3.6,8.2-3.8c-0.1-1-0.3-2-0.4-3c-8.7,1.2-15.2,7.7-20.2,14.4c0.9,0.1,1.8,0.2,2.7,0.4c-0.2-1.1-0.1-2.1,0.2-3.2
				c0.4-1.6-1.9-2.7-2.7-1.2c-0.2,0.4-0.4,0.7-0.6,1.1c0.9,0,1.7,0,2.6,0c-0.4-0.5-0.1-1.4-0.5-2c-0.5-0.9-1.6-1.2-2.5-0.9
				c-0.9,0.3-1.5,1.2-1.8,2.1c-0.1,0.5-0.2,1-0.2,1.4c0,0.3,0.2,1.1,0.2,1.3c0.3-0.3,0.7-0.7,1-1c-0.1,0-0.2,0.1-0.3,0.1
				c0.4,0,0.8,0.1,1.2,0.2c-0.7-0.3-1.3-2.1-1.7-2.8c-0.5-1-0.9-2.1-1.2-3.2c-0.6-2.2-0.8-4.5-0.7-6.7c-1,0.1-2,0.3-3,0.4
				c0.7,2.6,1.8,5.1,3.3,7.3c0.6,1,2,1,2.6,0C9.2,45.4,8.5,44,8,42.6c-0.5-1.7-0.8-3.5-0.3-5.3c-1,0-1.9,0-2.9,0
				C5,38.6,5.4,39.7,6,40.8c0.4,0.8,1.8,1,2.4,0.3c1.3-1.5,1.9-3.3,1.7-5.3c-1,0.1-2,0.3-2.9,0.4c0.1,0.7,0.2,1.3,0.3,2
				c0.8-0.5,1.7-1,2.5-1.5c-1-1-2.4-2.2-3.7-0.7c-1,1.2-1.2,3.5-0.8,4.9c0.4,1.3,1.6,2.6,3.1,2.2c1.8-0.5,2.1-2.8,1.6-4.3
				c-0.3-0.9-1.4-1.5-2.2-0.9c-0.3,0.2-0.7,0.5-1,0.8c-0.2,0.2-0.5,0.9-0.8,1C5.4,40.1,5,37.8,5,37.3c-0.2-2.6,0.8-5.2,1.8-7.5
				C5.9,29.4,5,29,4,28.6c-0.6,2.8-0.5,5.6,0.4,8.4c0.4,1.3,2.6,1.5,2.9,0C7.7,35,8,33,8.2,31.1c-1,0-2,0-3,0
				c0.2,2.7,0.4,5.4,1.8,7.8c0.6,1,2,0.9,2.6,0c1.1-1.6,1.1-3.5,0.9-5.4c-1,0-2,0-3,0c0.4,4.1,1,8.1,2,12c0.3,1.2,2.2,1.6,2.7,0.4
				c0.7-1.6,1-3.1,0.9-4.8c-0.1-2-2.8-1.9-3,0c-0.2,2.1-0.2,4.2,0.1,6.2c0.2,1.5,0.8,2.9,2.4,3.3c0.8,0.2,1.6-0.2,1.9-1
				c0.6-2.3,1.3-5.5,0.2-7.7c-0.9-1.7-4.2-3-3.8-5.2c-0.6,0.3-1.2,0.7-1.9,1c-0.2-0.1,0,0.1,0.1,0.2c0.1,0.3,0.3,0.7,0.5,1
				c0.3,0.7,0.6,1.3,0.9,1.9c0.6,1.2,1.1,2.5,1.8,3.8c0.5,0.8,1.2,1.7,2.1,1.9c0.5,0.1,1.1,0.1,1.6-0.1c0.3-0.1,1-0.8,1.3-0.8
				c-0.4-0.8-0.7-1.7-1.1-2.6c-0.9,1.1-1.9,2-2.9,2.9c-1.3,1.1,0.4,3.2,1.8,2.4c1.5-0.9,3-1.8,4.6-2.7c1.4-0.8,0.7-2.7-0.8-2.8
				c-2.3-0.2-3.2-2.1-3.6-4.1c-0.4-2-0.6-4.1-1.8-5.8c-0.7-1-1.9-0.9-2.6,0c-0.8,1.1-0.2,2.4,0.5,3.3c0.8,1.2,1.8,2.4,2.8,3.4
				c0.9,1,2,2,3.3,2.5c0.7,0.3,1.4,0.4,2.1,0.3c0.7-0.1,1.4-0.4,2.1-0.4c-0.3-0.9-0.5-1.9-0.8-2.8c-2,1.3-4.7,0.7-5.6-1.6
				c-0.7,0.6-1.5,1.1-2.2,1.7c1.8,0.8,2.6,2.9,4.6,3.5c1.6,0.5,4.5-0.2,4.8-2.1c0.4-2.2-3-2.5-4.1-3.8c-1.2-1.3-1.1-3.3,0.1-4.6
				c-0.8-0.2-1.7-0.4-2.5-0.7c1.1,3,0.7,6.9,3.3,9.2c1.1,1,2.8,1.3,4,0.5c1.2-0.7,1.8-2.6,0.3-3.5c-1.2-0.7-3,0-4.1,0.7
				c-1.2,0.8-2.5,2.1-2.8,3.6c-0.2,1.5,0.9,2.8,2.4,2.5c1.5-0.3,3-1.5,4-2.7c0.9-1.2,0.1-2.8-1.5-2.5c-1.7,0.3-2.8,1.5-3.4,3
				c-0.5,1.3,1.2,2.2,2.2,1.7c2.5-1.2,5.1-2.5,7.6-3.7c0.7-0.3,0.9-1.4,0.5-2c-0.6-1-1.5-1.9-2-2.9c-0.5-1-0.9-2-1.1-3.1
				c-0.3-1.7,0-4.7-2.6-4.5c-2.2,0.2-2.5,3-2.4,4.7c0,2.3,0.8,4.6,2,6.5c0.9-0.5,1.7-1,2.6-1.5c-1.3-2.1-2.2-4.3-2.7-6.7
				c-0.3-1.7-0.5-5.4-3.3-4.2c-2.1,0.9-2,3.5-1.9,5.4c0.1,2.7,0.5,5.3,1.2,7.9c0.3,1.3,2.1,1.4,2.7,0.4c1.9-3,0.2-6,0.2-9.3
				c0.1-3.1,3-5.1,2.9-8.2c-0.1-1.3-1.6-1.9-2.6-1.1c-1.1,1-1.9,2.2-2.4,3.6c-0.4,1.1-0.2,2.5-0.9,3.5c-0.7,1.1-2.9,1.3-4.1,1.6
				c-1.6,0.4-3.3,0.7-4.9,0.9c-0.8,0.1-1.2,1.1-1.1,1.9c0.2,0.9,1.1,1.2,1.9,1c1.8-0.3,3.6-0.6,5.4-1c1.5-0.4,3.3-0.7,4.5-1.8
				c1.1-0.9,1.4-2.2,1.7-3.6c0.3-1.6,0.7-2.9,2-4c-0.9-0.4-1.7-0.7-2.6-1.1c0.1,1.3-0.8,2.2-1.4,3.3c-0.8,1.3-1.2,2.6-1.4,4.1
				c-0.2,1.5,0.1,2.9,0.4,4.3c0.3,1.5,0.6,3-0.3,4.3c0.9,0.1,1.8,0.2,2.7,0.4c-0.5-1.8-0.8-3.6-1-5.4c-0.1-0.9-0.7-4,0.3-4.4
				c-0.4,0-0.8,0.1-1.2,0.1c0.1,0,0.2,0,0.3,0.1c-0.3-0.2-0.6-0.5-0.9-0.7c0.4,0.5,0.4,1.8,0.5,2.4c0.2,0.9,0.4,1.9,0.7,2.8
				c0.6,1.8,1.4,3.5,2.4,5.1c1,1.6,3.6,0.1,2.6-1.5c-0.8-1.3-1.4-2.7-1.5-4.2c-0.1-0.8,0.1-1.7,0-2.5c0-0.1,0-0.2,0.1-0.3
				c-1-0.6-1.4-0.6-1.3-0.1c-0.1,0.2,0,0.8,0,1c0.1,1.5,0.4,3,1,4.4c0.6,1.5,1.7,2.7,2.6,4c0.2-0.7,0.4-1.4,0.5-2
				c-2.5,1.2-5.1,2.5-7.6,3.7c0.7,0.6,1.5,1.1,2.2,1.7c0.2-0.6,0.7-0.8,1.3-0.9c-0.5-0.8-1-1.7-1.5-2.5c-0.4,0.5-0.8,1-1.4,1.3
				c-0.2,0.2-0.7,0.3-0.8,0.5c-0.4,0.1-0.3,0.3,0.4,0.6c0.3,0.6,0.5,0.7,0.7,0.3c0.4-0.3,0.6-0.9,1.1-1.2c0.3-0.2,1.2-0.8,1.6-0.6
				c-0.3-0.2-0.6-0.5-0.9-0.7c0,0.1,0.1,0.1,0.1,0.2c0-0.4-0.1-0.8-0.1-1.2c0.1-0.6,0.1,0.1-0.2-0.3c-0.3-0.3-0.5-0.4-0.7-0.8
				c-0.4-0.7-0.6-1.5-0.8-2.3c-0.4-1.6-0.5-3.2-1.1-4.8c-0.4-1-1.7-1.5-2.5-0.7c-1.6,1.7-2.3,4.2-1.6,6.4c0.4,1.1,1,2.1,1.9,2.8
				c0.5,0.4,1.1,0.8,1.7,1.1c0.4,0.2,1.4,0.5,1.6,0.8c-0.1-0.5-0.3-1-0.4-1.5c0.1-0.5,0-0.1-0.4,0c-0.2,0.1-0.4,0.1-0.6,0
				c-0.6-0.1-1-0.7-1.4-1.1c-0.8-0.9-1.6-1.7-2.7-2.2c-1-0.4-2.7,0.3-2.2,1.7c1.6,4.1,6.2,5.8,10,3.4c1.3-0.8,0.7-2.7-0.8-2.8
				c-0.9-0.1-1.8,0.5-2.7,0.4c-0.9-0.1-1.7-1-2.3-1.6c-0.7-0.6-1.3-1.3-1.9-2c-0.3-0.3-0.5-0.7-0.8-1.1c-0.2-0.2-0.3-0.5-0.5-0.7
				c-0.1-0.3-0.2-0.2-0.1,0.2c-0.9,0-1.7,0-2.6,0c1.5,2.1,1.2,4.9,2.1,7.2c1,2.5,3.2,4,5.9,4.2c-0.3-0.9-0.5-1.9-0.8-2.8
				c-1.5,0.9-3,1.8-4.6,2.7c0.6,0.8,1.2,1.6,1.8,2.4c1.1-0.9,2.1-1.8,2.9-2.9c0.8-0.9,0.4-2.7-1.1-2.6c-0.5,0-0.9,0.1-1.3,0.3
				c-0.2,0.1-0.9,0.6-0.7,0.6c-0.3-0.1-0.6-1-0.7-1.3c-0.3-0.7-0.6-1.3-0.9-1.9c-0.9-1.9-1.6-4.8-3.8-5.6c-0.7-0.3-1.7,0.3-1.8,1
				c-0.4,2.5,0.8,4.5,2.7,6.1c0.8,0.7,1.5,1.2,1.6,2.3c0.1,1.5-0.2,3-0.6,4.5c0.6-0.3,1.2-0.7,1.9-1C13,47.5,13,45.2,13,44.8
				c-0.1-1.3,0-2.6,0.1-3.8c-1,0-2,0-3,0c0.1,1.2-0.1,2.3-0.5,3.3c0.9,0.1,1.8,0.2,2.7,0.4c-0.9-3.7-1.5-7.5-1.9-11.2
				c-0.2-1.9-3.2-1.9-3,0c0.1,1.3,0.3,2.7-0.5,3.9c0.9,0,1.7,0,2.6,0c-1.1-1.9-1.3-4.1-1.4-6.3c-0.1-2-2.8-1.9-3,0
				c-0.2,1.7-0.4,3.4-0.7,5.1c1,0,1.9,0,2.9,0c-0.7-2.2-0.9-4.5-0.4-6.8c0.3-1.6-2-2.8-2.7-1.2C2.6,31.9,1,36,2.5,39.9
				c0.6,1.5,1.7,2.9,3.4,3c0.8,0,1.6-0.3,2.2-0.8c0.5-0.4,0.8-1.1,1.3-1.5c-0.7-0.3-1.5-0.6-2.2-0.9c0.2,0.6-0.2,0.9,0.7,0.8
				c0.8-0.1,0.5-0.1,0.4-0.8c0-0.3,0-0.6,0-0.9c0-0.2,0.1-0.4,0.2-0.7c0.1-0.3,0.1-0.3-0.1,0c-0.4,0-0.8,0.1-1.2,0.2
				c0,0,0.6,0.6,0.6,0.6c1.2,1.1,2.8,0,2.5-1.5c-0.1-0.7-0.2-1.3-0.3-2c-0.3-1.7-3.1-1.3-2.9,0.4C7.2,37,6.9,38.1,6.2,39
				c0.8,0.1,1.6,0.2,2.4,0.3c-0.4-0.9-0.7-1.8-0.8-2.8c-0.2-1.5-2.5-1.3-2.9,0c-0.4,1.6-0.4,3.1-0.2,4.7c0.1,0.7,0.3,1.5,0.5,2.2
				c0.1,0.3,0.8,1.6,0.6,1.9c0.9,0,1.7,0,2.6,0c-1.4-2-2.3-4.3-3-6.6c-0.4-1.7-2.9-1.3-3,0.4c-0.2,4.7,0.9,9.3,3.3,13.3
				c0.5,0.8,1.1,1.9,2.1,2.1c0.9,0.2,1.9-0.4,2.2-1.3c0.1-0.5,0-0.9-0.1-1.4c0-0.3,0-0.5-0.1-0.8c-0.1-0.6,0.5-0.3-0.6-0.7
				C8.5,50,8.7,50.2,8.8,51c0.1,0.5,0.2,0.9,0.5,1.3c0.6,0.9,2,1.1,2.6,0c0.2-0.4,0.4-0.7,0.6-1.1c-0.9-0.4-1.8-0.8-2.7-1.2
				c-0.4,1.6-0.4,3.2-0.2,4.8c0.2,1.4,2.1,1.3,2.7,0.4c4.6-6.2,10.4-12,18.4-13.1c1.7-0.2,1.3-3-0.4-3c-3.6,0.2-6.8,1.9-9.6,4.1
				c-1.4,1.1-2.6,2.4-3.6,4c-0.9,1.5-1.5,3.1-2.6,4.5c0.9,0.4,1.8,0.8,2.7,1.2c0.5-1.9,1.1-3.7,2-5.5c0.7-1.4-1.1-3.2-2.4-1.8
				c-3,3.3-4.6,7.6-4.5,12c1-0.1,2-0.3,2.9-0.4c-0.3-2.4,0.3-4.7,0.9-7c0.4-1.6-2-2.7-2.7-1.2c-1.1,2.3-2.3,4.7-2.6,7.3
				c-0.3,2.3-0.1,4.8,1.9,6.2c0.6,0.4,1.7,0.2,2.1-0.5c0.4-0.9,0.5-1.8,0-2.8c-0.2-0.4-0.6-0.8-0.9-1.1c-0.2-0.2-0.8-0.5-0.8-0.9
				c0-1.8-2.4-2-2.9-0.4c0.4-0.2,0.9-0.4,1.3-0.6c-0.1-0.1-0.1-0.2-0.2-0.4c0-0.3-0.3-0.7-0.3-1c-0.1-0.6-0.1-1.2-0.1-1.8
				C10,53.3,9,53.5,8.1,53.8c0.7,0.9,1,1.8,0.9,3c0.9-0.3,1.9-0.5,2.8-0.8c-0.8-1.3-1.2-2.7-1.2-4.2c-0.9,0.3-1.9,0.5-2.8,0.8
				c0-0.1,0.1-0.2,0.1-0.3c0.8,0.1,1.6,0.2,2.4,0.3c-0.6-1-0.9-2.1-0.9-3.3c-0.9,0.3-1.9,0.5-2.8,0.8c0.5,0.9,0.8,1.8,0.8,2.9
				c0.9-0.3,1.9-0.5,2.8-0.8c-0.4-0.8-0.7-1.8-0.8-2.7c0-0.4,0-0.9,0-1.3c0-0.2,0-0.4,0.1-0.7c0.1-0.4,0.1-0.5,0-0.3
				c-0.4,0-0.8,0.1-1.2,0.2c-0.5-0.7-0.7-0.7-0.4-0.1C7.9,47.4,8,47.6,8,47.9c0.1,0.5,0.2,1,0.3,1.5c0.3,1.9,3.1,1.1,2.9-0.8
				c-0.4-3.2-0.4-6.3,0-9.5C11.4,37.2,8.4,37.2,8.1,39.1L8.1,39.1z"/>
		</g>
	</g>
	<g>
		<g>
			<path class="st0" d="M5.7,31.4c1.9,0,1.9-3,0-3S3.8,31.4,5.7,31.4L5.7,31.4z"/>
		</g>
	</g>
	<g>
		<g>
			<path class="st0" d="M8.1,24.5C7.7,24,7.7,23.3,7,23c-0.7-0.4-1.5-0.2-2.1,0.3c-1.2,1.1-1.3,3.7-1.3,5.2c0,1.1,1.3,2,2.3,1.3
				c1.6-1.2,2.4-2.6,2.7-4.6c0.2-1.4-1.7-1.9-2.6-1.1c-2,2-3.1,4.5-3.3,7.3c1,0,2,0,3,0c0-2.2,1.2-4,2.4-5.7c1.2-1.7,2.4-3.4,3-5.4
				c0.4-1.2-1.1-2.5-2.2-1.7c-2.2,1.5-3.7,3.5-4.7,6c1,0.3,1.9,0.5,2.9,0.8c0.8-2.5,2.1-4.9,3.8-7.1c-0.8-0.6-1.6-1.2-2.4-1.8
				C7.2,19.2,6,22,5.5,24.9c-0.4,2.3-0.9,5.9,1.1,7.6c0.9,0.7,2.1,0.5,2.5-0.7c0.8-2.3,0.8-4.9-0.1-7.2c-0.5-1.4-2.4-1.5-2.9,0
				c-0.7,2.1-0.1,4.2,0.8,6.1c0.7,1.6,2.1,3.5,4.1,2.5c1.8-0.9,1.5-3.5,1.3-5.1c-0.1-1.1-0.4-2.1-0.8-3.1c-0.4-1.2-0.1-1.8,0.7-2.7
				c-0.8-0.6-1.6-1.2-2.4-1.8c-1.5,2.6-1.5,5.7-0.6,8.5c0.5,1.5,1.2,2.9,1.9,4.2c0.6,1.1,1.4,2.9,2.7,3.3c3.5,1,2.4-5.1,1.9-6.7
				c-0.5-1.5-1.2-3-2-4.4c-0.8-1.4-1.5-2.7-1-4.3c-1,0-1.9,0-2.9,0c0.5,2.4,1.2,4.6,2.1,6.9c0.7,1.6,1.7,4.4,4,3.2
				c1.8-1,2-3.5,1.8-5.3c-0.3-2.2-1.6-4.2-1.5-6.5c0.1-1.9-2.9-1.9-3,0c-0.1,2.4-0.1,10.4,4.4,8.6c1.7-0.7,2.5-2.9,2.9-4.5
				c0.5-1.9,0.5-4,1.5-5.8c-0.9,0-1.7,0-2.6,0c0.7,0.9,0.2,2.1-0.3,3.1c-0.6,1.3-1.3,2.5-2.2,3.6c0.8,0.2,1.7,0.4,2.5,0.7
				c-0.8-4.2-5.2-6.1-9-4.3c0.6,0.8,1.2,1.6,1.8,2.4c1.7-1.6,3.9-2.5,6-3.3c1.8-0.7,1-3.5-0.8-2.9c-1.3,0.5-2.6,1-3.8,1.8
				c-1,0.6-2.3,1.4-2.3,2.8c0.1,3.1,5,1.7,6.6,1c1.5-0.7,0.5-2.7-0.8-2.8c-0.2,0-0.5,0-0.7-0.1c0.4,0.9,0.7,1.7,1.1,2.6
				c0.7-0.9,1.4-1.8,2.1-2.7c0.9-1.1,0.1-2.9-1.5-2.5c-2.4,0.5-4.6,1.4-6.8,2.4c0.6,0.1,1.2,0.2,1.8,0.2c0.3,0.4,0.2,0.4,0.5,0
				c0.2-0.2,0.4-0.4,0.6-0.6c0.5-0.5,1-1,1.6-1.5c1-0.9,2.2-1.7,3.4-2.4c1.5-0.9,0.5-3-1.2-2.7c-3.3,0.6-5.9,2.7-8.4,4.8
				c0.8,0.5,1.7,1,2.5,1.5c0.3-1.2,0.7-2.3,1.6-3.3c1.1-1.2-0.3-3.4-1.8-2.4c-1.4,0.9-2.6,2.1-3.5,3.6c0.9,0.5,1.7,1,2.6,1.5
				c2.5-4.8,7.7-7.7,12.4-10c2.8-1.4,5.9-1.8,9-2.1c3.3-0.3,6.6-0.2,9.9,0.3c0.1-1,0.3-2,0.4-3c-5.3-0.6-10.7,0.2-15.6,2.2
				c-2.4,1-4.7,2.2-6.7,3.7c-2.2,1.6-4.3,3.4-5.5,5.9c-0.8,1.7,1.6,3.2,2.6,1.5c1.1-2,2.5-3.7,4.1-5.3c1.1-1.1,0-2.9-1.5-2.5
				c-4,1.1-6.8,5.1-6.4,9.2c0.1,1.2,1.2,1.8,2.3,1.3c4.6-2,7.4-6.4,11.8-8.5c5.4-2.6,11.7-1.1,17.2,0.3c1.7,0.4,2.6-1.8,1.2-2.7
				c-1.7-1.1-3.7-1.9-5.7-2.2c-1-0.2-2-0.3-2.9-0.2c-1.1,0-2.2,0.3-3.2-0.1c0,1,0,1.9,0,2.9c3.7-1.5,7.9-1,11,1.6
				c0.2-0.8,0.4-1.7,0.7-2.5c-2.3,1-5,0.6-7.5,0.8c-2.5,0.2-5.1,0.5-7.5,1.3c-4.1,1.3-7.9,3.9-9.7,7.9c0.9,0.4,1.8,0.8,2.7,1.2
				c1-4,5.2-5.6,8.7-6.9c1.8-0.7,1.1-3.2-0.8-2.9c-4,0.6-8.2,2.2-11,5.3c-2.6,2.9-4,6.9-3,10.8c0.3,1.3,2.1,1.4,2.7,0.4
				c1.5-2.4,2.9-4.9,4-7.5c0.8-1.7-1.8-3.3-2.6-1.5c-0.9,2-1.9,4-2.8,6c-0.7,1.5,1,3,2.4,1.8c1.4-1.2,2.2-2.9,3.3-4.4
				c1-1.4,2.5-2.5,4-3.3c3.7-1.9,8-1.9,12-1.5c1.9,0.2,1.9-2.8,0-3c-4.5-0.5-9.1-0.3-13.2,1.7c-1.7,0.8-3.4,2-4.6,3.5
				c-1.3,1.6-2.1,3.5-3.7,4.9c0.8,0.6,1.6,1.2,2.4,1.8c0.9-2,1.9-4,2.8-6c-0.9-0.5-1.7-1-2.6-1.5c-1.1,2.6-2.5,5.1-4,7.5
				c0.9,0.1,1.8,0.2,2.7,0.4c-0.8-3.1,0.5-6.3,2.7-8.4c2.5-2.4,5.8-3.4,9.1-4c-0.3-1-0.5-1.9-0.8-2.9c-4.5,1.7-9.5,3.8-10.8,8.9
				c-0.4,1.6,2,2.8,2.7,1.2c1.7-3.8,5.3-6,9.2-6.9c2.2-0.6,4.5-0.8,6.8-0.9s4.7,0.1,6.9-0.8c0.9-0.4,1.6-1.7,0.7-2.5
				C44,4.8,38.6,3.7,33.9,5.6c-1.3,0.5-1.5,2.4,0,2.9c1.8,0.6,3.8,0,5.7,0.3c1.9,0.2,3.7,0.9,5.4,2c0.4-0.9,0.8-1.8,1.2-2.7
				c-6-1.5-12.4-2.9-18.3-0.5c-5,2-8,6.9-13,9c0.8,0.4,1.5,0.9,2.3,1.3c-0.3-2.8,1.4-5.5,4.2-6.3c-0.5-0.8-1-1.7-1.5-2.5
				c-1.8,1.7-3.4,3.7-4.6,5.9c0.9,0.5,1.7,1,2.6,1.5c1-2.2,2.9-3.8,4.9-5.2c2-1.4,4.1-2.5,6.3-3.4c4.5-1.7,9.3-2.3,14-1.8
				c1.7,0.2,2.1-2.7,0.4-3c-3.6-0.5-7.3-0.6-11-0.3c-3.4,0.3-6.8,0.8-9.8,2.3c-5.2,2.5-11.1,6-13.8,11.3c-0.9,1.7,1.6,3.1,2.6,1.5
				c0.6-1,1.4-1.8,2.4-2.5c-0.6-0.8-1.2-1.6-1.8-2.4c-1.2,1.3-2,2.8-2.3,4.6C9.3,19.1,11,20,12.1,19c2.1-1.8,4.3-3.6,7-4.1
				c-0.4-0.9-0.8-1.8-1.2-2.7c-2,1.1-3.8,2.5-5.4,4.1c-1.4,1.4-2.8,3.2-1.3,5.1c0.4,0.5,1.3,0.5,1.8,0.2c2-0.9,4-1.6,6.1-2.1
				c-0.5-0.8-1-1.7-1.5-2.5c-0.7,0.9-1.4,1.8-2.1,2.7c-0.8,1-0.3,2.4,1.1,2.6c0.2,0,0.5,0,0.7,0.1c-0.3-0.9-0.5-1.9-0.8-2.8
				c-0.5,0.2-1,0.4-1.5,0.4c-0.2,0-0.4,0.1-0.6,0.1c-0.5-0.1-0.6,0-0.1,0.3c0.1,0.4,0.1,0.8,0.1,1.2c0.1-0.4,1.4-0.9,1.7-1.1
				c0.7-0.4,1.4-0.7,2.1-0.9c-0.3-1-0.5-1.9-0.8-2.9c-2.6,1-5.3,2.1-7.4,4.1c-1.3,1.2,0.4,3,1.8,2.4c2.1-1,4.2,0.4,4.6,2.5
				c0.2,1,1.8,1.5,2.5,0.7c2-2.5,5.2-7.1,2.9-10.3c-0.6-0.9-2-1.1-2.6,0c-1.2,2.4-1.2,5-2,7.4c-0.2,0.5-0.4,1.1-0.8,1.5
				c0.3-0.3,0.1,0.2,0.1-0.3c0-0.2-0.1-0.5-0.2-0.7c-0.3-1.5-0.3-3.2-0.2-4.8c-1,0-2,0-3,0c-0.1,1.6,0.4,3.1,0.9,4.5
				c0.4,1.3,1.1,2.8,0.6,4.1c0,0.1-0.1,0.3-0.1,0.4c-0.3,0.4,0,0.4,0.9,0.1c0.1-0.1-0.4-0.9-0.5-1c-0.3-0.8-0.6-1.6-0.9-2.4
				c-0.5-1.6-1-3.1-1.3-4.8c-0.3-1.6-2.4-1.3-2.9,0c-0.9,2.4,0.2,4.7,1.4,6.8c0.6,1.1,1.2,2.3,1.6,3.5c0.2,0.6,0.3,1.2,0.4,1.8
				c0.1,0.4,0.3,1.6,0.1,1.9c0.3-0.2,0.6-0.5,0.9-0.7c0.7,0.4,0.9,0.3,0.5-0.1c-0.2-0.3-0.3-0.5-0.5-0.8c-0.3-0.5-0.6-1-0.9-1.5
				c-0.6-1-1-2-1.4-3.1c-0.6-2-0.7-4.1,0.4-6c0.8-1.4-1.2-3.2-2.4-1.8c-0.8,1-1.7,2-1.8,3.4c-0.2,1.5,0.6,2.8,0.9,4.2
				c0.2,0.8,0.1,1.6,0.2,2.4c0,0.1,0,0.2,0,0.3c-0.1,0.3,0.2,0.3,0.8,0c0-0.1-0.4-0.6-0.4-0.7c-0.7-1.4-1.3-2.9-0.8-4.4
				c-1,0-1.9,0-2.9,0c0.7,1.9,0.8,3.7,0.1,5.6c0.8-0.2,1.7-0.4,2.5-0.7c-0.7-0.6-0.6-2-0.5-2.8c0.1-1.1,0.2-2.1,0.5-3.1
				c0.5-2.2,1.5-4.3,2.5-6.3c0.8-1.4-1.2-3.2-2.4-1.8c-2,2.5-3.6,5.3-4.6,8.4c-0.6,1.9,2.2,2.5,2.9,0.8c0.7-1.7,1.8-3.1,3.3-4.2
				c-0.7-0.6-1.5-1.1-2.2-1.7c-1.4,4.3-5.6,7.1-5.5,11.9c0,1.9,2.9,1.9,3,0c0.1-2,1-3.8,2.4-5.2c-0.8-0.4-1.7-0.7-2.6-1.1
				c-0.1,0.8-0.6,1.5-1.2,2c0.8,0.4,1.5,0.9,2.3,1.3c0-0.6,0.1-1.2,0.2-1.8c0.1-0.3,0.2-1.2,0.4-1.4c-0.3,0.1-0.7,0.3-1.1,0.4
				c0.1,0,0.1,0,0.2,0c-0.3-0.1-0.7-0.3-1.1-0.4C5,25.1,5.5,25.9,5.6,26C6.7,27.6,9.3,26.1,8.1,24.5L8.1,24.5z"/>
		</g>
	</g>
	<g>
		<g>
			<path class="st0" d="M41.9,11.7c-1.2-0.5-2.4-1-3.6-1.4c0.2,0.8,0.4,1.7,0.7,2.5c-0.1,0.1-0.5,0.1-0.2,0.1c0.1,0,0.3,0,0.4,0
				c0.3,0,0.7,0.1,1.1,0.2c0.8,0.1,1.6,0.3,2.4,0.5c1.6,0.4,3.3,0.9,4.9,1.4c0.8,0.2,1.7-0.3,1.8-1.1c0.2-0.8-0.3-1.6-1-1.9
				c-1.8-0.6-3.7-1.2-5.6-1.6c-0.9-0.2-1.8-0.4-2.8-0.5c-1.1-0.1-2.2-0.2-3,0.6c-0.4,0.4-0.5,0.9-0.4,1.5c0.2,0.6,0.5,0.9,1,1.1
				c1.2,0.5,2.4,1,3.6,1.4c0.7,0.3,1.7-0.3,1.8-1.1C43.2,12.6,42.7,12,41.9,11.7L41.9,11.7z"/>
		</g>
	</g>
	<g>
		<g>
			<path class="st0" d="M30.2,11.5c6.7-0.3,12.1,4.2,16.9,8.2c1,0.9,2.4,0.3,2.6-1.1c0.5-4.1-3.1-6.7-6.2-8.5
				c-0.4,0.9-0.8,1.8-1.2,2.7c3.2,0.9,5.8,3.9,7.3,6.8c0.4,0.7,0.7,1.5,0.8,2.4c0.1,0.5,0.1,1,0,1.4c0,0.2-0.1,0.5-0.2,0.7
				c-0.3,0.6,0.2,0.7,1.4,0.1c0-0.2-0.2-0.6-0.2-0.9c-0.1-0.5-0.2-1.1-0.2-1.6c-0.1-1.1,0-2.2,0.2-3.2c-0.8,0.2-1.7,0.4-2.5,0.7
				c0.3,0.2,0.3,0.3,0.5,0.6c0.8,1.8,3.4,0.2,2.6-1.5c-0.2-0.5-0.5-0.9-1-1.2c-0.8-0.6-2.3-0.6-2.5,0.7c-0.3,1.6-0.4,3.2-0.2,4.9
				c0.1,1.2,0.2,2.8,1.1,3.8c1,1.1,2.6,0.8,3.3-0.4c0.7-1.1,0.8-2.8,0.6-4.1c-0.4-2.8-2-5.2-3.8-7.3c-1.8-2.1-3.9-3.7-6.5-4.5
				c-1.6-0.5-2.6,1.9-1.2,2.7c2.2,1.3,5.1,2.9,4.8,5.9c0.8-0.4,1.7-0.7,2.6-1.1c-5.5-4.6-11.5-9.3-19.1-9.1
				C28.3,8.6,28.3,11.6,30.2,11.5L30.2,11.5z"/>
		</g>
	</g>
	<g>
		<path class="st1" d="M44.8,3.1c2.2,0.8,4.2,1.8,6.1,3.1c-2-1.3-4.4-2.1-6.8-2.1c5.4,1.3,10.2,5.1,12.6,10.1
			c-0.8-3.1-3.1-5.6-5.3-7.9c0.4-0.6,1.3-0.3,1.8,0c3.6,2,5.6,6.1,8.6,8.9c-3.2-3.5-7-6.7-11.6-7.7c-1.3-0.3-2.7-0.4-3.9,0.1
			C48.1,8.5,50,9,51.8,9.9s3.4,2.4,3.7,4.3c-2.2-1.6-4.4-3.2-6.7-4.5c-1.1-0.6-2.3-1.2-3.6-0.9c-0.1,0-0.2,0-0.2,0.1
			C44.6,9,45,9.3,45.2,9.5c4.1,2.1,7.2,6.1,8.2,10.6c0.1-1.4-0.5-2.7-1.2-3.9c-0.9-1.6-1.9-3.1-2.9-4.6c5.4,1.2,9.6,6.2,10,11.7
			c-0.2-3.2-0.4-6.5-0.6-9.7c1.7,2.2,3.1,4.5,4.4,7c-0.7-1.4-1.5-2.8-2.2-4.1c-0.4-0.7-0.7-1.5-0.4-2.2c1.1,0.9,2.1,1.8,3.2,2.8
			c-0.5-1.1-1-2.2-1.5-3.3c1.6,2.5,1.2,6.2,3.4,8.3c-0.4-2.4-1.3-4.8-2.6-6.8c-0.7-1.1-1.6-2.2-2.7-2.8c-2.1-1.2-5-0.8-6.7,0.9
			c-0.3,0.3-0.6,0.7-0.5,1.2c0,0.3,0.2,0.5,0.3,0.7c1.3,1.8,2.3,4,1.9,6.2c-0.3,1.9-1.6,3.6-1.8,5.5c2.1-2.1,3-5.4,2.2-8.3
			c-0.1-0.5-0.5-1.1-1-0.9c-0.4,0.1-0.5,0.6-0.5,0.9c-0.3,2.3-0.6,4.6-0.7,7c0,0.5,0,1.2,0.5,1.4c0.4,0.1,0.9-0.2,1.2-0.6
			c1.6-1.9,2.7-4.5,2.1-6.9c-0.4,2.7,0.4,5.5,2.2,7.5c0.3-2.3-0.1-4.6-1.3-6.6C58,20.2,57.7,20,57.4,20c-0.3,0.1-0.4,0.4-0.4,0.6
			c-0.2,1.5,0.1,3,0.9,4.3c0.2,0.3,0.4,0.6,0.8,0.5c0.4,0,0.6-0.5,0.7-0.9c0.4-2,0.2-4.2-0.5-6.2c-0.5,2.3-0.2,4.7,0.8,6.8
			c0.7-1.4,0.9-3.1,0.5-4.6c-0.3,2,0.1,4.1,1.2,5.8c0-2.4-0.8-4.9-2.1-6.9c0.7,3.5,2,6.8,3.8,9.8c0.7-1.9,0.6-4.1-0.2-5.9
			c-0.1,1.6-0.1,3.1,0.2,4.7c-0.5-1.7-1-3.4-1.4-5.2c0.3,0.1,0.5,0.3,0.8,0.4c-0.8-1.3-1.6-2.6-2.4-3.8c2.5,2.2,4.3,5.2,5.1,8.5
			c0.2,1,0.4,2.1,1,2.9c0.9-2.1,0.8-4.5,0.1-6.6s-2-4.1-3.5-5.8c1.9,1.9,3.5,4.1,4.7,6.5c0-2.5-0.8-5-2.2-7
			c1.6,3.3,3.8,6.5,4.2,10.1c0.2,1.5,0,2.9-0.2,4.4c-0.3,2.6-0.6,5.1-0.8,7.7"/>
		<g>
			<path class="st0" d="M44.3,4.6c2,0.7,4,1.7,5.8,2.9c0.5-0.9,1-1.7,1.5-2.6c-2.3-1.4-4.9-2.2-7.6-2.3c-1.7-0.1-2,2.5-0.4,3
				c5.1,1.2,9.4,4.7,11.8,9.4c0.8,1.5,3.2,0.5,2.7-1.2c-1-3.4-3.3-6-5.7-8.5c0,0.7,0,1.4,0,2.1c-0.3,0.3,0.3,0.4,0.7,0.6
				c0.5,0.3,0.9,0.7,1.3,1c0.8,0.7,1.5,1.5,2.2,2.4c1.4,1.7,2.7,3.4,4.2,4.9c1.4,1.3,3.4-0.7,2.1-2.1c-2.2-2.4-4.6-4.6-7.4-6.2
				c-2.8-1.6-6.4-2.8-9.6-1.8c-1.1,0.4-1.6,2.1-0.4,2.7c2.8,1.4,7.7,2,8.4,5.7c0.7-0.6,1.5-1.1,2.2-1.7c-2.3-1.7-4.6-3.4-7.1-4.8
				c-1.2-0.6-2.6-1.1-4-1c-1.2,0.2-2.2,1.2-1.7,2.4c0.4,1.1,1.8,1.5,2.6,2.1c1,0.7,1.8,1.5,2.6,2.4c1.6,1.8,2.7,4,3.3,6.4
				c0.4,1.7,2.9,1.3,3-0.4c0.1-3.4-2.5-6.5-4.3-9.2c-0.6,0.7-1.1,1.5-1.7,2.2c4.7,1.1,8.5,5.3,8.9,10.2c0.2,1.9,3.1,1.9,3,0
				c-0.2-3.2-0.4-6.5-0.6-9.7c-0.9,0.3-1.9,0.5-2.8,0.8c1.7,2.2,3.1,4.5,4.4,7c0.9,1.7,3.5,0.2,2.6-1.5c-0.5-0.9-1-1.8-1.4-2.7
				c-0.3-0.6-1.3-1.8-1-2.5c-0.8,0.2-1.7,0.4-2.5,0.7c1.1,0.9,2.1,1.9,3.2,2.8c1.3,1.1,3.1-0.3,2.4-1.8c-0.5-1.1-1-2.2-1.5-3.3
				c-0.9,0.5-1.7,1-2.6,1.5c1.7,2.8,1.2,6.2,3.6,8.6c1.1,1.1,2.7-0.1,2.5-1.5c-0.9-5.5-5-13.4-11.8-11C54,11.1,52.7,11.9,52,13
				c-0.9,1.6,0,2.7,0.8,4c0.8,1.5,1.4,3.1,0.9,4.8c-0.4,1.6-1.4,3.1-1.7,4.7c-0.3,1.4,1.4,2.6,2.5,1.5c2.3-2.4,3.4-5.8,2.7-9.1
				c-0.3-1.4-1.2-3.2-3-2.7c-1.8,0.5-1.7,3-1.9,4.5c-0.2,1.8-0.7,3.9-0.4,5.7c0.2,1.5,1.7,2.7,3.2,1.9c1.4-0.7,2.4-2.5,3-4
				c0.7-1.7,0.9-3.4,0.5-5.2s-2.8-1.1-3,0.4c-0.4,3.1,0.6,6.1,2.6,8.6c0.9,1.1,2.4,0.1,2.6-1.1c0.3-2.5-0.1-6-1.9-7.9
				c-0.8-0.9-2.2-0.9-3,0.1c-0.8,1-0.7,2.5-0.5,3.6c0.2,1.1,0.6,2.5,1.5,3.4c0.9,0.9,2.3,1,3.1,0c0.8-1,0.9-2.6,0.9-3.9
				c0-1.5-0.3-3-0.8-4.3c-0.5-1.3-2.6-1.6-2.9,0c-0.6,2.8-0.2,5.4,1,8c0.5,1,2.1,1,2.6,0c0.9-1.9,1.1-3.8,0.7-5.8
				c-0.3-1.4-2.7-1.5-2.9,0c-0.4,2.5,0,4.8,1.3,7c0.8,1.3,2.8,0.8,2.8-0.8c-0.1-2.7-0.8-5.3-2.3-7.6c-0.9-1.5-3.1-0.5-2.7,1.2
				c0.7,3.6,2.1,7,4,10.1c0.7,1.1,2.3,0.9,2.7-0.4c0.7-2.2,0.7-4.5-0.2-6.7c-0.6-1.5-2.8-1.4-3,0.4c-0.1,1.7,0,3.4,0.2,5.1
				c1-0.3,1.9-0.5,2.9-0.8c-0.5-1.7-1-3.4-1.4-5.2c-0.7,0.6-1.5,1.1-2.2,1.7c0.3,0.1,0.5,0.3,0.8,0.4c1.3,0.7,2.8-0.7,2-2
				c-0.8-1.3-1.6-2.6-2.4-3.8c-0.8,0.6-1.6,1.2-2.4,1.8c1.6,1.5,2.9,3.1,3.8,5.1c0.8,1.9,0.8,4.2,2.1,5.9c0.8,1.1,2.3,0.9,2.7-0.4
				c1.9-5-0.4-10.1-3.7-13.8c-0.7,0.7-1.4,1.4-2.1,2.1c1.8,1.8,3.3,3.9,4.5,6.1c0.7,1.3,2.8,0.7,2.8-0.8c0-2.8-0.8-5.5-2.4-7.7
				c-1.1-1.6-3.4-0.2-2.6,1.5c1.5,3.1,3.7,6.1,4,9.6c0.2,1.9-0.2,3.9-0.4,5.8c-0.2,2-0.4,4-0.7,6c-0.2,1.9,2.8,1.9,3,0
				c0.2-2.1,0.5-4.2,0.7-6.2c0.2-2.1,0.6-4.3,0.3-6.4c-0.5-3.8-2.7-6.9-4.3-10.3c-0.9,0.5-1.7,1-2.6,1.5c1.3,1.9,2,4,2,6.2
				c0.9-0.3,1.9-0.5,2.8-0.8c-1.3-2.5-3-4.7-5-6.8c-1.4-1.4-3.4,0.7-2.1,2.1c2.7,3,4.5,6.9,3,10.9c0.9-0.1,1.8-0.2,2.7-0.4
				c-0.7-0.9-0.7-2-1-3.1c-0.3-1.1-0.7-2.1-1.2-3.2c-1-2-2.4-3.9-4.1-5.4c-1.2-1.1-3.4,0.3-2.4,1.8c0.8,1.2,1.7,2.5,2.4,3.8
				c0.7-0.7,1.4-1.4,2-2c-0.3-0.1-0.5-0.3-0.8-0.4c-1.1-0.6-2.6,0.4-2.2,1.7c0.5,1.7,1,3.4,1.4,5.2c0.5,1.9,3.2,1.1,2.9-0.8
				c-0.2-1.4-0.2-2.9-0.1-4.3c-1,0.1-2,0.3-3,0.4c0.7,1.7,0.8,3.3,0.2,5.1c0.9-0.1,1.8-0.2,2.7-0.4c-1.8-2.9-3-6.1-3.7-9.4
				c-0.9,0.4-1.8,0.8-2.7,1.2c1.2,1.9,1.8,3.9,1.9,6.1c0.9-0.3,1.9-0.5,2.8-0.8c-0.8-1.4-1.3-3-1-4.7c-1,0-1.9,0-2.9,0
				c0.3,1.2,0.2,2.4-0.4,3.5c0.9,0,1.7,0,2.6,0c-0.9-1.8-1.1-3.7-0.7-5.6c-1,0-1.9,0-2.9,0c0.3,0.8,0.5,1.6,0.6,2.4
				c0.1,0.9-0.1,1.7,0,2.5c0,0.1,0,0.3-0.1,0.4c1.2,0.4,1.5,0.3,1.2-0.2c0-0.3-0.3-0.6-0.4-0.9c-0.1-0.4-0.2-0.8-0.2-1.2
				c0-0.5,0.3-0.9-0.3-0.6c-0.4,0-0.8,0.1-1.2,0.1c-0.3-0.3-0.3-0.3,0,0.1c0.1,0.3,0.3,0.5,0.4,0.8c0.2,0.5,0.3,0.9,0.4,1.4
				c0.2,1.1,0.2,2.1,0.1,3.2c0.8-0.4,1.7-0.7,2.6-1.1c-1.5-1.8-2-4.1-1.7-6.4c-1,0.1-2,0.3-3,0.4c0.2,0.9,0.1,1.8-0.2,2.7
				c-0.3,0.9-1,1.6-1.3,2.5c-0.1,0.1-0.2,0.2-0.3,0.3c0.7,0.8,0.9,1,0.8,0.5c0.2-0.3,0-0.9,0.1-1.2c0.1-1.1,0.2-2.2,0.3-3.3
				c0-0.5,0.1-0.9,0.2-1.4c0-0.3,0.1-0.7,0.1-1c0.2-0.5,0-0.5-0.7-0.1c-0.7-0.1-0.9,0-0.6,0.5c0.1,0.2,0.1,0.5,0.1,0.7
				c0,0.4,0,0.8,0,1.1c-0.1,1.8-0.8,3.4-2,4.7c0.8,0.5,1.7,1,2.5,1.5c0.5-2.6,2.2-4.7,1.9-7.4c-0.1-1.2-0.5-2.4-1-3.5
				c-0.3-0.6-0.7-1.1-0.9-1.6c-0.4-0.8-0.3-0.1-0.2-0.5c0-0.2,0.5-0.4,0.7-0.5c5.1-3,8.1,5.1,8.7,8.7c0.8-0.5,1.7-1,2.5-1.5
				c-1-1-1.3-2.5-1.6-3.8c-0.3-1.4-0.7-2.9-1.5-4.2c-1-1.7-3.4-0.2-2.6,1.5c0.5,1.1,1,2.2,1.5,3.3c0.8-0.6,1.6-1.2,2.4-1.8
				c-1.1-0.9-2.1-1.9-3.2-2.8c-0.8-0.7-2.2-0.5-2.5,0.7c-0.4,1.3,0.1,2.4,0.7,3.6c0.7,1.3,1.4,2.6,2.1,3.9c0.9-0.5,1.7-1,2.6-1.5
				c-1.3-2.4-2.8-4.8-4.4-7c-0.8-1.1-2.9-0.9-2.8,0.8c0.2,3.2,0.4,6.5,0.6,9.7c1,0,2,0,3,0c-0.5-6.2-5-11.7-11.1-13.1
				c-1.2-0.3-2.4,1.1-1.7,2.2c0.8,1.3,1.6,2.5,2.4,3.8c0.7,1.2,1.5,2.4,1.5,3.9c1-0.1,2-0.3,3-0.4c-0.6-2.5-1.7-4.8-3.3-6.9
				c-0.8-1-1.6-1.9-2.6-2.7c-0.5-0.4-1-0.8-1.5-1.1c-0.3-0.2-0.5-0.3-0.8-0.5c-0.1-0.1-0.8-0.6-0.5-0.3c0,0.4,0.1,0.8,0.2,1.2
				c0-0.1,0-0.2,0.1-0.2c-0.3,0.4-0.7,0.7-1,1.1c1.4-0.6,3.7,1.3,4.8,2c1.6,1,3.1,2.1,4.6,3.3c1.2,0.9,2.4-0.6,2.2-1.7
				C56,9,50.8,8.1,47.1,6.3c-0.1,0.9-0.2,1.8-0.3,2.8c2.6-0.9,5.7,0.5,7.9,1.9c2.3,1.4,4.3,3.3,6.1,5.3c0.7-0.7,1.4-1.4,2.1-2.1
				c-2.1-2-3.7-4.5-5.7-6.6c-1.5-1.6-4.7-4.5-6.9-2.3c-0.6,0.6-0.6,1.5,0,2.1c2,2.1,4.1,4.3,4.9,7.2c0.9-0.4,1.8-0.8,2.7-1.2
				C55.3,8,50.3,4,44.5,2.6c-0.1,1-0.3,2-0.4,3c2.2,0.1,4.2,0.8,6,1.9c1.7,1,3.1-1.5,1.5-2.6c-2-1.3-4.2-2.4-6.5-3.2
				C43.3,1,42.5,3.9,44.3,4.6L44.3,4.6z"/>
		</g>
	</g>
	<g>
		<g>
			<path class="st0" d="M64.4,30.7c1.1,0.8,1.1,2.5,1.2,3.8c0.2,1.7,0.4,3.5,0.5,5.2c0.1,1.9,2.9,1.9,3,0c0.2-2.7,0-5.4-0.4-8.1
				c-0.2-1.5-2.6-1.4-2.9,0c-0.6,3.4-0.7,6.7-0.2,10.2c0.2,1.2,2.2,1.5,2.7,0.4c1-2.2,1.5-4.4,1.7-6.8c-1,0.1-2,0.3-2.9,0.4
				c0.4,2.1,0.3,4.3-0.1,6.4c-0.3,1.6,1.9,2.7,2.7,1.2c1.2-2.2,1.8-4.4,1.4-6.9c-0.3-1.6-3.2-1.3-2.9,0.4c0.3,2.3,0.2,4.7-0.4,7
				c1,0.1,2,0.3,2.9,0.4c0-1.7,0.1-3.3,0.1-5c0-0.7,0-1.5,0.1-2.2c0-0.8-0.1-1.8,0.2-2.5c-0.8,0.2-1.7,0.4-2.5,0.7
				c-0.1-0.5-0.2-0.4-0.1,0.1c0,0.3-0.1,0.5-0.1,0.8c-0.1,0.4-0.3,0.8-0.4,1.2c-0.4,1-0.9,1.9-1.3,2.8c-0.8,1.9-1,3.8-0.1,5.8
				c0.7-0.7,1.4-1.4,2.1-2c-0.3-0.2-0.7-0.3-1-0.5c-1.1-0.5-2.6,0.4-2.2,1.7c0.3,1,0.4,2.1-0.1,3.1c0.9,0.4,1.8,0.8,2.7,1.2
				c0.4-1.3,0.9-2.5,1.6-3.7c-0.9-0.3-1.9-0.5-2.8-0.8c-0.3,2.7-0.7,5.5-2.6,7.6c0.8,0.5,1.7,1,2.5,1.5c0.6-1.9,1.1-3.9,1.3-5.9
				c0.2-1.6-1.8-2.7-2.7-1.2c-1.7,2.7-3,5.5-4,8.6c-0.5,1.6,1.9,2.6,2.7,1.2c0.7-1.3,1.3-2.6,1.9-4c0.6-1.6-1.9-2.6-2.7-1.2
				c-0.9,1.6-1.6,3.3-2.2,5c-0.5,1.6,1.9,2.6,2.7,1.2c0.6-1,1.2-2.1,1.9-3.2c-0.9-0.5-1.7-1-2.6-1.5c-0.8,1.8-1.8,3.5-2.9,5.1
				c0.9,0.5,1.7,1,2.6,1.5c0.5-1,0.8-2,0.7-3.1c0-1.4-2.1-2.2-2.8-0.8c-0.7,1.5-1.3,2.9-2,4.4c0.9,0.4,1.8,0.8,2.7,1.2
				c0.8-3.3,0.9-6.6-1.2-9.4c-0.9-1.1-2.5-0.1-2.6,1.1c-0.1,1,0,2,0.4,3c0.5,1.4,3.2,1.4,3-0.4c-0.2-1.6-0.7-3.1-1.5-4.5
				c-0.8-1.3-2.8-0.7-2.8,0.8c0,1.2,0.4,2,1.1,2.9c0.8,1,2.6,0.2,2.6-1.1c-0.1-1.7-0.6-3.4-1.6-4.8c-0.7-0.9-1.9-1-2.6,0
				c-0.5,0.7-0.5,1.5,0,2.2c0.9,1.3,3.4,0.6,2.7-1.2c-0.5-1.4-1.8-3.3-3.6-2.5c-1.8,0.9-1,3,0.3,3.9c1,0.7,2.2-0.2,2.3-1.3
				c0.1-1.5-0.7-4-2.3-4.6c-1.8-0.7-3.1,1.6-1.9,2.9c0.8,0.9,2.7,0.2,2.6-1.1c-0.1-1.3-0.8-2.6-2.2-2.6c-0.5,0-1,0.3-1.3,0.7
				c-0.3,0.4-0.3,0.9-0.2,1.4c0.2,0.5,0.5,1,1,1c0,0,0.1,0,0.1,0c0.9,0.2,2-0.4,1.9-1.5c0-1-0.4-1.9-1.1-2.6
				c-0.5-0.5-1.3-0.6-1.8-0.2c-0.9,0.5-1.2,1.3-1,2.3c0.9-0.4,1.8-0.8,2.7-1.2c-0.5-1.1-1.4-2-2.7-1.8c-1.4,0.2-2,1.4-1.8,2.6
				c0.9-0.4,1.8-0.8,2.7-1.2c-0.6-0.9-1.1-2.2-2.3-2.4c-1.1-0.2-2,0.7-2,1.8c1,0,2,0,3,0c-0.1-1-0.5-1.8-1.6-2
				c0.2,0.8,0.4,1.7,0.7,2.5c0.7-0.8,0.8-1.5,0.3-2.5c-0.8-1.8-3.3-0.2-2.6,1.5c0,0.1,0.1,0.2,0.1,0.2c0-0.4-0.1-0.8-0.2-1.2
				c0.1-0.1,0.1-0.2,0.2-0.2c-0.7,0.8-0.5,2.3,0.7,2.5c-0.1,0-0.1-0.1-0.2-0.1c-0.2-0.3-0.3-0.7-0.4-1.1c0,0.1,0,0.2,0,0.3
				c0.2,1.9,2.9,2,3,0c0,0,0-0.1,0-0.2c-0.2,0.3-0.3,0.7-0.4,1.1c0,0,0.1-0.1,0.1-0.1c-0.3,0.2-0.7,0.3-1.1,0.4
				c-0.4,0-1-0.8-0.4,0.1c0.2,0.3,0.3,0.5,0.5,0.8c1,1.5,3,0.5,2.7-1.2c0-0.1,0-0.2,0-0.3c0,0.4-0.1,0.8-0.2,1.2
				c-0.9-0.3-1.2-0.2-1,0.2c0.1,0.1,0.1,0.3,0.2,0.4c0.7,1.6,3.1,0.4,2.7-1.2c0,0.1,0,0.2,0,0.3c-0.2,0.3-0.5,0.6-0.7,0.9
				c0.1,0,0.2-0.1,0.2-0.1c-0.6-0.1-1.2-0.2-1.8-0.2c0.2,0.1,0.3,0.3,0.3,0.5c0.6-0.5,1.3-1,1.9-1.5c0,0-0.1,0-0.1,0
				c0.3,0.3,0.7,0.7,1,1c0,0,0-0.1,0-0.1c0,0.4-0.1,0.8-0.2,1.2c0,0,0-0.1,0-0.1c-0.4,0.3-0.9,0.5-1.3,0.7c-0.3-0.1-0.5-0.3-0.8-0.4
				c0.8-0.3,1.7-0.7,2.6-1.1c0,0-0.1-0.1-0.1-0.1c0.1,0.5,0.3,1,0.4,1.5c-0.2,0.2-0.5,0.4-0.7,0.7c-0.4,0-0.8-0.1-1.2-0.2
				c0.5,0.2,0.6,1.5,0.6,1.9c0.8-0.4,1.5-0.9,2.3-1.3c0,0.3,0,0.6,0.1,0.9c-0.3,0.2-0.6,0.5-0.9,0.7c0.1,0,0.2,0,0.3-0.1
				c-0.4,0-0.8-0.1-1.2-0.2c0.3,0.2,0.5,0.4,0.6,0.7c0.9-0.4,1.8-0.8,2.7-1.2c0,0.3,0,0.5,0,0.8c-0.9,0-1.7,0-2.6,0
				c0.7,1,1.2,2,1.2,3.2c0.8-0.3,1.7-0.7,2.6-1.1c-0.2-0.2-0.2-0.5-0.2-0.8c-0.9,0.3-1.9,0.5-2.8,0.8c0.5,0.9,0.9,1.9,1.1,3
				c1-0.1,2-0.3,3-0.4c-0.3-0.8-0.4-1.4-0.3-2.2c-0.8,0.3-1.7,0.7-2.6,1.1c1.4,1.8,1,4.4,0.5,6.5c-0.4,1.6,2,2.8,2.7,1.2
				c0.7-1.5,1.3-2.9,2-4.4c-0.9-0.3-1.9-0.5-2.8-0.8c0,0.6,0,1.1-0.3,1.6c-0.9,1.7,1.5,3.1,2.6,1.5c1.2-1.6,2.1-3.3,2.9-5.1
				c0.8-1.7-1.6-3.2-2.6-1.5c-0.6,1-1.2,2.1-1.8,3.2c0.9,0.4,1.8,0.8,2.7,1.2c0.5-1.5,1.1-2.9,1.9-4.3c-0.9-0.4-1.8-0.8-2.7-1.2
				c-0.5,1.1-1,2.2-1.6,3.2c0.9,0.4,1.8,0.8,2.7,1.2c0.9-2.8,2.1-5.4,3.7-7.8c-0.9-0.4-1.8-0.8-2.7-1.2c-0.3,2-0.7,4-1.3,5.9
				c-0.5,1.4,1.5,2.6,2.5,1.5c2.4-2.7,3.1-6.2,3.5-9.7c0.2-1.5-2.2-2-2.8-0.8c-0.7,1.4-1.3,2.9-1.9,4.5c-0.5,1.6,2,2.7,2.7,1.2
				c0.8-1.8,1-3.5,0.4-5.4c-0.7,0.6-1.5,1.1-2.2,1.7c0.3,0.2,0.7,0.3,1,0.5c1.4,0.7,2.7-0.7,2.1-2c-0.9-1.9,0.8-4.2,1.6-5.9
				c0.7-1.6,1.4-3.9,0.1-5.4c-0.8-0.9-2.1-0.3-2.5,0.7c-0.6,1.5-0.3,3.5-0.3,5.1c0,1.8-0.1,3.6-0.1,5.5c0,1.7,2.6,2,2.9,0.4
				c0.6-2.5,0.8-5.2,0.5-7.8c-1,0.1-2,0.3-2.9,0.4c0.3,1.6-0.3,3.2-1.1,4.6c0.9,0.4,1.8,0.8,2.7,1.2c0.6-2.7,0.6-5.3,0.1-8
				c-0.3-1.8-2.8-1.2-2.9,0.4c-0.1,1.8-0.5,3.6-1.3,5.3c0.9,0.1,1.8,0.2,2.7,0.4c-0.4-2.8-0.3-5.7,0.2-8.6c-1,0-1.9,0-2.9,0
				c0.4,2.4,0.4,4.8,0.3,7.3c1,0,2,0,3,0c-0.1-2.2-0.4-4.4-0.7-6.5c-0.2-1.7-0.5-3.5-1.9-4.6C65,27.4,62.8,29.5,64.4,30.7L64.4,30.7
				z"/>
		</g>
	</g>
	<g>
		<g>
			<path class="st0" d="M55.7,33.2c0.2-0.3,0.3-0.5,0.5-0.8c-0.9-0.5-1.7-1-2.6-1.5c-0.5,1-0.7,1.9-0.8,3.1c-0.1,1.6,2,1.8,2.8,0.8
				c0.8-1.1,0.5-2.4-0.2-3.4c-0.5-0.6-1.6-0.6-2.1,0c-1.5,1.7-2.5,3.7-3,5.9c-0.3,1.2,0.7,2.1,1.8,1.8c1.1-0.2,1.8-1,2.1-2
				c0.4-1.1-0.8-2.1-1.8-1.8c-0.7,0.2-1.3,0.6-1.8,1.1c-0.4,0.5-0.7,1.1-1.3,1.4c-0.7,0.4-1.6,0.6-2.3,0.9c-0.7,0.3-1.5,1.1-2.3,0.9
				c0.1,0.9,0.2,1.8,0.4,2.7c0.8-0.4,2.5-1.4,3.2-0.3c0.4-0.8,0.9-1.5,1.3-2.3c-1.1,0.1-2.2,0.3-3.3,0.5c-1.5,0.3-1.3,2.5,0,2.9
				c1.4,0.4,3.6,0.6,4.3-0.9c0.4-0.8,0.2-1.7-0.4-2.4c-0.2-0.2-0.7-0.5-0.8-0.7c0.2,0.4,0.4-0.3,0.6-0.5c2.3-3.2,3-7.5,4.1-11.2
				c-1-0.1-2-0.3-3-0.4c-0.1,1.9,0,3.7,0.2,5.6c0.1,1.4,0.5,2.9,2.2,3c0.7,0,1.2-0.5,1.5-1.1c0.6-1.8,0.7-3.6,0.4-5.5
				c-0.2-1.6-2.4-1.2-2.9,0c-0.6,1.5-0.4,3.2,0.5,4.5c0.6,1,2,1,2.6,0c1-1.7,1.8-3.5,2.1-5.4c0.3-1.9-2.5-2.7-2.9-0.8
				c-0.3,1.3-0.2,2.4,0.4,3.6c0.6,1.3,2.3,0.7,2.7-0.4c0.2-0.5,0.4-1,0.5-1.5c-1,0-1.9,0-2.9,0c0.2,0.6,0.5,1.3,0.7,1.9
				c0.4,1.1,1.6,1.5,2.5,0.7c0.9-0.8,1.2-1.8,1.3-2.9c-1,0.1-2,0.3-3,0.4c0.3,1.3,0.8,2.5,1.6,3.5c0.8,1.1,2.2,0.9,2.7-0.4
				c0.5-1.2,0.3-2.3-0.2-3.4c-0.7-1.5-2.7-0.6-2.8,0.8c-0.1,1.4,0.5,3.1,2.1,3.2c1.6,0.1,2.3-1.9,3-3c-0.9,0-1.7,0-2.6,0
				c1.1,1.4,0.5,3.5,2.3,4.5c1.4,0.8,3.6,0.2,3.9-1.6c-1-0.1-2-0.3-2.9-0.4c-0.1,1.2-0.4,2.4-0.7,3.6c0.9-0.1,1.8-0.2,2.7-0.4
				c-0.7-1-1.5-2-2.2-3c-0.9-1.2-2.7-0.8-2.8,0.8c-0.1,1.6,0.3,3.1,1.2,4.4c0.8,1.2,2.9,0.8,2.8-0.8c-0.1-1.5-0.6-4.2-2.4-4.7
				c-0.9-0.2-1.6,0.3-2.2,1c-0.4,0.5-0.7,1-0.9,1.5c-0.2,0.4-0.4,1.1-0.7,1.5c0.3-0.2,0.7-0.3,1.1-0.4c-0.1,0-0.2,0-0.3,0
				c0.4,0.3,0.9,0.5,1.3,0.7c-0.5-0.8-0.8-1.8-1.2-2.6c-0.5-1.2-2.7-1.7-2.9,0c-0.1,0.8-0.2,1.6-0.1,2.4c0.2,1.9,2.8,1.9,3,0
				c0.1-0.9,0-1.7-0.2-2.5c-0.4-1.5-2.5-1.4-2.9,0c-0.3,0.9-0.1,1.6,0.2,2.5c0.5,1.2,2.5,0.8,2.7-0.4c0.2-0.9,0.4-1.8,0.5-2.6
				c0.3-1.7-1.8-2.6-2.7-1.2c0.2-0.3,1.6-0.1,0.4-0.5c-0.3-0.1-0.5-0.1-0.8-0.1c-0.6,0.1-1.1,0.4-1.5,0.8c-0.8,1-1.3,2.3-1.8,3.5
				c1,0.1,2,0.3,3,0.4c-0.1-1-0.2-1.9-0.3-2.8c-0.2-1.9-2.8-1.9-3,0c-0.2,1.5-0.3,2.9-0.5,4.4c0,0.3-0.4,1.6-0.2,1.8
				c0.5-0.1,1.1-0.3,1.6-0.4c-0.1-0.2-0.3-0.3-0.4-0.5c-0.2-0.3-0.3-0.6-0.5-0.9c-0.8,0.5-1.7,1-2.5,1.5c0.5,0.5,0.9,1.1,1.3,1.8
				c0.1,0.3,0.3,0.5,0.4,0.8c0.1,0.2,0.2,0.4,0.3,0.6c0.1,0.3,0.2,0.3,0.2-0.2c0.3-0.2,0.6-0.5,0.9-0.7c0.3,0,0.3-0.1-0.1-0.3
				c-0.2-0.2-0.4-0.3-0.6-0.5c-0.4-0.4-0.8-0.8-1.2-1.2c-0.6,0.8-1.2,1.6-1.8,2.4c1.1,0.8,2.5,1.4,3.8,0.7c1.2-0.6,1.7-2.2,1.9-3.4
				c0.3-1.5,0.2-2.9,0.1-4.4c0-0.8-0.1-1.5-0.1-2.3c0-0.6-0.3-1.8-0.1-2.2c-0.2,0.3-0.5,0.6-0.7,0.9c-0.4,0.3,0,0.1,0.1,0.4
				c0,0.3,0,0.6,0.1,0.9c0.1,0.6,0.5,1.2,1,1.5c1.4,0.8,2.5-0.5,3.5-1.4c-0.8-0.2-1.7-0.4-2.5-0.7c0.3,1.5,1.1,3.3,3,3.4
				c2.2,0,2.1-2.4,1.4-3.8c-0.8-1.6-3-2.6-4.5-1.2c-1.3,1.3-1.4,3.8-1.5,5.6c0,1.5-0.3,4.5,1.2,5.5c1.9,1.3,3.2-1.1,3.3-2.7
				c0.1-1.7-0.6-4.1-2.2-5c-1.7-0.9-3.6,0.3-4.4,1.8c-1,1.8-0.8,4.1-0.2,6c0.4,1.1,0.9,2.2,1.5,3.1c0.6,1,1.6,2.2,1.4,3.4
				c1,0,1.9,0,2.9,0c-0.5-2.4-2.9-6.3-0.5-8.3c-0.8-0.3-1.7-0.7-2.6-1.1c0.1,4.9,0.9,9.8,2.4,14.4c0.5-0.6,1-1.3,1.5-1.9
				c-0.5,0-1-1-1.3-1.3c-0.5-0.5-1-0.8-1.7-1.1c-1.5-0.5-2.3,1.5-1.5,2.5c0.7,0.9,1.5,1.7,2.4,2.5c0.7,0.7,1.5,1.4,2.6,1.2
				c1.9-0.4,2.8-3.5,3.3-5.1c1.5-4.4,1.5-9.2,2.2-13.8c-1-0.1-2-0.3-3-0.4c0.3,4-1,7.7-2.1,11.5c-0.4,1.2,1.1,2.4,2.2,1.7
				c2.2-1.4,2.6-4.1,2.9-6.5c0.3-2.3,0.4-5.2-1.8-6.6c-0.9-0.6-2.3-0.8-3.1,0.1c-0.8,0.8-0.7,2.2-0.7,3.3c-0.2,3-0.9,5.9-1.9,8.7
				c1,0,1.9,0,2.9,0c-0.9-3.7,0.8-7.4,0.6-11.2c-0.1-1.6-2.6-2.1-3-0.4c-0.6,2.8-0.8,5.7-0.5,8.6c0.2,1.9,3.2,1.9,3,0
				c-0.2-2.6-0.1-5.2,0.4-7.8c-1-0.1-2-0.3-3-0.4c0.2,4-1.5,7.9-0.5,12c0.4,1.5,2.4,1.3,2.9,0c0.6-1.7,1.1-3.4,1.4-5.2
				c0.3-1.6,0.8-3.7,0.7-5.3c0-0.2,0-0.3,0-0.5c-0.8,0.2-1.1,0.5-0.6,0.9c0,0.3,0.2,0.5,0.3,0.8c0.1,0.8,0,1.6,0,2.3
				c-0.1,1.3-0.3,3.8-1.5,4.6c0.7,0.6,1.5,1.1,2.2,1.7c1.2-4.1,2.5-8,2.2-12.3c-0.1-1.6-2.7-2.2-3-0.4c-0.5,3.6-0.7,7.3-1.4,10.8
				c-0.3,1.7-0.8,3.4-1.6,5c0,0.1-0.7,1-0.6,1.1c1,0,1.2-0.1,0.6-0.5c-0.1-0.1-0.2-0.2-0.3-0.3c-0.7-0.7-1.4-1.4-2-2.2
				c-0.5,0.8-1,1.7-1.5,2.5c0.6,0.2,1.1,1.3,1.5,1.7c0.6,0.5,1.3,0.8,2.2,0.8c0.9-0.1,1.8-0.9,1.5-1.9c-1.5-4.4-2.3-9-2.3-13.6
				c0-1.4-1.6-1.9-2.6-1.1c-3.6,3.1-0.9,7.6-0.2,11.2c0.3,1.4,2.7,1.5,2.9,0c0.3-1.6-0.1-3-0.9-4.5c-0.8-1.3-1.7-2.4-2.1-3.9
				c-0.3-1.1-0.7-2.8,0.1-3.8c0.1-0.1,0.4-0.3,0.3-0.3c-0.2,0,0.2,0.5,0.3,0.7c0.1,0.4,0.2,0.8,0.2,1.2c0,0.1,0,0.3,0,0.4
				c-0.2,0.6,0,0.6,0.7,0c0.3,0.2,0.7,0.3,1.1,0.4c0.1,0.1,0-0.5,0-0.7c0-0.4-0.1-0.8-0.1-1.2c0-0.8,0-1.5,0-2.3
				c0.1-0.7,0.3-1.4,0.3-2.1c0-0.1,0.1-0.3,0.1-0.4c-0.1,0.1-0.3,0.1-0.4,0.2c0,0.1,0.1,0.2,0.2,0.3c0.1,0.6,0.2,0.5,0.4-0.3
				c0.3-0.2,0.7-0.3,1.1-0.4c0.3,0,0,0,0-0.3c0-0.3-0.2-0.6-0.2-0.9c-0.2-1.2-1.7-1.4-2.5-0.7c-0.3,0.3-0.7,0.8-1.1,1
				c0.4,0,0.8-0.1,1.2-0.1c0.4,0.3,0.6,0.2,0.4-0.2c0-0.2,0-0.3-0.1-0.5c-0.1-0.4-0.3-0.8-0.6-1.1c-0.5-0.5-1-0.9-1.7-1.1
				c-1.4-0.4-2.9,0.3-2.9,1.9c0,1.9,0.2,3.9,0.3,5.8c0,0.8,0.1,1.7-0.1,2.5c0,0.2-0.1,1.1-0.3,1.2c-0.1,0-0.6-0.3-0.8-0.5
				c-1.4-1-2.9,1.2-1.8,2.4c1.2,1.2,4.3,4.6,5.8,1.9c0.6-1,0-2.2-0.4-3.2c-0.6-1.2-1.4-2.3-2.3-3.3c-1-1.1-3,0-2.5,1.5
				c0.6,1.5,2.6,5.1,4.5,2.8c0.7-0.9,0.7-2.2,0.8-3.3c0.2-1.5,0.3-3.1,0.5-4.6c-1,0-2,0-3,0c0.1,1,0.2,1.9,0.3,2.8
				c0.2,1.8,2.3,2,3,0.4c0.2-0.5,0.5-1.1,0.8-1.6c0-0.1,0.4-0.7,0.4-0.8c0,0-1.5,0.2-0.2,0.4c1,0.2,1.8-0.3,2.3-1.1
				c-0.9-0.4-1.8-0.8-2.7-1.2c-0.2,0.9-0.4,1.8-0.5,2.6c0.9-0.1,1.8-0.2,2.7-0.4c0,0,0-0.1,0.1-0.2c-1,0-1.9,0-2.9,0
				c0.2,0.6,0.2,1.1,0.1,1.8c1,0,2,0,3,0c0-0.5-0.1-1.1,0-1.6c-1,0-1.9,0-2.9,0c0.6,1.3,1.1,4.2,3,4.1c0.8-0.1,1.3-0.6,1.7-1.3
				c0.2-0.4,0.3-0.8,0.5-1.2c0.1-0.2,0.8-1.3,0.5-1.2c-0.4,0-0.8-0.1-1.2-0.2c0.4,0.2,0.5,1.5,0.6,1.9c0.9-0.3,1.9-0.5,2.8-0.8
				c-0.6-0.9-0.8-1.8-0.8-2.9c-0.9,0.3-1.9,0.5-2.8,0.8c0.7,1,1.5,2,2.2,3c0.7,1,2.4,1,2.7-0.4c0.4-1.5,0.6-2.9,0.8-4.4
				c0.2-1.7-2.7-2.1-2.9-0.4c0.5,0,0.7-0.1,0.5-0.3c-0.1-0.1-0.1-0.2-0.2-0.3c0-0.3-0.2-0.7-0.2-1c-0.2-0.8-0.4-1.4-0.8-2
				c-0.7-0.9-2-1.1-2.6,0c-0.2,0.4-0.5,0.8-0.7,1.2c-0.1,0.1-0.2,0.3-0.3,0.4c-0.3,0.5-0.3,0.5,0,0.1c0.4,0,0.8-0.1,1.2-0.1
				c0.3,0.2,0.4,0.1,0.3-0.3c-0.9,0.3-1.9,0.5-2.8,0.8c0.2,0.4,0.1,0.7-0.1,1.1c0.9-0.1,1.8-0.2,2.7-0.4c-0.6-0.9-1-1.7-1.3-2.8
				c-0.4-1.8-2.8-1.2-3,0.4c0,0.4-0.2,0.5-0.5,0.8c0.8,0.2,1.7,0.4,2.5,0.7c-0.2-0.6-0.5-1.3-0.7-1.9c-0.5-1.4-2.4-1.4-2.9,0
				c-0.2,0.5-0.4,1-0.5,1.5c0.9-0.1,1.8-0.2,2.7-0.4c-0.2-0.4-0.2-0.8-0.1-1.3c-1-0.3-1.9-0.5-2.9-0.8c-0.3,1.7-0.9,3.2-1.8,4.7
				c0.9,0,1.7,0,2.6,0c-0.5-0.8-0.5-1.4-0.2-2.2c-1,0-1.9,0-2.9,0c0.2,1.3,0,2.6-0.4,3.9c0.5-0.4,1-0.7,1.5-1.1c-0.1,0-0.2,0-0.2,0
				c0.3,0.2,0.7,0.3,1.1,0.4c-0.1-0.1-0.1-0.9-0.1-1.1c0-0.6-0.1-1.1-0.1-1.7C54,29,54,28,54,26.9c0.1-1.7-2.5-2-3-0.4
				c-0.5,1.7-1,3.4-1.5,5.1c-0.4,1.5-0.8,3-1.6,4.3c-0.7,1.1-1.8,2.1-1.7,3.6c0,0.6,0.3,1.2,0.8,1.7c0.2,0.1,0.3,0.2,0.5,0.4
				c0.4,0.4,0.6,0,0.5-1.2c-0.1-0.1-1-0.1-1.2-0.2c0,1,0,1.9,0,2.9c0.8-0.2,1.6-0.3,2.5-0.4c1-0.1,2-1.2,1.3-2.3
				c-1.8-2.7-4.9-2-7.3-0.7c-1.2,0.6-0.9,2.5,0.4,2.7c2.2,0.5,3.6-0.9,5.6-1.5c0.9-0.3,1.6-0.6,2.3-1.3c0.5-0.5,0.8-1.3,1.5-1.5
				c-0.6-0.6-1.2-1.2-1.8-1.8c0,0,0-0.1,0-0.1c0.6,0.6,1.2,1.2,1.8,1.8c0.4-1.7,1.2-3.2,2.3-4.6c-0.7,0-1.4,0-2.1,0
				c0-0.3-0.1-0.3-0.2-0.2c0.9,0.3,1.9,0.5,2.8,0.8c0-0.5,0.1-1,0.4-1.5c0.8-1.7-1.6-3.2-2.6-1.5c-0.2,0.3-0.3,0.5-0.5,0.8
				C52,33.3,54.7,34.8,55.7,33.2L55.7,33.2z"/>
		</g>
	</g>
	<g>
		<g>
			<path class="st0" d="M60,48.4c-0.2,0.6-0.3,1.3-0.4,2c0,0.1,0,0.3,0,0.4c0,0.2,0.1,0.4,0.3,0.5c0.1,0.1,0.2,0.2,0.3,0.3
				c0.1,0.1,0.3,0.2,0.5,0.3c0.1,0,0.3,0,0.4,0c0.1,0,0.3,0,0.4,0c0.2,0,0.4-0.1,0.5-0.3c0.2-0.1,0.3-0.3,0.4-0.4
				c0.1-0.2,0.3-0.5,0.3-0.8c0.1-0.4,0.1-0.8,0-1.2c-0.1-0.3-0.3-0.7-0.5-0.9c-0.2-0.2-0.6-0.5-0.9-0.5c-0.3-0.1-0.6-0.1-0.9,0
				c-0.3,0.1-0.5,0.2-0.8,0.4c-0.2,0.2-0.3,0.4-0.5,0.6c-0.1,0.3-0.2,0.5-0.3,0.8c-0.1,0.3-0.1,0.5-0.1,0.8c0,0.2,0,0.4,0.1,0.6
				c0.1,0.2,0.2,0.3,0.3,0.5c0.1,0.2,0.3,0.3,0.5,0.3c0.2,0.1,0.4,0.1,0.6,0.1c0.1,0,0.3,0,0.4,0c0.3-0.1,0.5-0.2,0.7-0.4
				c0.1-0.1,0.2-0.2,0.2-0.3c0.1-0.2,0.2-0.5,0.2-0.8c0-0.1,0-0.2,0-0.3c0,0.1,0,0.3,0,0.4c0-0.2,0.1-0.3,0.1-0.5
				c0,0.1-0.1,0.2-0.2,0.4c0-0.1,0.1-0.2,0.2-0.3c-0.1,0.1-0.2,0.2-0.2,0.3c0,0,0,0,0.1-0.1c-0.1,0.1-0.2,0.2-0.3,0.2c0,0,0,0,0.1,0
				c-0.1,0-0.2,0.1-0.4,0.2c0,0,0,0,0.1,0c-0.1,0-0.3,0-0.4,0c0,0,0,0,0.1,0c-0.1,0-0.3,0-0.4,0c0,0,0.1,0,0.1,0
				c-0.1,0-0.2-0.1-0.4-0.2c0,0,0.1,0,0.1,0.1c-0.1-0.1-0.2-0.2-0.3-0.2c0,0,0.1,0.1,0.1,0.1c-0.1-0.1-0.2-0.2-0.2-0.3
				c0,0,0.1,0.1,0.1,0.1c0-0.1-0.1-0.2-0.2-0.4c0,0,0,0.1,0,0.1c0-0.1,0-0.3,0-0.4c0,0.1,0,0.1,0,0.2c0-0.1,0-0.3,0-0.4
				c0,0.1,0,0.2-0.1,0.3c0-0.1,0.1-0.2,0.2-0.4c0,0.1-0.1,0.2-0.1,0.3c0.9,0.3,1.9,0.5,2.8,0.8c0,0,0-0.1,0-0.1c0,0.1,0,0.3,0,0.4
				c0.1-0.5,0.2-1,0.3-1.5c0.1-0.2,0.1-0.4,0-0.6c0-0.2-0.1-0.4-0.2-0.6c-0.1-0.2-0.2-0.3-0.4-0.4c-0.1-0.1-0.3-0.2-0.5-0.3
				c-0.1,0-0.3,0-0.4,0c-0.3,0-0.5,0.1-0.8,0.2C60.3,47.7,60.1,48,60,48.4L60,48.4z"/>
		</g>
	</g>
	<g>
		<g>
			<path class="st2" d="M24.6,28.9c-0.1,1.3-0.1,2.5,0.1,3.7c0,0.3,0.4,0.8,0.7,0.9c0.4,0.2,0.8,0.3,1.2,0.2c0.6-0.2,1-0.6,1.2-1.2
				c0.1-0.4,0.1-0.8,0-1.2c-0.1-0.6-0.2-1.2-0.3-1.8s-0.2-1.2-0.3-1.8c-0.1-0.5-0.1-0.9-0.5-1.3c-0.5-0.5-1.3-0.6-1.9-0.2
				c-0.8,0.4-1,1.4-1.1,2.2c-0.1,0.6,0.1,1.3,0.3,1.9c0.4,1.1,0.8,2.2,1.2,3.3c0.1,0.4,0.3,0.7,0.7,0.9c0.3,0.2,0.8,0.3,1.2,0.2
				c0.7-0.2,1.3-1.1,1-1.8c-0.4-0.9-0.7-1.9-1.1-2.8c-0.1-0.2-0.2-0.4-0.2-0.6c0-0.1-0.1-0.2-0.1-0.4c0,0,0-0.1,0-0.1
				c0-0.1,0-0.1,0,0.1c0,0,0-0.3,0-0.3c0-0.4-0.1,0.3,0,0c0-0.1,0.1-0.2,0.1-0.3c-0.1,0.2-0.1,0.3,0,0.1c0.2-0.3,0-0.2-0.6,0.5
				c-0.4,0-0.8-0.1-1.2-0.1c0,0,0,0,0,0c-0.2-0.3-0.5-0.6-0.7-0.9c0.1,0.3,0.1,0.8,0.2,1.1c0.1,0.4,0.1,0.8,0.2,1.1
				c0.1,0.4,0.1,0.7,0.2,1.1c0,0.2,0.1,0.4,0.1,0.6c0,0.1,0,0.4,0-0.1c0,0,0,0,0,0.1c0-0.5,0.3-0.9,0.9-1.1c0.6,0.4,1.2,0.7,1.9,1
				c0.1,0.4,0-0.1,0-0.1c0-0.1,0-0.2,0-0.3c0-0.3,0-0.5,0-0.8c0-0.5,0-1.1,0.1-1.6c0-0.4-0.2-0.8-0.4-1.1c-0.3-0.3-0.7-0.5-1.1-0.4
				c-0.4,0-0.8,0.1-1.1,0.4C24.8,28.2,24.6,28.5,24.6,28.9L24.6,28.9z"/>
		</g>
	</g>
	<g>
		<g>
			<path class="st0" d="M43.3,7.3c2.9,0.9,5.7,1.8,8.6,2.7c1.6,0.5,2.7-2,1.2-2.7c-2.7-1.4-5.7-1.9-8.7-2.5c-2.9-0.5-5.8-1-8.3-2.6
				c-0.3,0.9-0.5,1.9-0.8,2.8c1.4-0.2,2.8-0.3,4.1-0.5c0.7-0.1,1.3-0.1,2-0.2c0.2,0,0.7,0.1,0.8,0c0.2-0.1,0.2,0.2,0-0.1
				c0.9,1.7,3.5,0.2,2.6-1.5c-0.8-1.5-2.6-1.4-4.1-1.3C39,1.6,37.2,1.8,35.4,2c-1.4,0.2-2.2,2-0.8,2.8c5.2,3.2,11.6,2.3,17,5
				C52,8.9,52.4,8,52.8,7.1c-2.9-0.9-5.7-1.8-8.6-2.7C42.3,3.8,41.5,6.7,43.3,7.3L43.3,7.3z"/>
		</g>
	</g>
	<g>
		<g>
			<path class="st0" d="M51.6,21.1c1.1,1.7,2.3,3.4,3.4,5.1c1.1,1.6,2.1,3.4,3.5,4.8c1.1,1.2,3.3-0.4,2.4-1.8c-1.4-2-2.3-4-2.9-6.3
				c-0.2-0.8-1.1-1.3-1.8-1c-0.8,0.3-1.3,1-1,1.9c0.7,2.5,1.7,4.9,3.2,7c0.8-0.6,1.6-1.2,2.4-1.8c-1.2-1.3-2.1-2.9-3.1-4.4
				c-1.1-1.6-2.2-3.3-3.3-4.9c-0.5-0.7-1.3-1-2-0.5C51.5,19.4,51.2,20.4,51.6,21.1L51.6,21.1z"/>
		</g>
	</g>
</g>
<g id="Calque_4">
</g>
<g id="Calque_3">
	<g>
		<g>
			<path class="st3" d="M15.7,63.4c0.3,0.5,0.6,1,1,1.5c0.7,0.8,1.9,0.4,2.4-0.3c0.7-1,0.4-2.7-0.6-3.4c-1-0.6-2.6-0.2-2.8,1.1
				c0.9-0.1,1.8-0.2,2.7-0.4c-0.5-1-1.8-1.7-2.9-1.1c-0.9,0.5-1.4,1.8-0.8,2.7c0.4,0.5,0.9,0.8,1.5,0.7c0.6-0.1,1.1-0.5,1.3-1.1
				c0.3-1.3,0.4-2.7,0.5-4.1c0-0.5,0-1.1,0.1-1.6c0.1-0.3,0.1-0.3,0.2-0.4c0.1-0.1,0.3-0.2,0-0.1c-0.6-0.3-1.2-0.7-1.9-1
				c0.1,0.5,0.1,1.1,0.1,1.7c0,0.7,0,1.3,0.2,2c0.2,1.2,0.7,2.3,1.3,3.4c0.4,0.6,1,0.9,1.7,0.7c0.6-0.2,1.2-0.8,1.1-1.5
				c-0.4-3.3-0.7-6.6,0.5-9.8c0.3-0.8-0.3-1.7-1-1.8c-0.9-0.2-1.5,0.3-1.9,1c-1.3,3.4-1,7-0.6,10.6c0.9-0.3,1.9-0.5,2.8-0.8
				c-0.5-0.8-0.9-1.8-1-2.8c-0.1-1.2,0.1-2.4-0.2-3.6c-0.2-0.7-1.1-1.3-1.9-1c-1.6,0.7-2.3,2-2.5,3.7c-0.1,0.8,0,1.5-0.1,2.3
				c-0.1,0.8-0.2,1.5-0.3,2.3c0.9-0.1,1.8-0.2,2.7-0.4C15.9,62.3,15.3,62.8,15.7,63.4c0.6,1.1,2.6,1,2.8-0.3c0,0.1-0.1,0.1-0.1,0.2
				c-0.2,0.2-0.4,0.4-0.5,0.5c-0.3,0.1-0.6,0.1-0.9,0c-0.2-0.2-0.4-0.4-0.5-0.5c0,0,0-0.1,0-0.1c0,0.3,0,0.2,0.1-0.1
				c0.8-0.1,1.6-0.2,2.4-0.3c-0.2-0.3-0.4-0.6-0.5-0.9c-0.4-0.7-1.4-0.9-2-0.5C15.5,61.8,15.4,62.7,15.7,63.4L15.7,63.4z"/>
		</g>
	</g>
	<g>
		<g>
			<path class="st3" d="M22.2,52.8c1.6-3.5,4.7-6,8.4-7.2c4.6-1.4,9.5-0.8,14.1,0.5c0-1,0-1.9,0-2.9c-2.3,0.4-4.6,0.3-6.9,0.8
				c-2.1,0.5-4.1,1.5-5.8,2.7c-1.8,1.2-3.4,2.7-5,4.2c-0.8,0.8-1.6,1.6-2.4,2.5c-0.4,0.4-0.9,0.9-1.3,1.3c-0.2,0.2-1.4,1-0.7,1
				c0.4,0.3,0.9,0.5,1.3,0.7c-0.1-0.2,0.2-1.4,0.3-1.7c0.2-0.7,0.4-1.4,0.7-2c0.6-1.3,1.5-2.4,2.5-3.4c1.8-1.8,4.7-4.2,7.5-3.6
				c-0.1-0.9-0.2-1.8-0.4-2.7c-2.8,1.6-5.6,3.2-7.9,5.5c-2.5,2.4-3.7,5.5-4.8,8.7c1,0.3,1.9,0.5,2.9,0.8c0.3-1.6,1-4.6-0.4-5.9
				c-1.7-1.5-3.5,0.2-4,1.8c-0.6,1.9-0.7,4-0.1,6c0.5,1.9,1.9,3.5,2.4,5.4c0.6-0.6,1.2-1.2,1.9-1.8c-1.6-0.6-4.8-1.4-5.7,0.7
				c-1,2.3,2.3,3.3,3.9,3.4c1.8,0.1,1.9-2.4,0.4-2.9c-1.1-0.4-2.4-0.6-3.4-1.2c0.2,0.3,0.5,0.6,0.7,0.9c-1.2,0.5-1.5,0.9-0.9,1.3
				c0.2,0.2,0.4,0.3,0.6,0.5c0.4,0.3,0.8,0.5,1.2,0.7c0.9,0.4,1.9,0.6,2.9,0.6c1,0,1.7-1,1.5-1.9c-0.8-2.4-2.4-4.2-4.1-5.9
				c-1.3-1.3-3,0.3-2.4,1.8c1.6,3.4,4.1,6.3,7.2,8.4c1.5,1,2.9-1.2,1.8-2.4c-1.2-1.3-2.6-2.2-4.3-2.7c-1-0.3-2.2,0.8-1.9,1.8
				c1,3,4.9,2.1,5.6-0.7c0.4-1.5-0.1-3.1-0.7-4.5c-0.3-0.7-0.7-1.4-1-2c-0.2-0.4-0.4-0.7-0.6-1.1c-0.1-0.2-0.2-0.4-0.3-0.5
				c-0.1-0.5-0.2-0.5-0.4-0.1c-0.7-0.2-1.4-0.4-2-0.5c1.1,2.1,1.5,4.5,2.4,6.7c0.4,1.1,0.9,2.1,1.5,3.1c0.3,0.4,0.6,0.9,1.1,1.3
				c0.5,0.4,1,0.5,1.5,0.8c-0.2-0.3-0.5-0.6-0.7-0.9c0,0.1,0.1,0.2,0.1,0.3c0-0.4,0.1-0.8,0.1-1.2c0,0.1-0.1,0.1-0.1,0.2
				c0.3-0.2,0.6-0.5,0.9-0.7c-0.1,0-0.1,0-0.2,0.1c0.5,0.1,1,0.3,1.5,0.4c0,0-0.1-0.1-0.1-0.1c-0.2,0.8-0.4,1.7-0.7,2.5
				c1.6-0.4,4-1.8,3.9-3.7c0-0.8-0.5-1.5-1.2-1.8c-1-0.5-1.8,0-2.5,0.7c0.4-0.2,0.7-0.3,1.1-0.4c0.3,0-0.3-0.6-0.5-0.8
				c-0.3-0.4-0.6-0.8-0.9-1.2c-0.6-0.8-1.2-1.5-1.8-2.3c-0.5-0.6-3.1-3.1-1.7-3.9c-0.4,0-0.8,0.1-1.2,0.2c-0.5-0.1,0,0.7,0.1,1
				c0.2,0.5,0.4,1,0.6,1.4c0.4,0.9,0.9,1.9,1.4,2.8c1.1,1.8,2.4,3.3,4,4.5c1.1,0.8,2.6-0.5,2.2-1.7c-0.6-2-2.1-3.4-2.9-5.4
				c-0.8-2-0.8-4.1-0.1-6.1c0.6-1.9-2.2-2.5-2.9-0.8c-1.6,4,0.9,7.9,3.7,10.6c0.9,0.9,2.6,0.3,2.6-1.1c-0.1-2.3-0.8-4.6-0.9-6.9
				c-0.1-2.2,0.6-4.2,1.8-5.9c1.1-1.6-1.5-3-2.6-1.5c-1.6,2.3-3,4.8-2.6,7.6c0.4,2.9,1.8,5.8,3.1,8.4c0.4,0.7,1.4,0.9,2,0.5
				c2.7-1.6,1.7-5.8,1.7-8.4c0-2.7,0.3-6,2.8-7.6c-0.6-0.8-1.2-1.6-1.8-2.4c-2.2,2.3-4.8,4.9-5.5,8.1c-0.5,2.1-0.1,6.8,2.9,6.8
				c1.5,0,2-1.3,2.1-2.5c0.2-1.5,0.2-3,0.5-4.5c0.3-1.3,0.8-2.7,1.8-3.6c1.2-1,2.7-1.3,4.1-1.6c-0.4-0.9-0.8-1.8-1.2-2.7
				c-3.1,1.9-6.3,4.1-8,7.5c0.9,0.4,1.8,0.8,2.7,1.2c0.8-2.3,2.3-4.2,4.4-5.3c1.1-0.6,2.4-1,3.6-1.2c1-0.1,3-0.4,3.7,0.4
				c0.1-0.8,0.2-1.6,0.3-2.4c-1.4,0.7-3.1,0.6-4.6,0.9c-1.3,0.3-2.6,0.7-3.8,1.4c-1.2,0.7-2.3,1.6-3.1,2.7c-0.8,1.1-0.7,2.6,0.7,3.1
				c1.3,0.4,3-0.8,4.2-1.3c1.5-0.7,3-1.4,4.7-1.7c0.3,0,2.7-0.3,2.7-0.1c-0.2-0.1-0.3-0.2-0.5-0.2c0.1,0.2,0.2,0.3,0.2,0.5
				c0.1,0.3,0.2,0.6,0.4,0.9c0.6,1.4,1.3,2.8,2.4,3.8c0.9,0.8,2.1,0.4,2.5-0.7c1-2.8-0.3-6.1-2.9-7.5c-1.2-0.7-3,0.8-2,2
				c1.8,2.5,3.2,5,4.1,8c0.2,0.7,0.4,1.3,0.6,2c0.2,0.5,0.7,1.7,0.6,2.2c0.1-0.6-0.2-0.1-0.5,0.1c-0.3,0.3-0.6,0.5-0.9,0.8
				c-0.6,0.5-1.2,1-1.7,1.5c-1.3,1.2,0.4,3.1,1.8,2.4c0.7-0.3,1.2-0.8,1.8-1.3c0.5-0.5,1-1.1,1.8-1.1c-0.3-0.9-0.5-1.9-0.8-2.8
				c-3.8,2-6.9,5.4-11,6.7c-1.1,0.3-2.2,0.4-3.3,0.6c-1.3,0.1-2.5,0.5-3.7,0.7c-2.3,0.4-4.5-0.2-6.3-1.6c-0.1,0.9-0.2,1.8-0.4,2.7
				c2.3-0.4,4.5-1.1,6.7-2.1c-0.6-0.8-1.2-1.6-1.8-2.4c-1.6,1.5-3.9,1.8-6,2c0.4,0.8,0.7,1.7,1.1,2.6c1.8-1.5,3.8-3.1,6.1-3.7
				c0.5-0.1,0.5,0.1,0.5-0.6c-0.1-0.7-0.1-0.5-0.3-0.1c-0.3,0.4-0.5,1.1-0.3,1.6c0.1,0.4,0.4,0.9,0.8,1.1c0.6,0.4,1.1,0.2,1.7,0.3
				c-0.1-0.9-0.2-1.8-0.4-2.7c-1.1,0.6-2.2,1.1-3.3,1.5c0.4,0.9,0.8,1.8,1.2,2.7c3.6-1.9,7.2-3.6,11-5c-0.5-0.8-1-1.7-1.5-2.5
				c-1.1,1.1-2.2,2.2-3.3,3.3c-1.3,1.3,0.3,3,1.8,2.4c1-0.4,2-0.9,3-1.3c1.5-0.7,0.4-3.4-1.2-2.7c-1.9,0.8-3.8,1.7-5.7,2.6
				c-1.7,0.9-0.2,3.5,1.5,2.6c2.9-1.5,5.6-3.1,8.3-4.9c2.3-1.5,5.5-3.3,4.2-6.5c-0.5-1.3-1.7-2.2-2.6-3.3c-0.9-1-1.6-2.1-2.8-2.9
				c-2.5-1.8-5.5-1-8.4-1.3c0.3,0.9,0.5,1.9,0.8,2.8c1.3-1,2.9-1.5,4.5-1.2c1.6,0.3,2.8,1.1,4.3-0.2c1-0.9,0.2-2.5-1.1-2.6
				c-3.2,0-6.6,0.5-9.7,1.3c-2.6,0.7-4.9,2.2-6.2,4.7c-1.3,2.5-1.7,5.5-1.1,8.2c0.3,1.2,1,2.3,2.3,2.6c1.5,0.4,2.8-0.3,3.9-1.1
				c1-0.7,1-2.4-0.4-2.7c-0.9-0.2-1.6-0.1-2.5-0.1c-0.7,0-1-0.2-0.8-0.9c0.6-1.7-1.8-2.4-2.7-1.2c-1.1,1.4-1.6,3.5-0.4,5
				c1.1,1.5,3.2,1.6,4.8,0.9c1.9-0.8,3.7-2,5.6-3c2.1-1,4.2-2,6.3-2.8c-0.5-0.8-1-1.7-1.5-2.5c-1.9,1.9-4.6,2.6-6.5,4.5
				c-1.1,1.1,0,2.8,1.5,2.5c2.3-0.4,4.5-1.2,6.6-2.4c1.7-1,4.1-2.5,3.7-4.8c-0.4-2.1-2.8-3.3-4.7-3.9c-2.2-0.7-4.6-1-6.9-0.6
				c-3.9,0.6-7.8,4.5-6.2,8.7c0.8,2.1,2.8,3.1,4.9,2.1c1.1-0.5,2-1.2,2.9-1.9c1.1-0.8,2.2-1.6,3.3-2.4c0.8-0.6,2.1-1.2,2.6-2.2
				c0.5-0.9,0.1-2-0.8-2.5c-1.9-1-5-0.4-6.8,0.4c-2,0.8-3.5,2.5-3.1,4.8c0.3,1.8,1.3,4.2,3.1,4.9c3.8,1.4,8.2-5.8,4.2-8
				c-2-1-4.5,0.4-6.1,1.6c-1.6,1.2-3.3,2.9-2.3,5.1c0.8,1.8,3.5,3.9,5.3,2.2c1.9-1.7-0.3-4.7-1.4-6.2c-0.2-0.2-0.8-0.8-0.8-1.1
				c0-0.4,0.7-0.6,1-0.8c1.2-0.5,2.6-1,3.9-1.2c0.8-0.1,1,0.1,1.4,0.7c0.3,0.4,0.6,0.7,1,1c1,0.8,2.3,1,3.6,0.6
				c1-0.3,1.3-1.3,0.9-2.2c-1-2.2-5-1.9-6.9-1.7c-2.6,0.3-5.2,1.2-7.3,2.8c-1.6,1.1-4.8,3.8-2.7,5.9c0.9,1,2.4,0.8,3.6,0.6
				c1.5-0.2,3-0.7,4.3-1.5c-0.7-0.7-1.4-1.4-2-2c-0.1,0.2-0.3,0.5-0.4,0.7c-0.9,1.7,1.7,3.2,2.6,1.5c0.1-0.2,0.3-0.5,0.4-0.7
				c0.7-1.3-0.7-2.8-2-2c-0.8,0.4-1.5,0.7-2.4,0.9c-0.4,0.1-0.8,0.2-1.3,0.2c-0.3,0-0.6,0-0.8,0c0.2,0.2,0.3,0.5,0.4,0.7
				c0.2,0,1.3-1.3,1.5-1.5c0.6-0.5,1.3-0.9,2.1-1.3c1.3-0.7,2.8-1.1,4.3-1.3c0.7-0.1,3.8-0.3,4.1,0.2c0.3-0.7,0.6-1.5,0.9-2.2
				c-1,0.3-1.3-0.6-1.9-1.2c-0.6-0.7-1.3-1.1-2.2-1.2c-2-0.3-4.3,0.6-6,1.4c-1.5,0.7-3,1.8-2.9,3.6c0.1,1.8,1.8,3.1,2.6,4.6
				c0.1,0.2,0.2,0.4,0.3,0.7c0,0.4,0.2,0.4,0.5-0.1c0.6-0.6-0.1-0.5-0.5-1.1c-0.5-0.7,0.5-1.3,1-1.7c0.7-0.5,1.6-1.2,2.5-1.4
				c0.6-0.1,0.5,0.1,0.3,0.7c-0.2,0.3-0.4,0.7-0.6,1c-0.6,0.8-0.9,0.9-1.4,0.1c-0.4-0.6-1-1.8-0.7-2.6c0.3-0.8,1.6-1.1,2.4-1.3
				c0.6-0.2,1.2-0.2,1.8-0.2c0.3,0,0.6,0,0.9,0c0.6,0.2,0.6,0.1,0.1-0.3c0-0.4-0.1-0.8-0.2-1.2c0,0-1.5,1-1.8,1.2
				c-0.7,0.5-1.4,1-2.1,1.5c-0.6,0.5-1.3,0.9-1.9,1.4c-0.4,0.3-1.3,1.2-1.9,1c-1.1-0.3-0.4-2.5-0.1-3c0.7-1.2,2-1.9,3.4-2.1
				c1.5-0.3,3.1-0.1,4.5,0.2c0.7,0.2,1.5,0.3,2.1,0.6c0.3,0.2,1.5,0.7,1.6,1.2c0,0.9-2.9,2.1-3.6,2.4c-1.4,0.7-3,1.1-4.5,1.4
				c0.5,0.8,1,1.7,1.5,2.5c1.8-1.9,4.5-2.6,6.5-4.5c1-1,0-3.1-1.5-2.5c-2.9,1.1-5.7,2.4-8.5,3.8c-1.3,0.7-2.5,1.6-3.8,2.1
				c-0.4,0.1-1,0.4-1.3-0.1c-0.2-0.5,0.4-1.3,0.7-1.6c-0.9-0.4-1.8-0.8-2.7-1.2c-0.5,1.3-0.1,2.9,1,3.8c0.5,0.5,1.2,0.8,1.9,0.8
				c0.8,0.1,1.7-0.2,2.5,0c-0.1-0.9-0.2-1.8-0.4-2.7c-0.6,0.4-1.5,1.3-1.8,0.3c-0.2-0.9-0.2-2-0.1-3c0.2-1.8,0.9-3.5,2.2-4.7
				c1.4-1.3,3.3-1.6,5.1-2c2.3-0.4,4.5-0.8,6.8-0.8c-0.3-0.8-0.7-1.7-1.1-2.6c0.4-0.3-0.1-0.2-0.4-0.4c-0.4-0.1-0.7-0.2-1.1-0.3
				c-0.8-0.1-1.5-0.2-2.3-0.1c-1.6,0.1-3,0.7-4.3,1.6c-1.2,0.9-0.8,2.7,0.8,2.8c2,0.2,4.6-0.5,6.4,0.5c0.9,0.5,1.5,1.4,2.1,2.2
				c0.7,0.8,1.7,1.6,2.3,2.5c0.6,1.1-0.7,1.7-1.5,2.2c-1,0.7-2,1.4-3.1,2c-2.1,1.3-4.3,2.6-6.6,3.7c0.5,0.9,1,1.7,1.5,2.6
				c1.6-0.9,3.3-1.7,5-2.3c-0.4-0.9-0.8-1.8-1.2-2.7c-1,0.4-2,0.9-3,1.3c0.6,0.8,1.2,1.6,1.8,2.4c1.1-1.1,2.2-2.2,3.3-3.3
				c1-1,0-3.1-1.5-2.5c-4,1.6-7.9,3.3-11.7,5.3c-1.5,0.8-0.5,3.3,1.2,2.7c1.4-0.5,2.7-1.1,4-1.8c1-0.6,1-2.5-0.4-2.7
				c-0.3-0.1-0.5-0.1-0.8-0.1c-0.7,0-0.6,0.1,0.2,0.4c0,0.4,0.1,0.8,0.2,1.2c-0.1,0.5,0.2-0.1,0.3-0.3c0.1-0.2,0.2-0.6,0.3-0.8
				c0.1-0.7-0.1-1.3-0.5-1.8c-0.9-1.1-2.3-1.1-3.5-0.8c-2.8,0.7-5.2,2.6-7.4,4.4c-1,0.8-0.2,2.7,1.1,2.6c3-0.3,5.9-0.8,8.1-2.9
				c1.3-1.2-0.4-3-1.8-2.4c-1.9,0.8-3.9,1.4-6,1.8c-1.4,0.2-1.3,2.1-0.4,2.7c1.9,1.4,4.4,2.2,6.8,2.1c1.4-0.1,2.7-0.5,4-0.7
				c1.4-0.2,2.7-0.2,4.1-0.6c4.8-1.1,8.3-4.9,12.5-7.2c1.4-0.8,0.6-2.7-0.8-2.8c-2.4-0.2-3.3,1.9-5.1,2.8c0.6,0.8,1.2,1.6,1.8,2.4
				c0.7-0.6,1.4-1.2,2.1-1.8c0.6-0.5,1.3-1,1.7-1.7c0.7-1.4-0.4-3.5-0.8-4.8c-1.1-3.6-2.5-6.8-4.8-9.9c-0.7,0.7-1.4,1.4-2,2
				c1.5,0.9,2.1,2.5,1.5,4.2c0.8-0.2,1.7-0.4,2.5-0.7c-1.2-1-1.7-2.5-2.3-3.9c-0.7-1.7-1.7-2-3.5-2c-1.8,0-3.5,0.4-5.2,1.1
				c-0.8,0.3-1.6,0.7-2.4,1.1c-0.6,0.3-1.8,1.1-2.5,1.1c0.3,0.2,0.7,0.3,1.1,0.4c-0.1,0-0.1-0.1-0.2-0.2c0.2,0.3,0.3,0.7,0.4,1.1
				c-0.2,0.4-0.1,0.4,0.1,0.1c0.2-0.2,0.3-0.3,0.5-0.5c0.3-0.3,0.7-0.6,1.1-0.8c0.8-0.5,1.7-0.8,2.7-1.1c2.1-0.6,4.2-0.5,6.2-1.4
				c0.9-0.4,0.9-1.7,0.3-2.4c-1.1-1.3-3.1-1.4-4.7-1.4c-1.9,0-3.8,0.5-5.5,1.3c-3.1,1.5-5.4,4.3-6.5,7.5c-0.6,1.6,2,2.7,2.7,1.2
				c1.4-3,4.2-4.7,6.9-6.4c1.5-0.9,0.5-3-1.2-2.7c-2.3,0.4-4.6,1.2-6.1,3c-1.6,1.9-2,4.2-2.3,6.6c-0.1,0.6-0.1,1.2-0.2,1.8
				c0,0.2-0.1,0.5-0.1,0.8c0,0.2,0,0.3,0,0.5c0.4-0.2,0.9-0.3,1.3-0.4c0-0.1-0.3-0.5-0.3-0.6c-0.1-0.3-0.2-0.6-0.2-0.9
				c-0.1-0.5,0-1.1,0.1-1.6c0.6-2.7,2.9-4.9,4.8-6.8c1.2-1.2-0.3-3.3-1.8-2.4c-2.3,1.5-3.6,4-4.1,6.7C33,53.7,33,55.4,33.1,57
				c0,0.9,0,1.7,0,2.6c0,0.4,0.1,1.6-0.3,1.8c0.7,0.2,1.4,0.4,2,0.5c-1.1-2.1-2.3-4.5-2.7-6.9c-0.4-2.4,0.8-4.3,2.2-6.2
				c-0.9-0.5-1.7-1-2.6-1.5c-1.3,2-2.1,4.2-2.2,6.6c-0.1,2.6,0.8,5.2,0.9,7.8c0.9-0.3,1.7-0.7,2.6-1.1c-2.1-2-4.1-4.7-2.9-7.7
				c-1-0.3-1.9-0.5-2.9-0.8c-0.7,2.2-0.8,4.6-0.2,6.9c0.3,1,0.8,2.1,1.3,3c0.6,1,1.5,2,1.8,3.2c0.7-0.6,1.5-1.1,2.2-1.7
				c-2.2-1.6-3.5-4.1-4.5-6.5c-0.5-1.1-0.7-2.8-1.9-3.3c-1.3-0.6-2.5,0.4-3.1,1.6c-1.4,2.8,1.1,5.2,2.7,7.2c1,1.3,2,2.8,3.1,4
				c0.4,0.5,1,0.9,1.6,0.9c0.4,0,0.8-0.1,1.1-0.2c0.1-0.1,0.2-0.2,0.3-0.2c0.3-0.3,0.3-0.3,0-0.1c-0.4-0.1-0.8-0.1-1.2-0.2
				c0-0.9-0.1-1.1-0.4-0.8c-0.1,0.2-0.3,0.3-0.5,0.4c-0.4,0.2-0.7,0.3-1.1,0.4c-1,0.3-1.5,1.8-0.7,2.5c1.2,0.9,3.2,0.4,3-1.4
				c-0.1-0.9-0.7-1.3-1.4-1.8c-0.7-0.4-1-0.8-1.4-1.5c-1.5-2.8-1.9-6.1-3.4-9c-0.4-0.7-1.4-1-2-0.5c-2.2,1.4-1,3.7,0.1,5.5
				c0.6,1,1.1,1.9,1.5,3c0.1,0.4,0.3,0.9,0.2,1.4c0,0.1-0.1,0.4-0.1,0.4c0,0.1,0,0.1,0,0.1c0-0.2,0.1-0.1,0.3,0.3
				c-0.6,0.6-1.2,1.2-1.9,1.8c1.2,0.4,2.1,1,3,1.9c0.6-0.8,1.2-1.6,1.8-2.4c-2.7-1.9-4.8-4.4-6.1-7.4c-0.8,0.6-1.6,1.2-2.4,1.8
				c1.3,1.3,2.7,2.7,3.3,4.6c0.5-0.6,1-1.3,1.5-1.9c-1.4,0-2.2-0.6-3.3-1.4c-1-0.6-2.2-0.7-3,0.2c-0.8,0.9-0.7,2.2,0.3,2.9
				c1.1,0.8,2.8,1.1,4.1,1.5c0.1-1,0.3-2,0.4-2.9c-0.3,0-0.6-0.1-0.9-0.2c-0.1,0-0.2-0.1-0.4-0.2c-0.2-0.1-0.2-0.1,0,0
				c0,0.4,0.1,0.8,0.1,1.2c-0.7,0.4-0.8,0.6-0.1,0.5c0.2,0,0.5,0,0.7,0.1c0.5,0.1,1,0.3,1.5,0.5c1.1,0.4,2.1-0.8,1.9-1.8
				c-0.5-1.8-1.6-3.1-2.2-4.8c-0.3-0.9-0.5-1.8-0.5-2.7c0-0.4,0-0.8,0.1-1.3c0.1-0.3,0.1-0.5,0.2-0.8c0.3-0.4,0.2-0.5-0.3-0.3
				c-0.3-0.2-0.6-0.5-0.9-0.7c0.5,0.6,0,2.5-0.2,3.3c-0.4,1.9,2.3,2.6,2.9,0.8c1-2.9,2.1-5.5,4.3-7.6c2-2,4.5-3.4,7-4.8
				c1.1-0.6,0.9-2.5-0.4-2.7c-4.3-0.9-8.6,2.2-11.2,5.3c-1.4,1.7-2.6,3.6-3.1,5.8c-0.4,1.5-1,4.6,1.3,4.7c1.1,0.1,1.8-0.9,2.5-1.5
				c0.8-0.8,1.5-1.5,2.3-2.3c1.7-1.7,3.4-3.5,5.3-4.9c1.7-1.3,3.5-2.4,5.6-2.9c2.4-0.7,4.9-0.5,7.3-1c1.5-0.3,1.3-2.5,0-2.9
				c-5.2-1.4-10.8-2.1-16-0.4c-4.2,1.4-8,4.3-9.8,8.4C18.8,53.1,21.4,54.6,22.2,52.8L22.2,52.8z"/>
		</g>
	</g>
</g>
<g id="Calque_1_1_">
	<path d="M36.8,0.5c-19.9,0-36,16.1-36,36C0.8,47.7,6,57.7,14,64.3c0,0,0,0,0,0.1c1.3,1.1,2.7,2,4.1,2.9l0.1,0.1
		c0.4,0.2,0.8,0.5,1.2,0.7c0.2,0.1,0.4,0.2,0.5,0.3c0.3,0.1,0.5,0.3,0.8,0.4s0.5,0.3,0.8,0.4c0.2,0.1,0.4,0.2,0.5,0.2
		c0.3,0.2,0.7,0.3,1,0.4c0.1,0,0.2,0.1,0.3,0.1c2.2,0.9,4.5,1.6,7,2c0.1,0,0.2,0,0.4,0.1c0.4,0.1,0.7,0.1,1.1,0.2
		c0.2,0,0.4,0.1,0.6,0.1c0.3,0,0.6,0.1,0.9,0.1c0.3,0,0.6,0,0.9,0.1c0.2,0,0.5,0,0.7,0c0.6,0,1.1,0,1.7,0s1.1,0,1.7,0
		c0.2,0,0.5,0,0.7,0c0.3,0,0.6,0,0.9-0.1c0.3,0,0.6-0.1,0.9-0.1c0.2,0,0.4-0.1,0.6-0.1c0.4-0.1,0.7-0.1,1.1-0.2c0.1,0,0.2,0,0.4-0.1
		c2.4-0.4,4.7-1.1,7-2c0.1,0,0.2-0.1,0.3-0.1c0.3-0.1,0.7-0.3,1-0.4c0.2-0.1,0.4-0.2,0.5-0.2c0.3-0.1,0.5-0.3,0.8-0.4
		s0.6-0.3,0.8-0.4s0.4-0.2,0.5-0.3c0.4-0.2,0.8-0.5,1.2-0.7l0.1-0.1c1.4-0.9,2.8-1.8,4.1-2.9c0,0,0,0,0.1-0.1
		c8-6.6,13.2-16.6,13.2-27.8C72.8,16.7,56.7,0.5,36.8,0.5z M53.1,66.4c-0.1,0.1-0.3,0.2-0.4,0.2c-0.3,0.1-0.6,0.3-0.8,0.4
		c-0.3,0.1-0.5,0.3-0.8,0.4c-0.2,0.1-0.3,0.1-0.5,0.2c-0.3,0.1-0.7,0.3-1,0.4c-0.1,0-0.2,0.1-0.3,0.1c-0.4,0.2-0.8,0.3-1.2,0.4
		c0,0,0,0-0.1,0c-1.7,0.6-3.5,1-5.2,1.4c-0.1,0-0.2,0-0.3,0.1c-0.3,0.1-0.7,0.1-1,0.2c-0.2,0-0.4,0.1-0.6,0.1
		c-0.3,0-0.6,0.1-0.9,0.1c-0.3,0-0.6,0-0.9,0.1c-0.2,0-0.4,0-0.7,0c-0.5,0-1.1,0-1.6,0s-1.1,0-1.6,0c-0.2,0-0.4,0-0.7,0
		s-0.6,0-0.9-0.1c-0.3,0-0.6-0.1-0.9-0.1c-0.2,0-0.4,0-0.6-0.1c-0.3,0-0.7-0.1-1-0.2c-0.1,0-0.2,0-0.3-0.1c-1.8-0.3-3.5-0.8-5.3-1.4
		l0,0c-0.4-0.1-0.8-0.3-1.2-0.4c-0.1,0-0.2-0.1-0.3-0.1c-0.3-0.1-0.7-0.3-1-0.4c-0.2-0.1-0.3-0.1-0.5-0.2c-0.3-0.1-0.5-0.3-0.8-0.4
		s-0.6-0.3-0.8-0.4s-0.3-0.2-0.5-0.2c-1.7-0.9-3.3-2-4.9-3.2c0.2-11.5,9.6-20.8,21.1-20.8s20.9,9.3,21.1,20.8
		C56.4,64.3,54.8,65.4,53.1,66.4z M59.9,61.5c-0.8-9.9-7.9-18-17.2-20.4c5-2.3,8.6-7.3,8.6-13.2c0-8-6.5-14.4-14.4-14.4
		S22.5,20,22.5,27.9c0,5.9,3.5,10.9,8.6,13.2c-9.3,2.4-16.4,10.6-17.2,20.4c-6.7-6.2-11-15.1-11-25c0-18.7,15.3-34,34-34
		s34,15.3,34,34C70.8,46.4,66.6,55.3,59.9,61.5z M36.8,40.3c-6.9,0-12.4-5.6-12.4-12.4c0-6.9,5.6-12.4,12.4-12.4s12.4,5.6,12.4,12.4
		C49.3,34.7,43.7,40.3,36.8,40.3z"/>
</g>
<path class="st2" d="M41.5,16.4c5.8,2.3,7.3,8.1,7.4,8.5c0.2,0.6,1.4,6.1-2.4,10.8c-4.1,5-10.3,4.5-10.8,4.5
	c-5.5-0.5-8.5-4.5-8.9-5.1c-0.4-0.6-3-4.3-2.2-9.2c0.7-4.6,4.2-8.5,8.5-9.9C37.1,14.8,40.6,16.1,41.5,16.4z"/>
</svg>
