<svg xmlns="http://www.w3.org/2000/svg" width="33" height="33.875" viewBox="0 0 33 33.875">
  <g id="Group_26" data-name="Group 26" transform="translate(-589 -332.8)">
    <path id="Path_418" data-name="Path 418" d="M617.666,337.651h-2.028V334.4a1.193,1.193,0,0,0-2.386-.048v3.3l-6.361-.4V334a1.193,1.193,0,0,0-2.385-.048v3.3l-6.759.4V334.4a1.193,1.193,0,0,0-2.386-.048v3.3h-2.028A4.344,4.344,0,0,0,589,341.985v20.357a4.344,4.344,0,0,0,4.334,4.334h24.333A4.349,4.349,0,0,0,622,362.341V341.985A4.346,4.346,0,0,0,617.666,337.651Zm1.948,24.611a2.036,2.036,0,0,1-2.028,2.028H593.413a2.031,2.031,0,0,1-2.028-2.028V347.988h28.229Zm0-16.659H591.385v-3.936a2.036,2.036,0,0,1,2.028-2.028h1.948v1.543a1.193,1.193,0,0,0,2.386.048v-1.59h6.759v1.543a1.193,1.193,0,0,0,2.385.048v-1.59h6.361v1.543a1.193,1.193,0,0,0,2.386.048v-1.59h1.948a2.034,2.034,0,0,1,2.028,2.028Z" fill="#747474"/>
  </g>
</svg>
