<?xml version="1.0" encoding="utf-8"?>
<!-- Generator: Adobe Illustrator 24.0.2, SVG Export Plug-In . SVG Version: 6.00 Build 0)  -->
<svg version="1.1" id="Calque_1" xmlns="http://www.w3.org/2000/svg" xmlns:xlink="http://www.w3.org/1999/xlink" x="0px" y="0px"
	 viewBox="0 0 73 73" style="enable-background:new 0 0 73 73;" xml:space="preserve">
<style type="text/css">
	.st0{fill:#FFFFFF;}
	.st1{fill:#FFC894;}
	.st2{fill:#1BAD8F;}
	.st3{fill:#1BA38F;}
	.st4{fill:#F2F2F2;}
</style>
<g id="Calque_1_1_">
	<path d="M36.8,0.5c-19.9,0-36,16.1-36,36C0.8,47.7,6,57.7,14,64.3c0,0,0,0,0,0.1c1.3,1.1,2.7,2,4.1,2.9l0.1,0.1
		c0.4,0.2,0.8,0.5,1.2,0.7c0.2,0.1,0.4,0.2,0.5,0.3c0.3,0.1,0.5,0.3,0.8,0.4s0.5,0.3,0.8,0.4c0.2,0.1,0.4,0.2,0.5,0.2
		c0.3,0.2,0.7,0.3,1,0.4c0.1,0,0.2,0.1,0.3,0.1c2.2,0.9,4.5,1.6,7,2c0.1,0,0.2,0,0.4,0.1c0.4,0.1,0.7,0.1,1.1,0.2
		c0.2,0,0.4,0.1,0.6,0.1c0.3,0,0.6,0.1,0.9,0.1c0.3,0,0.6,0,0.9,0.1c0.2,0,0.5,0,0.7,0c0.6,0,1.1,0,1.7,0s1.1,0,1.7,0
		c0.2,0,0.5,0,0.7,0c0.3,0,0.6,0,0.9-0.1c0.3,0,0.6-0.1,0.9-0.1c0.2,0,0.4-0.1,0.6-0.1c0.4-0.1,0.7-0.1,1.1-0.2c0.1,0,0.2,0,0.4-0.1
		c2.4-0.4,4.7-1.1,7-2c0.1,0,0.2-0.1,0.3-0.1c0.3-0.1,0.7-0.3,1-0.4c0.2-0.1,0.4-0.2,0.5-0.2c0.3-0.1,0.5-0.3,0.8-0.4
		s0.6-0.3,0.8-0.4s0.4-0.2,0.5-0.3c0.4-0.2,0.8-0.5,1.2-0.7l0.1-0.1c1.4-0.9,2.8-1.8,4.1-2.9c0,0,0,0,0.1-0.1
		c8-6.6,13.2-16.6,13.2-27.8C72.8,16.7,56.7,0.5,36.8,0.5z M53.1,66.4c-0.1,0.1-0.3,0.2-0.4,0.2c-0.3,0.1-0.6,0.3-0.8,0.4
		c-0.3,0.1-0.5,0.3-0.8,0.4c-0.2,0.1-0.3,0.1-0.5,0.2c-0.3,0.1-0.7,0.3-1,0.4c-0.1,0-0.2,0.1-0.3,0.1c-0.4,0.2-0.8,0.3-1.2,0.4
		c0,0,0,0-0.1,0c-1.7,0.6-3.5,1-5.2,1.4c-0.1,0-0.2,0-0.3,0.1c-0.3,0.1-0.7,0.1-1,0.2c-0.2,0-0.4,0.1-0.6,0.1
		c-0.3,0-0.6,0.1-0.9,0.1c-0.3,0-0.6,0-0.9,0.1c-0.2,0-0.4,0-0.7,0c-0.5,0-1.1,0-1.6,0s-1.1,0-1.6,0c-0.2,0-0.4,0-0.7,0
		s-0.6,0-0.9-0.1c-0.3,0-0.6-0.1-0.9-0.1c-0.2,0-0.4,0-0.6-0.1c-0.3,0-0.7-0.1-1-0.2c-0.1,0-0.2,0-0.3-0.1c-1.8-0.3-3.5-0.8-5.3-1.4
		l0,0c-0.4-0.1-0.8-0.3-1.2-0.4c-0.1,0-0.2-0.1-0.3-0.1c-0.3-0.1-0.7-0.3-1-0.4c-0.2-0.1-0.3-0.1-0.5-0.2c-0.3-0.1-0.5-0.3-0.8-0.4
		s-0.6-0.3-0.8-0.4s-0.3-0.2-0.5-0.2c-1.7-0.9-3.3-2-4.9-3.2c0.2-11.5,9.6-20.8,21.1-20.8s20.9,9.3,21.1,20.8
		C56.4,64.3,54.8,65.4,53.1,66.4z M59.9,61.5c-0.8-9.9-7.9-18-17.2-20.4c5-2.3,8.6-7.3,8.6-13.2c0-8-6.5-14.4-14.4-14.4
		S22.5,20,22.5,27.9c0,5.9,3.5,10.9,8.6,13.2c-9.3,2.4-16.4,10.6-17.2,20.4c-6.7-6.2-11-15.1-11-25c0-18.7,15.3-34,34-34
		s34,15.3,34,34C70.8,46.4,66.6,55.3,59.9,61.5z M36.8,40.3c-6.9,0-12.4-5.6-12.4-12.4c0-6.9,5.6-12.4,12.4-12.4s12.4,5.6,12.4,12.4
		C49.3,34.7,43.7,40.3,36.8,40.3z"/>
</g>
<path id="head" class="st0" d="M41.5,16.4c5.8,2.3,7.3,8.1,7.4,8.5c0.2,0.6,1.4,6.1-2.4,10.8c-4.1,5-10.3,4.5-10.8,4.5
	c-5.5-0.5-8.5-4.5-8.9-5.1s-3-4.3-2.2-9.2c0.7-4.6,4.2-8.5,8.5-9.9C37.1,14.8,40.6,16.1,41.5,16.4z"/>
<path id="background_1_" class="st1" d="M13.9,61.5c0.3-0.1,0.2-1,0.4-2.7c0.2-1.4,0.6-2.4,0.9-3.2c0.1-0.3,0.4-1.2,1-2.3
	c0.3-0.6,0.9-1.7,1.7-2.9c1.2-1.8,2.5-3.1,3.3-3.8c1.3-1.2,2.5-2,3.3-2.5c1.4-0.9,2.7-1.5,3.2-1.7c0.1-0.1,0.6-0.2,1-0.4
	c0.5-0.2,0.7-0.3,0.9-0.3c0.7-0.2,1.1-0.3,1.1-0.3c0.3-0.1,0.5-0.1,0.5-0.2c0,0-0.1-0.1-0.3-0.1c-0.1,0-0.2-0.1-0.4-0.2
	c-0.4-0.2-0.8-0.4-0.9-0.5c-0.4-0.2-0.7-0.4-0.9-0.6c0,0-0.3-0.2-0.6-0.5c-0.7-0.5-1.6-1.5-2-2c-2.5-3-3.1-7-3.1-7
	c-0.3-1.7-0.7-6.6,2.6-11c0.3-0.4,4.4-5.7,11.4-5.6c6.7,0,12.3,5,13.9,10.6c0.9,3.1,0.6,6.6-0.5,9c-0.8,1.8-2.1,3.5-2.1,3.5
	c-0.9,1.2-1.8,2-2,2.2c0,0-1.3,1.1-2.7,1.9c0,0-0.1,0.1-0.3,0.2C43,41,43,41,42.9,41c-0.1,0.1-0.2,0.1-0.2,0.1c0,0,0.1,0,0.1,0
	c0.1,0,0.3,0.1,0.4,0.1c0.2,0,0.6,0.2,0.9,0.3c0.4,0.1,1.1,0.4,1.7,0.7c0.2,0.1,2,0.9,3.6,1.9c4.1,2.6,6.4,6.2,6.4,6.2
	S58,53.6,59,58c0.2,0.7,0.4,1.3,0.5,2c0.2,1,0.2,1.4,0.4,1.5c0.3,0.1,0.6-0.4,1.4-1.4c1-1.3,1-1,1.7-2c2.4-2.9,4-6.1,4-6.1
	c1.4-2.7,2.2-5,2.6-6.7c0.9-3.4,1.8-8.5,0.8-14.5c-0.2-1.2-0.6-3.3-1.5-5.7c-0.6-1.8-1.9-4.8-4.3-8.2c-0.6-0.9-3.3-4.6-7.7-7.9
	c-1.9-1.4-3.6-2.3-4.1-2.6c-0.2-0.1-1.8-0.9-3.6-1.7c-5.5-2.2-11.2-2.3-11.6-2.4c-2.5-0.1-6.5,0.1-11.1,1.6
	C14.5,8,8.6,17.6,7.6,19.3c-2.2,3.7-3.2,7.1-3.7,9.2c-0.6,2.5-1.4,7-0.6,12.6C3.3,41.7,4,46.4,6.2,51c0.9,2,2,3.7,2.2,3.9
	c0.5,0.7,1.2,1.8,2.2,3c0.8,0.9,0.6,0.6,1.8,2C13.4,61.2,13.6,61.6,13.9,61.5z"/>
<path id="body" class="st2" d="M15.5,63.2c-0.1-0.2,0-0.7,0.1-1.6c0.1-0.5,0.1-1.2,0.3-2.1c0-0.2,0.3-1.6,0.9-3.2
	c1.2-3.2,3.1-5.6,3.4-6c3.5-4.4,8-6.2,9-6.6c1.4-0.5,6.8-2.4,13.2-0.5c1.3,0.4,4.7,1.5,7.9,4.3c2.1,1.8,3.5,3.8,4.3,5.1
	c0,0,1.6,2.6,2.4,5.6c0.2,0.6,0.3,1.1,0.3,1.1c0,0.2,0.1,0.5,0.2,1.1c0.2,0.9,0.2,1,0.2,1.3c0,0.3,0,0.5,0.1,0.8c0,0.6,0,0.7,0,0.8
	c-0.1,0.3-0.3,0.5-0.7,0.7c-0.7,0.5-1.1,0.7-1.9,1.1c0,0,0,0-1,0.6c-0.7,0.5-0.9,0.6-1.2,0.7c0,0-0.5,0.3-1,0.5
	c-1.5,0.8-4.6,1.7-4.6,1.7c-2.6,0.9-4,1.3-5.7,1.5c-1.4,0.2-2.6,0.2-2.6,0.2c-0.6,0-0.7,0-2.3,0c-1.7,0-1.7,0-2.3,0
	c-1,0-1.8-0.1-2.6-0.3c-1-0.1-2.2-0.3-3.8-0.8c-0.7-0.2-1.4-0.4-1.6-0.5c-0.7-0.2-1.3-0.5-1.7-0.6c-0.3-0.1-0.7-0.3-1.3-0.5
	c-0.5-0.2-0.8-0.3-1.2-0.5c-0.4-0.2-0.5-0.3-1.1-0.5c-0.4-0.2-0.6-0.3-0.8-0.4c-0.1-0.1-0.7-0.3-1.7-0.9
	C16.7,64.4,15.7,63.8,15.5,63.2z"/>
<path id="shadow-body" class="st3" d="M42.4,43.2c0,0,0.1,0,0.3,0c0,0,0.5,0.1,0.9,0.3c2.3,0.9,3.9,1.9,3.9,1.9c1.1,0.7,3,2,5,4.3
	c1.5,1.7,2.4,3.3,2.7,3.9c0.4,0.7,1.1,2.1,1.6,3.9c0.6,1.8,0.5,2.4,0.8,3.8c0,0,0.1,0.5,0.1,1.2c0,0.3,0,0.4-0.1,0.6
	c0,0.1-0.1,0.3-0.6,0.7c-0.1,0.1-0.2,0.2-0.7,0.5c-0.6,0.4-0.7,0.4-1.1,0.6c-0.3,0.2-0.4,0.3-0.7,0.4c-0.2,0.1-0.3,0.2-0.4,0.3
	c0,0-0.1,0.1-0.2,0.1c-0.1,0-0.1,0-0.1,0c-0.1,0-0.1-0.1-0.2-0.3c0-0.1-0.1-0.3-0.2-0.4c-0.3-1-0.8-2-1.1-3c-0.1-0.2-0.4-1-0.9-2.5
	c-0.6-1.6-0.9-2.4-1.1-3c-0.3-0.8-0.6-1.6-1.1-2.6c-0.4-0.9-1.4-3-3.2-5.5c-0.9-1.3-1.9-2.6-1.9-2.6C43.3,44.6,42.2,43.4,42.4,43.2z
	"/>
<path id="shadow-head" class="st4" d="M41,16.3c0,0,0.1,0,0.4,0.1c0.3,0.1,0.5,0.2,0.7,0.3c0.5,0.3,0.4,0.2,0.6,0.3
	c0,0,0.5,0.3,1.1,0.6c1.2,0.8,2.2,1.9,2.2,1.9c0.6,0.6,2,2.1,2.8,4.6c0.2,0.6,0.5,1.8,0.6,3.3c0,0.5,0.1,1.9-0.4,3.7
	c-0.5,2-1.3,3.3-1.5,3.6c0,0-0.6,0.9-1.3,1.8c-0.3,0.4-0.7,0.7-0.7,0.7c0,0-0.2,0.2-0.6,0.5c-0.3,0.3-0.4,0.3-0.5,0.4
	c-0.3,0.2-0.5,0.4-0.6,0.4c-0.3,0.2-0.5,0.3-0.6,0.2c-0.2-0.2,1.3-2,1.6-2.4c1.9-2.5,2.8-6.4,2.3-9.6c-0.7-4.7-4.3-8.5-5.1-9.3
	C41.8,17.2,40.9,16.4,41,16.3z"/>
</svg>
