<svg xmlns="http://www.w3.org/2000/svg" viewBox="0 0 54 86"><defs><style>.cls-1{fill:#73ccff;}</style></defs><title>icon_location-history</title><g id="Calque_2" data-name="Calque 2"><g id="Calque_1-2" data-name="Calque 1"><path class="cls-1" d="M54.25,27.19A26.85,26.85,0,0,1,50,41.75L33.84,66.81A27.32,27.32,0,0,1,42.75,70c2.64,1.61,4.5,3.72,4.5,6.22,0,3.06-2.51,5.54-6.12,7.25a33.28,33.28,0,0,1-13.88,2.75A33.28,33.28,0,0,1,13.37,83.5c-3.61-1.71-6.12-4.19-6.12-7.25,0-2.5,1.86-4.61,4.5-6.22a27.32,27.32,0,0,1,8.91-3.22L4.53,41.75A27,27,0,1,1,54.25,27.19Zm-6,13.47a25,25,0,1,0-46-13.47,24.82,24.82,0,0,0,4,13.47l21,32.71Zm-3,35.59c0-1.46-1.23-3.11-3.56-4.53a26.18,26.18,0,0,0-9-3.09l-4.6,7.15a1,1,0,0,1-.3.31,1,1,0,0,1-1.38-.31l-4.6-7.15a26.18,26.18,0,0,0-9,3.09c-2.33,1.42-3.56,3.07-3.56,4.53,0,1.91,1.74,3.89,5,5.44a31.41,31.41,0,0,0,13,2.56,31.41,31.41,0,0,0,13-2.56C43.51,80.14,45.25,78.16,45.25,76.25Z" transform="translate(-0.25 -0.25)"/><path class="cls-1" d="M52.25,27.19a24.82,24.82,0,0,1-4,13.47l-21,32.71-21-32.71a25,25,0,1,1,46-13.47Zm-10,.06a15,15,0,1,0-15,15A15,15,0,0,0,42.25,27.25Z" transform="translate(-0.25 -0.25)"/><path class="cls-1" d="M27.25,12.25a15,15,0,1,1-15,15A15,15,0,0,1,27.25,12.25Zm13,15a13,13,0,1,0-13,13A13,13,0,0,0,40.25,27.25Z" transform="translate(-0.25 -0.25)"/><path class="cls-1" d="M32,29.57A1,1,0,1,1,30.66,31l-4-3a1,1,0,0,1-.41-.78v-6a1,1,0,0,1,.88-1h.16a1,1,0,0,1,1,1v5.5l3.59,2.69A.83.83,0,0,1,32,29.57Z" transform="translate(-0.25 -0.25)"/></g></g></svg>