<?xml version="1.0" encoding="utf-8"?>
<!-- Generator: Adobe Illustrator 24.0.2, SVG Export Plug-In . SVG Version: 6.00 Build 0)  -->
<svg version="1.1" id="Calque_1" xmlns="http://www.w3.org/2000/svg" xmlns:xlink="http://www.w3.org/1999/xlink" x="0px" y="0px"
	 viewBox="0 0 435 435" style="enable-background:new 0 0 435 435;" xml:space="preserve">
<g>
	<path d="M217.91,79.61c44,0,80,36,80,80c0,33-20,62-49,74c52,12,92,54,100,108c3,16-22,20-25,4c-8-52-53-91-106-91s-98,39-106,91
		c-3,16-28,12-25-4c9-54,49-96,100-108c-29-12-49-41-49-74C137.91,115.61,173.91,79.61,217.91,79.61z M217.91,105.61
		c-30,0-54,24-54,54s24,55,54,55s55-25,55-55S247.91,105.61,217.91,105.61z"/>
	<path d="M217.91,1.61c120,0,216,97,216,216c0,120-96,216-216,216c-119,0-216-96-216-216C1.91,98.61,98.91,1.61,217.91,1.61z
		 M217.91,26.61c-105,0-191,86-191,191c0,106,86,191,191,191c106,0,191-85,191-191C408.91,112.61,323.91,26.61,217.91,26.61z"/>
</g>
</svg>
