<svg xmlns="http://www.w3.org/2000/svg" xmlns:xlink="http://www.w3.org/1999/xlink" viewBox="0 0 1921 840.94"><defs><style>.cls-1,.cls-2,.cls-6,.cls-7{fill:#73ccff;}.cls-1,.cls-39{opacity:0.1;}.cls-1,.cls-11,.cls-19,.cls-2,.cls-23,.cls-29,.cls-38,.cls-39,.cls-4,.cls-7{isolation:isolate;}.cls-2,.cls-22,.cls-23,.cls-4{opacity:0.1;}.cls-3{fill:#535f89;}.cls-5{fill:#dce2ed;}.cls-11,.cls-7{opacity:0.2;}.cls-8{fill:#dea3a2;}.cls-35,.cls-9{fill:none;}.cls-10{fill:#a8a8a8;}.cls-12{fill:#dce0ed;}.cls-13{fill:#f0f0f4;}.cls-14{fill:#636780;}.cls-15{fill:url(#Dégradé_sans_nom_2);}.cls-16{fill:#f899a5;}.cls-17{fill:#f3b4b4;}.cls-18{fill:#bdd3e8;}.cls-19{opacity:0.05;}.cls-20{fill:#e6ebef;}.cls-21{fill:#4b3648;}.cls-23,.cls-27{fill:#fff;}.cls-24{fill:#4c4981;}.cls-25{fill:#ceddf9;}.cls-26{fill:#fec2be;}.cls-28{fill:#9a5e7f;}.cls-29{opacity:0.15;}.cls-30{fill:#3f3d56;}.cls-31{fill:#fbbebe;}.cls-32{fill:#3c354c;}.cls-33{fill:#f2f2f2;}.cls-34{fill:#a0616a;}.cls-35{stroke:#3f3d56;stroke-miterlimit:10;stroke-width:4px;}.cls-36{fill:#57b894;}.cls-37{fill:#656380;}.cls-38{opacity:0.05;}</style><linearGradient id="Dégradé_sans_nom_2" x1="887.08" y1="1213.35" x2="887.08" y2="1309.37" gradientTransform="matrix(1, 0, 0, -1, 515.57, 1882.96)" gradientUnits="userSpaceOnUse"><stop offset="0" stop-color="gray" stop-opacity="0.25"/><stop offset="0.54" stop-color="gray" stop-opacity="0.12"/><stop offset="1" stop-color="gray" stop-opacity="0.1"/></linearGradient></defs><title>Tripset - background</title><g id="Calque_2" data-name="Calque 2"><g id="Calque_1-2" data-name="Calque 1"><path class="cls-1" d="M731.15,551.16c-14.23,29.36-36.32,53.51-62.36,73.31l-.73.56c-22.39,16.92-47.65,30.66-73.33,41.76-75.27,32.55-158.16,45.46-239.91,40q-21.49-1.42-42.85-4.57A540.86,540.86,0,0,1,168.7,660.46Q149,651.55,130,641.1a495.3,495.3,0,0,1-60.46-39.54Q62.31,596,55.28,590.24c-3.25-2.68-6.47-5.42-9.74-8.08-6.9-5.61-14-10.94-21.92-14.93A76.07,76.07,0,0,0,16.28,564l-.28-.1a84.5,84.5,0,0,0-16-4.26V.26C67.07-2.66,135.29,18.63,187.88,60.5c20.4,16.24,38.73,35.47,61.64,47.92,20,10.84,43.41,15.33,64.83,6.8,17.7-7,29.22-10.55,49.1-9.48a411.35,411.35,0,0,1,120.36,25.19l.19.07q2.25.83,4.48,1.68l.52.2C589.49,171.49,675.86,248,720.76,346.15q1.79,3.9,3.47,7.86C751.06,416.63,760.74,490.1,731.15,551.16Z"/><path class="cls-1" d="M730.47,551.51C703.92,606.43,650,643.15,594.13,667.36,518.9,700,436.05,712.91,354.35,707.44q-21.48-1.43-42.83-4.58A539.35,539.35,0,0,1,168.33,661q-19.68-8.92-38.67-19.4A494.31,494.31,0,0,1,69.23,602Q62,596.48,55,590.67c-3.25-2.69-6.47-5.43-9.74-8.1-6.89-5.62-14-11-21.9-15A78.61,78.61,0,0,0,16,564.37V408.94H202v35h81v-253h96v101h47v-60h40v-64h18V130.72c1.67.57,3.34,1.16,5,1.75v35.47h17v64h39v60h58v228h91v-166h29.55C750.37,416.73,760,490.34,730.47,551.51Z"/><rect class="cls-1" x="312" y="228.94" width="43" height="43"/><rect class="cls-1" x="312" y="317.94" width="43" height="43"/><rect class="cls-1" x="312" y="405.94" width="43" height="43"/><rect class="cls-1" x="312" y="494.94" width="43" height="43"/><rect class="cls-1" x="312" y="583.94" width="43" height="43"/><rect class="cls-1" x="30" y="463.94" width="150" height="19"/><rect class="cls-1" x="30" y="522.94" width="150" height="19"/><path class="cls-1" d="M180,581.94v19H71.45q-7.1-5.4-14-11.08c-3.18-2.63-6.34-5.31-9.54-7.92Z"/><rect class="cls-1" x="426" y="344.94" width="28" height="28"/><rect class="cls-1" x="533" y="344.94" width="28" height="28"/><rect class="cls-1" x="426" y="413.94" width="28" height="28"/><rect class="cls-1" x="533" y="413.94" width="28" height="28"/><rect class="cls-1" x="426" y="481.94" width="28" height="28"/><rect class="cls-1" x="533" y="481.94" width="28" height="28"/><rect class="cls-1" x="426" y="550.94" width="28" height="28"/><rect class="cls-1" x="533" y="550.94" width="28" height="28"/><path class="cls-1" d="M86.87,154.1s-23.83-1.43-21,15.27A4.06,4.06,0,0,0,68,173.66s0-1.24,2.45-.82A10.68,10.68,0,0,0,73,173a5.35,5.35,0,0,0,3.16-1.31h0s6.7-2.77,9.31-13.72c0,0,1.93-2.39,1.85-3l-4,1.72s1.37,2.9.29,5.31c0,0-.13-5.21-.9-5.08-.16,0-2.09,1-2.09,1s2.36,5.06.58,8.73c0,0,.68-6.23-1.32-8.36l-2.83,1.65s2.76,5.22.89,9.48c0,0,.48-6.53-1.49-9.08l-2.56,2s2.59,5.15,1,8.68c0,0-.21-7.6-1.57-8.18a15.94,15.94,0,0,0-2.59,2.79s1.78,3.74.68,5.71c0,0-.68-5.07-1.23-5.09,0,0-2.24,3.36-2.47,5.66a12.24,12.24,0,0,1,1.93-6,6.71,6.71,0,0,0-3.43,1.77s.35-2.37,4-2.58c0,0,1.85-2.55,2.34-2.7,0,0-3.61-.3-5.8.67,0,0,1.93-2.24,6.46-1.23l2.54-2.06S71,159.1,69,159.8c0,0,2.32-2,7.45-.54l2.76-1.65a25.6,25.6,0,0,0-6.47-.56s2.55-1.37,7.27.12l2-.89s-3-.58-3.84-.67-.92-.34-.92-.34a10.34,10.34,0,0,1,5.58.62S87,154.33,86.87,154.1Z"/><path class="cls-1" d="M24.29,235.33s-8.14,22.45,8.67,24.5a4.08,4.08,0,0,0,4.72-.81s-1.18-.4-.09-2.58a11.65,11.65,0,0,0,.85-2.45,5.45,5.45,0,0,0-.35-3.4h0s-.75-7.21-10.52-12.82c0,0-1.74-2.53-2.35-2.63l.51,4.34s3.17-.49,5.17,1.23c0,0-5-1.35-5.13-.58,0,.16.37,2.29.37,2.29s5.52-.83,8.54,1.93c0,0-5.78-2.42-8.4-1.11l.78,3.18s5.8-1.17,9.35,1.84c0,0-6.13-2.32-9.13-1.15l1.19,3s5.67-1,8.61,1.5c0,0-7.35-2-8.29-.82a15.67,15.67,0,0,0,1.94,3.27s4.09-.64,5.67,1c0,0-5-.79-5.23-.26,0,0,2.58,3.1,4.72,4a12.24,12.24,0,0,1-5.19-3.54,6.7,6.7,0,0,0,.73,3.78s-2.18-1-1.34-4.54a16.1,16.1,0,0,1-1.93-3s-1.31,3.37-1,5.74c0,0-1.61-2.48.66-6.54l-1.27-3s-2,4.37-1.85,6.5c0,0-1.24-2.78,1.6-7.29l-.8-3.11a24.6,24.6,0,0,0-2.37,6s-.59-2.83,2.18-6.94L25,240.71s-1.41,2.68-1.74,3.49-.58.79-.58.79a10.2,10.2,0,0,1,2.18-5.17S24.57,235.34,24.29,235.33Z"/><path class="cls-1" d="M182.33,216.42s-8.15,22.44,8.67,24.49a4.05,4.05,0,0,0,4.71-.81s-1.17-.39-.09-2.58a11.8,11.8,0,0,0,.86-2.44,5.47,5.47,0,0,0-.36-3.41h0s-.75-7.21-10.51-12.82c0,0-1.74-2.52-2.35-2.63l.5,4.35s3.19-.47,5.19,1.23c0,0-5-1.36-5.13-.58,0,.16.37,2.29.37,2.29s5.52-.83,8.53,1.92c0,0-5.78-2.42-8.39-1.11l.78,3.18s5.79-1.16,9.34,1.84c0,0-6.13-2.31-9.12-1.15l1.19,3s5.67-1,8.61,1.49c0,0-7.36-2-8.29-.82a15.48,15.48,0,0,0,1.94,3.28s4.09-.65,5.66,1c0,0-5.05-.79-5.23-.27,0,0,2.59,3.1,4.73,4a12.18,12.18,0,0,1-5.19-3.55,6.72,6.72,0,0,0,.73,3.79s-2.18-1-1.35-4.55c0,0-1.92-2.49-1.92-3,0,0-1.32,3.37-1,5.75,0,0-1.6-2.48.66-6.54l-1.26-3s-2,4.37-1.86,6.51c0,0-1.24-2.79,1.6-7.3l-.79-3.11a24.6,24.6,0,0,0-2.37,6s-.6-2.83,2.17-6.94l-.29-2.14s-1.4,2.68-1.74,3.49-.57.78-.57.78a10.27,10.27,0,0,1,2.17-5.17S182.6,216.42,182.33,216.42Z"/><path class="cls-1" d="M9.12,322.13a4.09,4.09,0,0,1-3.39,3.38A12.83,12.83,0,0,1,0,327.19v-4.52l.27.09C1.63,326.13,4,325.7,4,325.7A6.83,6.83,0,0,1,1.21,323a12.16,12.16,0,0,0,6.28-.09c-2.25.48-6.15-.52-6.15-.52-.15-.54,4.43-2.8,4.43-2.8-2.19-.41-5.19,2.47-5.19,2.47l-.58-.2v-3.59a47.1,47.1,0,0,1,4.35-1.88A7.84,7.84,0,0,0,0,317.52v-2.89c1.09-.38,1.86-.58,1.86-.58a7.67,7.67,0,0,0-1.86.07v-2.06A13.07,13.07,0,0,1,4.59,315a5.42,5.42,0,0,1,2.26,2.58,11.91,11.91,0,0,1,.71,2.5C7.93,322.49,9.12,322.13,9.12,322.13Z"/><path class="cls-1" d="M155.16,331.1s6.29,23,21.21,15a4.08,4.08,0,0,0,3.38-3.38s-1.18.36-1.56-2.05a11.34,11.34,0,0,0-.71-2.5,5.43,5.43,0,0,0-2.25-2.58h0s-4.77-5.45-16-4.41c0,0-2.88-1.06-3.44-.79l2.92,3.26s2.31-2.23,4.94-2c0,0-4.89,1.79-4.53,2.49.07.14,1.62,1.65,1.62,1.65s4-3.86,8.08-3.35c0,0-6.11,1.36-7.49,3.93l2.47,2.16s4.06-4.3,8.69-3.89c0,0-6.34,1.64-8.12,4.32l2.72,1.79s4-4.11,7.9-3.75c0,0-7.14,2.64-7.25,4.12a15.28,15.28,0,0,0,3.48,1.55s3-2.88,5.18-2.47c0,0-4.58,2.27-4.42,2.8,0,0,3.9,1,6.15.52a12.16,12.16,0,0,1-6.28.09,6.65,6.65,0,0,0,2.78,2.68s-2.36.43-3.73-2.94c0,0-3-.93-3.31-1.35,0,0,.88,3.51,2.5,5.28,0,0-2.74-1.11-3.23-5.73l-2.77-1.74s.9,4.71,2.23,6.39c0,0-2.62-1.56-2.9-6.88L161,337.24a24.81,24.81,0,0,0,1.54,6.3s-2.12-2-2.22-6.93L158.83,335s.4,3,.59,3.85,0,1,0,1a10.25,10.25,0,0,1-1.2-5.48S155.39,330.89,155.16,331.1Z"/><path class="cls-2" d="M1200.72,495.94c11.52,31.62,35.89,59,74.43,72.27,80.07,27.56,260.65,13.35,395.42-3,69.72-8.44,131-31.72,175.5-64.51Z"/><path class="cls-2" d="M1907.44,347.42h-73.88c-3.51,0-6.39-1.84-6.39-4.1s2.88-4.11,6.39-4.11h12.79c-3.52,0-6.4-1.85-6.4-4.1s2.88-4.11,6.4-4.11h-9.13c-3.52,0-6.4-1.85-6.4-4.11s2.88-4.1,6.4-4.1h39.46a147.38,147.38,0,0,0-30.19-5.36c-105.54-8.72-143.22-2.94-156.52,3a196.71,196.71,0,0,1-54.21,15.29c-65.14,8.63-186.89,19-297.25-3.36-54.85-11.11-95.62,7.67-120.06,39.05h701.91a53,53,0,0,0-8.74-25A8.57,8.57,0,0,1,1907.44,347.42Z"/><path class="cls-2" d="M1194.44,430.19a135.92,135.92,0,0,0,2.87,55.23l649.26,15.27c18-13.31,33.2-28.17,45.11-44.24Zm256.79,39.06h-12.75c3.51,0,6.38,1.85,6.38,4.1s-2.87,4.11-6.38,4.11h-73.92c-3.52,0-6.39-1.85-6.39-4.11s2.87-4.1,6.39-4.1h12.78c-3.51,0-6.39-1.85-6.39-4.11s2.88-4.11,6.39-4.11h-9.19c-3.51,0-6.39-1.85-6.39-4.1s2.88-4.11,6.39-4.11h73.95c3.52,0,6.39,1.85,6.39,4.11s-2.87,4.1-6.39,4.1h9.13c3.52,0,6.39,1.85,6.39,4.11s-2.87,4.11-6.39,4.11Z"/><path class="cls-2" d="M1920.43,371.38l-709,11.09a130.41,130.41,0,0,0-17,47.08H1908a138.17,138.17,0,0,0,10.27-30A91.61,91.61,0,0,0,1920.43,371.38Zm-582,36.27h-12.79c3.52,0,6.4,1.86,6.4,4.11s-2.88,4.1-6.4,4.1h-73.91c-3.52,0-6.39-1.84-6.39-4.1s2.87-4.11,6.39-4.11h12.78c-3.51,0-6.39-1.85-6.39-4.1s2.88-4.11,6.39-4.11h-9.16c-3.52,0-6.39-1.86-6.39-4.11s2.87-4.1,6.39-4.1h73.91c3.52,0,6.39,1.84,6.39,4.1s-2.87,4.11-6.39,4.11h9.13c3.52,0,6.39,1.85,6.39,4.11S1342,407.65,1338.46,407.65Z"/><rect class="cls-3" x="1562.99" y="450.08" width="4.11" height="210.11"/><path class="cls-3" d="M1570.56,699.52a9.94,9.94,0,0,1-12.2,0c-1.7-11.25,2.62-33.35,3.64-38.33l.21-1h4.93a3.39,3.39,0,0,1,.76,1.15C1571.25,668.54,1570.56,699.52,1570.56,699.52Z"/><path class="cls-4" d="M1566.41,655.65v4.54h-2.05v-4.54a6.61,6.61,0,0,1,1-.08A7.45,7.45,0,0,1,1566.41,655.65Z"/><path class="cls-4" d="M1567.87,661.31a5.8,5.8,0,0,1-2.82.69,5.48,5.48,0,0,1-3-.81l.21-1h4.91A3.61,3.61,0,0,1,1567.87,661.31Z"/><ellipse class="cls-5" cx="1565.05" cy="659.01" rx="4.11" ry="2.44"/><polygon class="cls-6" points="1546.97 416.43 1561.45 409.5 1582.81 414.6 1566.24 402.08 1546.97 416.43"/><polygon class="cls-6" points="1551.21 418.65 1546.97 416.43 1561.45 409.5 1582.81 414.6 1579.05 416.43 1561.45 412.48 1551.21 418.65"/><polygon class="cls-4" points="1551.21 418.65 1546.97 416.43 1561.45 409.5 1582.81 414.6 1579.05 416.43 1561.45 412.48 1551.21 418.65"/><polygon class="cls-7" points="1550.63 416.74 1562.29 449.4 1568.07 449.4 1578.86 414.71 1561.45 410.67 1550.63 416.74"/><polygon class="cls-6" points="1570.93 440.21 1568.63 447.61 1568.07 449.4 1562.29 449.4 1561.86 448.19 1559.13 440.56 1563.51 437.93 1570.93 440.21"/><polygon class="cls-7" points="1561.45 412.21 1564.21 449.4 1562.29 449.4 1551.21 418.38 1561.45 412.21"/><polygon class="cls-4" points="1566.24 402.08 1561.45 409.5 1546.97 416.43 1566.24 402.08"/><path class="cls-4" d="M1568.63,447.61l-.56,1.79h-5.78l-.43-1.21a4.81,4.81,0,0,1,3.71-1.37A5.58,5.58,0,0,1,1568.63,447.61Z"/><path class="cls-4" d="M1566.41,450.08v3.43h-.54a5.91,5.91,0,0,1-1.51-.2v-3.23Z"/><ellipse class="cls-5" cx="1565.56" cy="450.28" rx="4.11" ry="2.44"/><rect class="cls-3" x="1712.18" y="552.74" width="2.74" height="138.93"/><path class="cls-3" d="M1717.5,717.68a6.59,6.59,0,0,1-8.07,0c-1.13-7.43,1.73-22,2.41-25.32.08-.43.14-.69.14-.69h3.22a2.31,2.31,0,0,1,.51.76C1717.94,697.21,1717.5,717.68,1717.5,717.68Z"/><path class="cls-4" d="M1714.24,688.67v3h-1.37v-3a3.82,3.82,0,0,1,.68-.06A5.36,5.36,0,0,1,1714.24,688.67Z"/><path class="cls-4" d="M1715.71,692.45a3.93,3.93,0,0,1-1.87.44,3.79,3.79,0,0,1-2-.53c.08-.43.14-.69.14-.69h3.22A2.4,2.4,0,0,1,1715.71,692.45Z"/><ellipse class="cls-5" cx="1713.84" cy="690.49" rx="2.72" ry="1.62"/><polygon class="cls-6" points="1701.89 530.11 1711.47 525.52 1725.59 528.9 1714.63 520.62 1701.89 530.11"/><polygon class="cls-6" points="1704.69 531.57 1701.89 530.11 1711.47 525.52 1725.59 528.9 1723.1 530.11 1711.47 527.5 1704.69 531.57"/><polygon class="cls-4" points="1704.69 531.57 1701.89 530.11 1711.47 525.52 1725.59 528.9 1723.1 530.11 1711.47 527.5 1704.69 531.57"/><polygon class="cls-7" points="1704.31 530.47 1712.01 552.06 1715.84 552.06 1722.97 529.13 1711.47 526.46 1704.31 530.47"/><polygon class="cls-6" points="1717.73 545.97 1716.21 550.87 1715.84 552.06 1712.01 552.06 1711.73 551.26 1709.93 546.21 1712.82 544.48 1717.73 545.97"/><polygon class="cls-7" points="1711.47 527.48 1713.29 552.06 1712.01 552.06 1704.69 531.55 1711.47 527.48"/><polygon class="cls-4" points="1714.63 520.62 1711.47 525.52 1701.89 530.11 1714.63 520.62"/><path class="cls-4" d="M1716.21,550.88l-.37,1.18H1712l-.29-.8a3.2,3.2,0,0,1,2.45-.92A3.71,3.71,0,0,1,1716.21,550.88Z"/><path class="cls-4" d="M1714.24,552.7v2.1h-.36a4.29,4.29,0,0,1-1-.12v-2Z"/><ellipse class="cls-5" cx="1714.18" cy="552.49" rx="2.72" ry="1.62"/><path class="cls-2" d="M1921,840.94H0V808.31c6.42-12.12,15-22.17,24.21-26.25,11.26-5,23.51-7.15,35.74-7.85,12.41-.71,24.7,1.14,37.05.83,11.94-.3,24.43-3.88,36.3-5.52q19.69-2.71,39.48-4.66c52.66-5.18,105.65-6.34,158.52-4.82,53.2,1.53,106.29,5.77,159.21,11.31,53.31,5.59,106.46,12.51,159.61,19.45s106.36,13.91,159.68,19.59c24.7,2.63,49.44,5,74.2,6.91,63.44,5,127.25,7.16,190.7,2.36,72.21-5.47,143.4-19.94,215.21-29.25a1516.94,1516.94,0,0,1,543.67,28.26C1853,823.27,1901.66,836,1921,840.94Z"/><path class="cls-8" d="M1471.51,740.59s-61-2.56-67.47-122.09,57.19-139.77,57.19-139.77,20.16-11.26,29.1-11.73,38.81,2.35,38.81,2.35L1496.2,463s46.34-17.64,60.23-19.05l-50.1,10.58s-.68-27.75,11.3-36.92c0,0-10.27-.77-15.68,19.22a38.23,38.23,0,0,1-22.88,25.67c-18.58,7.25-44.27,18.69-50.12,28.49,0,0-10.82,11.29-9.17-18.11s9.4-54.57,12.23-55.28c0,0,22.1-23.51,53.15-24.92,0,0-18.1-7.3-48.68,15.52,0,0-2.59-11.53,8.94-25.17s29.42-42.34,48.92-45.39c0,0-27.28-1.65-48.92,33.63,0,0-8,5.17-8.71-8s-5.41-29.65-5.41-29.65-6.59,30.35,7.29,44c0,0-26.58,34.58-25.4,73.39,0,0-8.22,17.63-11.29-3.06,0,0-1.77-28.51-5.31-52.7a71.62,71.62,0,0,1,15-55.24c5.88-7.31,10-14.42,7.7-18.15l-30.8,36.69s-25.91-60-44.72-72.86-21.17-15.75-21.17-15.75L1353,305.46,1314.86,292l38.1,17.64s17.64,14.37,27.76,53.63,11,63.74,11,63.74-54.33-43.05-64.68-41.64l35.16,26.6a83.74,83.74,0,0,1,33,61.14h0s-68-17.41-84.44-20.7l-31-31.76,23.53,30.12-48.46-.69-27.75-19.75s21.9,18.34,19.75,19.52-34.1,2.59-34.1,2.59,81.38-.47,90.34,5.4,28.93,8,28.93,8l-57.63,8.69,68.69-4.93s52,9.4,54.79,25.64c0,0-10.58,27.62-17.63,38.57-5.86,9.1-17.65,38.57-20,64.45s-5.65,65.62,3.29,89.85,12.23,38.1,7.76,45.39-8.71,16.7,5.88,18.58,78.56-.94,78.56-.94S1475.28,755,1471.51,740.59Z"/><path class="cls-4" d="M1437.32,727.69a30.73,30.73,0,0,0-20.75-2.59c-12,2.59-30.32,1.22-32,.93"/><path class="cls-4" d="M1399,586.84s-2.92,46,2.27,55Z"/><path class="cls-4" d="M1388.24,641.89s3.74,43.06,6.32,51.48S1388.24,641.89,1388.24,641.89Z"/><path class="cls-4" d="M1384.6,536c-2.65,1-14,24-11.71,30.76S1384.6,536,1384.6,536Z"/><path class="cls-4" d="M1413.33,512.15c-1.22.55-6.5,13.8-5.47,17.71S1413.33,512.15,1413.33,512.15Z"/><path class="cls-4" d="M1364.26,589.36c1.31,13.35,2,22.09,1.19,32.78a126.65,126.65,0,0,0,.36,24.93"/><path class="cls-4" d="M1506.16,433.9a10.63,10.63,0,0,0-2.2,6.76c-.08,2.43.23,4.85.07,7.27s-1.37,5.52-3.9,5.85"/><path class="cls-4" d="M1462.73,354.29a60.94,60.94,0,0,0-8.51,10.57,24.84,24.84,0,0,1-2.42,3.42,40.81,40.81,0,0,1-4.67,3.83,22.06,22.06,0,0,0-7.44,11.63"/><path class="cls-4" d="M1339.77,285.57a15.52,15.52,0,0,0,3,4,43.8,43.8,0,0,1,3.25,3,23.43,23.43,0,0,1,2,3.07,82.65,82.65,0,0,0,8.7,10.95"/><path class="cls-4" d="M1396.73,353.61c-2.06,1.27-2.56,4-2.51,6.36s.45,4.88-.44,7.1c-.4,1-1.06,1.9-1.48,2.9a13.23,13.23,0,0,0-.68,5.53c0,2.17.1,4.34.19,6.5.11,2.6.36,5.43,2.13,7.34"/><path class="cls-9" d="M1379.68,421.13a28,28,0,0,1,5.28,3.63,9.46,9.46,0,0,1,3.06,5.47c.12.91.06,1.85.26,2.74a8.77,8.77,0,0,0,1.8,3.31,44.31,44.31,0,0,0,4.46,4.93"/><path class="cls-4" d="M1395,482.5a31.09,31.09,0,0,0-4.26-2.95,17.59,17.59,0,0,0-4.37-1.93c-2.35-.62-4.79-.53-7.23-.78s-4.94-.92-6.58-2.74"/><path class="cls-4" d="M1299.4,452.79c2.86.08,5.83.18,8.38,1.49,1.3.68,2.43,1.63,3.7,2.34a11.2,11.2,0,0,0,5.4,1.4"/><path class="cls-4" d="M1339.08,464.6a1.58,1.58,0,0,0-2,.48c-.51.59-.79,1.37-1.32,1.91-1,1.13-2.73,1.26-4.29,1.32"/><path class="cls-4" d="M1355.45,403.8l2.73,1.45a48.13,48.13,0,0,1,8.13,4.93"/><path class="cls-4" d="M1386.87,430.71c1.81-.43,3.37,1.5,3.69,3.32s0,3.76.46,5.55a10.3,10.3,0,0,0,2.74,4.06"/><path class="cls-4" d="M1417.46,434.05c1.65,4.92-1.84,10.27-.82,15.35.31,1.55,1,3,1.37,4.53,1,4-.68,8.33-3.32,11.54"/><rect class="cls-3" x="1314.55" y="393.96" width="4.79" height="262.12"/><path class="cls-3" d="M1323.65,705.83a12.39,12.39,0,0,1-15.23,0c-2.12-14,3.27-41.62,4.54-47.81l.27-1.25h6.09a4.37,4.37,0,0,1,1,1.42C1324.49,667.17,1323.65,705.83,1323.65,705.83Z"/><path class="cls-4" d="M1318,651.1v5.67h-2.73V651.1a8.51,8.51,0,0,1,1.33-.1A9.32,9.32,0,0,1,1318,651.1Z"/><path class="cls-4" d="M1320.27,658.19a7.15,7.15,0,0,1-3.51.83,7,7,0,0,1-3.8-1l.27-1.25h6.09A4.37,4.37,0,0,1,1320.27,658.19Z"/><ellipse class="cls-5" cx="1316.76" cy="654.74" rx="5.13" ry="3.05"/><polygon class="cls-6" points="1294.18 351.93 1312.27 343.28 1338.92 349.65 1318.23 334.02 1294.18 351.93"/><polygon class="cls-6" points="1299.47 354.7 1294.18 351.93 1312.27 343.28 1338.92 349.65 1334.23 351.93 1312.27 347.01 1299.47 354.7"/><polygon class="cls-4" points="1299.47 354.7 1294.18 351.93 1312.27 343.28 1338.92 349.65 1334.23 351.93 1312.27 347.01 1299.47 354.7"/><polygon class="cls-7" points="1298.76 352.52 1313.31 393.28 1320.52 393.28 1333.99 349.99 1312.27 344.94 1298.76 352.52"/><polygon class="cls-6" points="1324.09 381.8 1321.21 391.05 1320.52 393.28 1313.31 393.28 1312.77 391.77 1309.37 382.25 1314.83 378.96 1324.09 381.8"/><polygon class="cls-7" points="1312.27 346.86 1315.71 393.28 1313.31 393.28 1299.47 354.56 1312.27 346.86"/><polygon class="cls-4" points="1318.23 334.02 1312.27 343.28 1294.18 351.93 1318.23 334.02"/><path class="cls-4" d="M1321.22,391.05l-.69,2.23h-7.22l-.54-1.51a6,6,0,0,1,4.63-1.74A7,7,0,0,1,1321.22,391.05Z"/><path class="cls-4" d="M1318,394v4c-.23,0-.47,0-.72,0a9,9,0,0,1-2-.23V394Z"/><ellipse class="cls-5" cx="1317.39" cy="394.19" rx="5.13" ry="3.05"/><ellipse class="cls-2" cx="1791.25" cy="740.5" rx="11.51" ry="1.94"/><path class="cls-10" d="M1783.52,731.46s6.56-.21,8.54-1.62,10.1-3.09,10.59-.83,9.87,11.24,2.45,11.3-17.22-1.15-19.19-2.36S1783.52,731.46,1783.52,731.46Z"/><path class="cls-11" d="M1805.23,739.44c-7.41.07-17.21-1.15-19.16-2.36-1.5-.91-2.1-4.2-2.3-5.71h-.22s.41,5.29,2.39,6.49,11.79,2.42,19.2,2.36c2.14,0,2.87-.78,2.84-1.9C1807.64,739,1806.83,739.43,1805.23,739.44Z"/><ellipse class="cls-2" cx="1858" cy="717.83" rx="8.86" ry="1.5"/><path class="cls-10" d="M1852.05,710.87s5-.16,6.58-1.24,7.77-2.38,8.14-.64,7.6,8.65,1.89,8.69-13.25-.88-14.77-1.81S1852.05,710.87,1852.05,710.87Z"/><path class="cls-11" d="M1868.77,717.05c-5.7.05-13.25-.89-14.77-1.81-1.16-.69-1.62-3.24-1.78-4.4h-.17s.33,4.07,1.84,5,9.07,1.86,14.77,1.82c1.65,0,2.22-.6,2.19-1.47C1870.62,716.72,1870,717,1868.77,717.05Z"/><ellipse class="cls-2" cx="1826.81" cy="810.48" rx="21.14" ry="3.57"/><path class="cls-10" d="M1812.62,793.87s12.06-.38,15.69-3,18.56-5.68,19.46-1.53,18.12,20.64,4.5,20.75-31.63-2.11-35.22-4.32S1812.62,793.87,1812.62,793.87Z"/><path class="cls-11" d="M1852.52,808.54c-13.62.11-31.64-2.12-35.27-4.33-2.74-1.68-3.86-7.72-4.23-10.51h-.4s.77,9.75,4.43,12,21.64,4.44,35.26,4.32c3.93,0,5.29-1.42,5.21-3.49C1856.94,807.71,1855.44,808.52,1852.52,808.54Z"/><path class="cls-8" d="M1599.66,644.61s35.06-1.48,38.75-70.12-32.85-80.28-32.85-80.28-11.57-6.47-16.7-6.74-22.29,1.37-22.29,1.37l18.91-3.65s-26.61-10.13-34.59-10.95l28.75,6.08s.4-15.94-6.49-21.22c0,0,5.87-.43,9,11a21.91,21.91,0,0,0,13.13,14.75c10.68,4.16,25.43,10.73,28.79,16.36,0,0,6.22,6.49,5.27-10.4s-5.4-31.35-7-31.75c0,0-12.69-13.51-30.53-14.32,0,0,10.41-4.18,28,8.9,0,0,1.48-6.62-5.14-14.46s-16.88-24.31-28.1-26.07c0,0,15.68-.95,28.1,19.32,0,0,4.6,3,5-4.59s3.11-17,3.11-17,3.78,17.43-4.19,25.27c0,0,15.27,19.84,14.59,42.15,0,0,4.73,10.13,6.49-1.76,0,0,1-16.37,3-30.26a41.15,41.15,0,0,0-8.62-31.73c-3.37-4.19-5.73-8.28-4.42-10.42l17.7,21.07s14.86-34.44,25.66-41.88,12.16-9,12.16-9l-17.39,20.4,21.9-7.7-21.9,10.13s-10.13,8.22-15.94,30.8-6.35,36.61-6.35,36.61,31.18-24.67,37.15-23.89l-20.19,15.27a48.1,48.1,0,0,0-19,35.11h0s39-10,48.5-11.88l17.8-18.24-13.48,17.28,27.83-.4,16-11.35s-12.57,10.54-11.37,11.22,19.59,1.49,19.59,1.49-46.74-.27-51.88,3.1-16.61,4.59-16.61,4.59l33.11,5L1673.42,489s-29.85,5.41-31.48,14.73c0,0,6.08,15.86,10.13,22.15,3.36,5.23,10.13,22.16,11.48,37s3.25,37.68-1.89,51.6-7,21.9-4.45,26.07,5,9.59-3.38,10.67-45.13-.54-45.13-.54S1597.49,652.88,1599.66,644.61Z"/><path class="cls-4" d="M1619.3,637a17.63,17.63,0,0,1,11.9-1.48c6.84,1.48,17.42.68,18.38.53"/><path class="cls-4" d="M1641.31,556.13s1.67,26.41-1.3,31.61Z"/><path class="cls-4" d="M1647.48,587.74s-2.14,24.73-3.63,29.57S1647.48,587.74,1647.48,587.74Z"/><path class="cls-4" d="M1649.58,526.93c1.52.56,8,13.77,6.72,17.67S1649.58,526.93,1649.58,526.93Z"/><path class="cls-4" d="M1633.08,513.23c.68.32,3.73,7.93,3.12,10.17S1633.08,513.23,1633.08,513.23Z"/><path class="cls-4" d="M1661.26,557.57c-.75,7.67-1.16,12.69-.69,18.83a72.14,72.14,0,0,1-.2,14.32"/><path class="cls-4" d="M1579.75,468.29a6.12,6.12,0,0,1,1.28,3.88c0,1.37-.14,2.78,0,4.17s.79,3.17,2.24,3.37"/><path class="cls-4" d="M1604.71,422.56a35.61,35.61,0,0,1,4.86,6.09,14.24,14.24,0,0,0,1.37,2,22.65,22.65,0,0,0,2.69,2.2,12.66,12.66,0,0,1,4.27,6.7"/><path class="cls-4" d="M1675.32,383.09a8.57,8.57,0,0,1-1.73,2.32c-.61.59-1.31,1.08-1.87,1.71a14.69,14.69,0,0,0-1.19,1.76,48.39,48.39,0,0,1-5,6.31"/><path class="cls-4" d="M1642.62,422.17c1.17.73,1.47,2.29,1.44,3.66a10.45,10.45,0,0,0,.25,4.1c.24.59.61,1.1.85,1.67a8,8,0,0,1,.41,3.17c0,1.25-.07,2.49-.12,3.73-.06,1.5-.21,3.12-1.22,4.22"/><path class="cls-9" d="M1652.4,460.93a16.8,16.8,0,0,0-3,2.05,5.45,5.45,0,0,0-1.76,3.16c-.07.52,0,1.06-.15,1.57a5,5,0,0,1-1,1.9,26.37,26.37,0,0,1-2.56,2.83"/><path class="cls-4" d="M1643.58,496.2a20.39,20.39,0,0,1,2.44-1.69,10.29,10.29,0,0,1,2.52-1.11,26.28,26.28,0,0,1,4.15-.41,5.84,5.84,0,0,0,3.78-1.56"/><path class="cls-4" d="M1698.54,479.13a11.06,11.06,0,0,0-4.79.86c-.74.38-1.37.94-2.12,1.37a6.49,6.49,0,0,1-3.11.81"/><path class="cls-4" d="M1675.72,485.92a.92.92,0,0,1,1.18.27c.3.34.46.77.76,1.1a3.4,3.4,0,0,0,2.46.76"/><path class="cls-4" d="M1666.32,451l-1.58.82a27.29,27.29,0,0,0-4.65,2.84"/><path class="cls-4" d="M1648.28,466.45c-1-.25-1.94.86-2.13,1.91s0,2.16-.26,3.18a5.92,5.92,0,0,1-1.56,2.34"/><path class="cls-4" d="M1630.7,468.35c-.94,2.82,1.06,5.9.47,8.81-.18.89-.59,1.72-.8,2.6a7.94,7.94,0,0,0,1.91,6.64"/><path class="cls-6" d="M1426.51,525c-11.24,15.15-20.49,59.73-23.08,73.16l-19.58-.77c1.24-11.56,24.9-58.24,31.49-71C1418.86,525.84,1422.63,525.36,1426.51,525Z"/><rect class="cls-12" x="1662.22" y="519.21" width="8.9" height="12.32"/><path class="cls-4" d="M1671.12,519.89v3.86a7.41,7.41,0,0,1-1.93.25l-7-.06v-4.05Z"/><path class="cls-12" d="M1658.78,488.41H1667a9.81,9.81,0,0,1,9.11,6.16c2.4,5.91,4.43,15.3-.91,24.64a6.76,6.76,0,0,1-5.93,3.42l-10.46-.09Z"/><ellipse class="cls-13" cx="1658.72" cy="505.51" rx="8.77" ry="17.06"/><rect class="cls-12" x="1584.89" y="519.89" width="8.9" height="10.95"/><path class="cls-4" d="M1593.78,519.87v3.21a7.39,7.39,0,0,1-1.93.23l-7,0v-3.37Z"/><path class="cls-12" d="M1581.44,488.41h8.22a9.81,9.81,0,0,1,9.1,6.16c2.4,5.91,4.43,15.3-.9,24.64a6.79,6.79,0,0,1-5.94,3.42l-10.45-.1Z"/><ellipse class="cls-13" cx="1581.66" cy="505.65" rx="8.77" ry="17.06"/><path class="cls-12" d="M1583.85,494.83s-3.24.52-1.56,4.79a28.56,28.56,0,0,1,1.94,6.47s3.24,1.68,3.11-3.88S1583.85,494.83,1583.85,494.83Z"/><ellipse class="cls-14" cx="1255.08" cy="738.64" rx="51.19" ry="56.1"/><path class="cls-4" d="M1274.26,686c-26.78,1.8-48,26.18-48,56,0,24,13.78,44.53,33.16,52.52,26.79-1.8,48-26.18,48-56C1307.42,714.52,1293.63,694,1274.26,686Z"/><ellipse class="cls-14" cx="1655.68" cy="616.02" rx="41.54" ry="54.17"/><path class="cls-4" d="M1644.07,564.12c-17.23,6.6-29.81,27.37-29.81,52,0,26.29,14.37,48.2,33.43,53.13,17.22-6.6,29.81-27.37,29.81-52C1677.5,591,1663.13,569,1644.07,564.12Z"/><path class="cls-6" d="M1499.63,604.45l.77-19.66s-3.86-8.49-7.71-9.25-12.73-1.25-12.73-1.25-6.94,28.23-2.31,36.72S1499.63,604.45,1499.63,604.45Z"/><path class="cls-4" d="M1499.63,604.45l.77-19.66s-3.86-8.49-7.71-9.25-12.73-1.25-12.73-1.25-6.94,28.23-2.31,36.72S1499.63,604.45,1499.63,604.45Z"/><path class="cls-6" d="M1428.49,602.33s-2.39-27.26,12.59-27.76c1.93-.06,3.86-.11,5.79-.29,10.38-1,38.71-3.19,35.31,3.28,0,0-6.75,23.71-2.12,29.69Z"/><path class="cls-6" d="M1640.84,652.89l20.1.58s3.47-37,4.62-39.91,1.74-16.77-2-18.79-16.32-4.48-16.32-4.48l-9.27,21.1-.72,19.08Z"/><path class="cls-4" d="M1640.84,652.89l20.1.58s3.47-37,4.62-39.91,1.74-16.77-2-18.79-16.32-4.48-16.32-4.48l-9.27,21.1-.72,19.08Z"/><path class="cls-6" d="M1592.26,591.44l-.09-4.1a2.38,2.38,0,0,1,2.32-2.43h.16c10,.42,46.21,2.16,52.55,5.4,0,0-6.94,51.61.73,63.91l-2.6,41.35-88.78-6.66Z"/><path class="cls-4" d="M1584.89,526c2.52-.25,5.53-.51,8.89-.77v4.94h-8.89Z"/><path class="cls-4" d="M1671.12,530.9v.63h-8.9v-3.75A38.24,38.24,0,0,1,1671.12,530.9Z"/><path class="cls-15" d="M1426.55,591.66a.81.81,0,0,1,.33-.51,1.22,1.22,0,0,1,.6-.06h0v.35h0a13.5,13.5,0,0,0-1.24,1.27C1426.36,592.36,1426.45,592,1426.55,591.66Zm31.33-9.21v-.14a29.25,29.25,0,0,1,1.5-3.21,30.07,30.07,0,0,0-1.5,3.35Zm4.68-8.86c-.74,1.11-1.64,2.53-2.52,4.18a19.53,19.53,0,0,1,2.52-4.18Zm-122.28,95.78c3.48.13,6.38.07,6.38.07C1346,669.73,1343.24,669.6,1340.28,669.37Zm6.39.07c.13-.09,1.42-.84,4.42-.54a12.27,12.27,0,0,0-4.42.54Zm117.08-52.65,1.27-21.9s-.47,11.19-.31,16a15.74,15.74,0,0,1-1,5.89Z"/><path class="cls-16" d="M1390.74,658.73s-.36,1.13-.84,2.55c-.78,2.32-1.88,5.47-2.26,5.77s-3.29.48-6.47.68a19.94,19.94,0,0,1-13.63-4.33s1.66-1.2,3.42-2.59,3.61-3,4-3.73c.53-1.06,3.54-2.89,5.36-3.92l1.36-.76Z"/><path class="cls-17" d="M1386.89,668.08s-32-1.47-33.91-1.89-2.3-2.67-2.3-2.67c-.63-1.49,2.74-1.17,2.74-1.17h0c.34,0,4.11.68,7.65,1.13h0c2.84.37,5.53.61,6.16.35h0a12,12,0,0,1,4.28-.35c-1.62-5.36-6.53-6.64-8.63-6.94l.13-.13a11,11,0,0,1,1.82-1.37c6.53.27,10,9.26,10,9.26h0c.74.23,8.6,2.67,10.16,2.89h0C1386.65,667.45,1386.89,668.08,1386.89,668.08Z"/><path class="cls-16" d="M1370.16,671.46c-.12.41-.68.69-1.6.76a9.27,9.27,0,0,1-1.49,0h0a33.87,33.87,0,0,1-8.9-2c-.49-.18-1-.33-1.41-.46h-.06a19.75,19.75,0,0,0-3.32-.68c-2.9-.3-4.14.45-4.27.53h0s-2.8.06-6.16-.07h0a49.66,49.66,0,0,1-7.68-.81h0l-1-.25a7.55,7.55,0,0,1-1.72-.69c-3.53-2.12,8.36-3.55,8.36-3.55a6.21,6.21,0,0,0,3.6-1.74l.13-.13.3-.31h0a17.34,17.34,0,0,1,1.44-1.12l.44-.29c2.37-1.6,5.56-3.31,5.56-3.31a13.59,13.59,0,0,0,5.89-3.37,7.52,7.52,0,0,0,.82-1h0l6.58-1.7,4.53,10.88s0,.59.07,1.47C1370.32,666,1370.45,670.51,1370.16,671.46Z"/><path class="cls-4" d="M1368.56,672a12.34,12.34,0,0,1-1.49,0h0a34.29,34.29,0,0,1-8.9-2,7.77,7.77,0,0,0-1.41-.25h-.33a18.92,18.92,0,0,0-3.25-.66c-2.83-.3-4,.44-4.16.52h0s-2.73.06-6-.08h0a49.67,49.67,0,0,1-7.5-.78h0l-1-.25a7.91,7.91,0,0,1,1.29,0h0c.32,0,4,.49,7.49.78h0c2.79.23,5.42.36,6,.07h0a11.16,11.16,0,0,1,4.16-.52c-1.81-5.16-6.68-6.19-8.71-6.4l.12-.14h0a11.27,11.27,0,0,1,1.7-1.38h.51c6,.09,9.54,8.21,9.54,8.21h.4s8.71,2.46,10.27,2.62h0A3.89,3.89,0,0,1,1368.56,672Z"/><path class="cls-17" d="M1368.93,673s-32-.08-34-.41-2.41-2.58-2.41-2.58c-.69-1.45,2.66-1.28,2.66-1.28h0c.34,0,4.11.51,7.69.81h0c2.85.23,5.55.36,6.16.08h0a11.34,11.34,0,0,1,4.26-.54c-1.85-5.29-6.84-6.35-8.93-6.56l.12-.14a11.14,11.14,0,0,1,1.77-1.44c6.53,0,10.37,8.81,10.37,8.81h0c.75.2,8.71,2.3,10.27,2.45h0C1368.67,672.39,1368.93,673,1368.93,673Z"/><path class="cls-4" d="M1390.74,658.73s-.36,1.13-.84,2.55c-.19-.13-6.5-4.33-8.9-7.08a5.26,5.26,0,0,1-.73-1l1.37-.76Z"/><path class="cls-18" d="M1409.18,644.85l-1.14,3.68-10.88,5.93s-2.94,2.08-3.42,3.07a3.13,3.13,0,0,1-1.74,1.37,25.78,25.78,0,0,0-1.51,2.09s-6.46-4.28-8.89-7.08c-.76-.86-1.12-1.58-.78-2,1.43-1.71,10-7.85,10-7.85s5.21-6.85,5.44-6.72,2.85-2.41,4.38-3.84l1.06-1Z"/><path class="cls-16" d="M1461.06,570.86l-10.59,18.74-3.89,7.41-20.7-3,.46-1,1.75-3.67.8-1.69.13-.22,2.29-4.16.13-.17,1.66-2.35,3.35-4.73a2.94,2.94,0,0,0,1.09-.29,2.58,2.58,0,0,0,1.26-1.42c1.18-2.93-1-8.56-1-8.56s7.86-19.17,10.58-8.62a20.07,20.07,0,0,0,10.95,13A13.71,13.71,0,0,0,1461.06,570.86Z"/><path class="cls-18" d="M1425.42,635.29v1.81s6.85,6.55,5.94,11.89,1,12,1,12l6.89-.5-1-24.39Z"/><path class="cls-19" d="M1439.26,660.48l-6.89.5s-1.91-6.65-1-12-5.94-11.89-5.94-11.89v-1.81l12.8.8.06,1.59Z"/><path class="cls-19" d="M1401.18,634.58a56.68,56.68,0,0,0-6,6.55c-2.43,3.22-6.55,7.86-6.55,7.86l-4.94,2.92-2.05,2c-.75-.86-1.12-1.59-.77-2,1.42-1.71,10-7.86,10-7.86s5.22-6.84,5.44-6.72,2.85-2.4,4.39-3.83Z"/><path class="cls-4" d="M1370.23,663.45c-.2.18-.39.36-.57.55,0,0-.1,3.22-2.62-4.34s-8.77-5.74-8.77-5.74a.14.14,0,0,1,0-.14c0-.2.37-.56.82-1h0l6.58-1.69,4.53,10.88S1370.19,662.57,1370.23,663.45Z"/><path class="cls-18" d="M1393.44,620.48l-3.84.1-2.62,3.73s-4.33,4.63-5.64,5.79-9.77,9.11-12.19,13.25c0,0-2.21,1.11-2.21,2.21s-4.23,4.34-4.23,4.34-4.44,3-3.84,3.42c0,0,6.25-1.81,8.77,5.74s2.62,4.33,2.62,4.33a6.2,6.2,0,0,1,1.51-1.19c.61-.22,3.47-4.34,4.36-4.45a4.26,4.26,0,0,0,1.79-.8l5.13-5L1388,649s4.11-4.64,6.55-7.86a58.46,58.46,0,0,1,6-6.55Z"/><path class="cls-4" d="M1374.29,644.86s6.85,3.32,6.55,4S1374.29,644.86,1374.29,644.86Z"/><path class="cls-4" d="M1379.7,644.05s.53,3,3.26,2.86S1379.7,644.05,1379.7,644.05Z"/><path class="cls-4" d="M1370.16,652.45s.4,1.71,2.92,2S1370.16,652.45,1370.16,652.45Z"/><path class="cls-4" d="M1395.8,644.86s3.32,1.37,3.62,3.27S1395.8,644.86,1395.8,644.86Z"/><path class="cls-4" d="M1387.64,651.91c1.29.55,5,4.71,4.91,5.16S1387.64,651.91,1387.64,651.91Z"/><path class="cls-4" d="M1393.53,649a2.2,2.2,0,0,1,2.27.48C1396.73,650.4,1393.53,649,1393.53,649Z"/><path class="cls-16" d="M1417.9,616.05s-12.85-4.16-11.86,0,11.86,6.49,11.86,6.49Z"/><path class="cls-4" d="M1461.06,570.86l-10.59,18.74-3.89,7.41-20.7-3,.46-1a12,12,0,0,1,1.65-1.84,7,7,0,0,1,.1-1.83,3.55,3.55,0,0,1,.93-1.91l.08-.08a12.61,12.61,0,0,0,2.34-4.25c.18-.47.27-.78.27-.78l1.37-1.57,4.44-5,1.26-1.42L1440,573l-4.21,6s-2,3.62-2.12,4.1-3.42,4.94-3.42,4.94-5.64,4.94,4.44,5,16.22-9.71,16.22-9.71l8.5-13.17A14.81,14.81,0,0,0,1461.06,570.86Z"/><polygon class="cls-4" points="1438.29 637.68 1434.34 637.41 1425.42 636.66 1425.42 635.29 1438.22 636.09 1438.29 637.68"/><path class="cls-20" d="M1459.32,569.1s1.82,2,3.63,2.11a24.23,24.23,0,0,0-4.54,7s-5.65,9.51-1.61,12.79,6.4,3.93,6.4,3.93l-1.23,21.9s3,15.05,4.11,16.18.8,3.62.8,3.62-.73,2.52,0,3.42,1,5.55,1,5.55-4.53-2.32-5.47-2.32-3.43-4.74-3.43-4.74l-24.63-1.71-10.84-.9,1.71-30.12s-4.93-8.09,1.82-14.32c0,0-.26-2.61,1.1-3.81s2.63-5,2.63-5l8.26-9.33h0l-4.23,6s-2,3.63-2.12,4.11-3.42,4.94-3.42,4.94-5.64,4.93,4.44,5,16.22-9.78,16.22-9.78Z"/><path class="cls-4" d="M1451.26,608.79a14.87,14.87,0,0,0,7.25,2.67C1462.26,611.56,1451.26,608.79,1451.26,608.79Z"/><path class="cls-4" d="M1455.79,600.66s2.77-1.37,4.33-.23S1455.79,600.66,1455.79,600.66Z"/><path class="cls-4" d="M1454.48,605.23s.18,1.61,4.29,1.81S1454.48,605.23,1454.48,605.23Z"/><path class="cls-16" d="M1462.64,571.21l.86.46a19.15,19.15,0,0,0,5.44,1.16c3.47.3,6.5,3.63,7.1,6.79.15.8.28,1.86.38,3a61.85,61.85,0,0,1-.19,12.32c-.33,2.9-.69,6.16-.49,6.64.3.91-1.66,15-1.66,15s-.45,11.49-3.33,12.55-18.89,1-18.89,1l-6.79-11.78,15.86.75a15.51,15.51,0,0,0,2-8.16c-.15-4.84.31-16,.31-16s-9.59-2-7.64-9.53S1462.64,571.21,1462.64,571.21Z"/><path class="cls-18" d="M1432.42,661s-6.4,2.11-8.9,1-7.93-5.33-7.93-5.33-3.49-3.43-6.81-7.25l-.42-.5h0c-2.88-3.34-5.48-6.84-5.48-8.57a7,7,0,0,0-.27-2.13,8.8,8.8,0,0,0-1.37-2.78,7.8,7.8,0,0,0-1.17-1.33l-10.48-13.51s3-3.22,3-4.1,3.63-5.84,8.26-3.22c2,1.1,6.62,5.18,11.37,9.54,6.53,6,13.22,12.52,13.22,12.52s.47.51,1.16,1.29c1.77,2.06,5,5.92,5.23,7.88C1432.22,647.17,1432.42,661,1432.42,661Z"/><path class="cls-19" d="M1426.64,636.58c-5,4.94-12.43,11.57-17.85,12.82l-.15,0-.28-.53h0l-5.72-10.7-1.45-2.74.08-.07,11-12.64c6.53,6,13.22,12.51,13.22,12.51Z"/><path class="cls-18" d="M1466.49,645.92v2.29s3.17,11.21-2.57,14.37c-2.9,1.61-9.08,2-14.49,2a15.33,15.33,0,0,1-15.14-12.63,8.88,8.88,0,0,1-.06-3.25s-2.57-18.36-3.18-18.48c0,0-14.43,16.53-23.27,18.43l-7.46-14L1412.24,621s8.84-14,11.4-15.34,5.14-4.89,5.14-4.89,10.36-8.63,17.23,6,11.33,26.36,13,30.74c0,0,2.43,4.95,3.93,4.94h0A3.53,3.53,0,0,1,1466.49,645.92Z"/><path class="cls-4" d="M1431,629.34a14.93,14.93,0,0,0,3.09-5.29c1.15-3.32-.34,3.38-2.79,6.05Z"/><path class="cls-21" d="M1417.56,546.18a5,5,0,0,0,1.56,2.62,50.5,50.5,0,0,0,5.05,4.76,5.19,5.19,0,0,1,1.85,2.12,3.42,3.42,0,0,1-.12,1.85,31.58,31.58,0,0,1-2.69,6.67,4.09,4.09,0,0,0-.74,2.27c.18,1.79,2.74,2.8,4.6,4a7.49,7.49,0,0,1,3.76,6.35c-.15,3.72-3.67,6.93-4.5,10.6A17.94,17.94,0,0,0,1433,586c2-.92,3.42-2.53,3.34-4.24a1.19,1.19,0,0,1,.1-.79,1.68,1.68,0,0,1,1-.49c1.82-.45,4.06-.3,5.4-1.32s1-2.82.46-4.25c-1.56-3.91-3.82-7.68-5.19-11.63a8.35,8.35,0,0,1-.58-4.16,13.72,13.72,0,0,1,1.8-4,25.19,25.19,0,0,0,3-9.13,8.5,8.5,0,0,0-.74-5.36,9,9,0,0,0-6-3.95c-5.14-1.13-7.88,1.36-11.9,3C1420.68,541,1417.26,543.31,1417.56,546.18Z"/><path class="cls-4" d="M1426.33,587.09c.42,0,.83-.05,1.25-.08.86-3.64,4.33-6.85,4.48-10.51a7.52,7.52,0,0,0-3.77-6.36c-1.83-1.18-4.41-2.19-4.6-4a4.14,4.14,0,0,1,.75-2.28,31.87,31.87,0,0,0,2.68-6.67,3.21,3.21,0,0,0,.12-1.84,5.2,5.2,0,0,0-1.84-2.13,50.8,50.8,0,0,1-5.05-4.79,5,5,0,0,1-1.56-2.6c-.32-2.88,3.08-5.16,6.11-6.43s5.47-3.12,8.85-3.3c-4-.26-6.56,1.82-10.08,3.3-3,1.27-6.42,3.55-6.11,6.43a5,5,0,0,0,1.56,2.6,50.8,50.8,0,0,0,5.05,4.79,5.15,5.15,0,0,1,1.85,2.13,3.39,3.39,0,0,1-.12,1.84,31.36,31.36,0,0,1-2.69,6.67,4.21,4.21,0,0,0-.74,2.28c.18,1.78,2.74,2.79,4.6,4a7.51,7.51,0,0,1,3.76,6.36C1430.68,580.21,1427.16,583.43,1426.33,587.09Z"/><circle class="cls-4" cx="1437.86" cy="554.14" r="16.1"/><circle class="cls-16" cx="1438.16" cy="553.53" r="16.1"/><path class="cls-21" d="M1428.25,546a6.42,6.42,0,0,1-3.42-2c-.84-1.12-1-3.13.08-4a6.83,6.83,0,0,1,1.94-.84c2.7-1.2,3.16-5.39,5-8a6,6,0,0,1,5.55-2.66,26.05,26.05,0,0,1,3.34,1c2.68.73,5.54.15,8.26.64,5.34,1,9.42,6,11.63,11.64,1,2.59,1.73,5.34,2.54,8a107.49,107.49,0,0,0,4.38,11.91,8.46,8.46,0,0,0,1.5,2.52c1.71,1.75,4.74,1.62,5.79,4,.58,1.3.31,2.89.12,4.36a34.54,34.54,0,0,0,1.26,14.81c1.15,3.67,3.36,7.37,6.74,7.9-1.3,1.81-3.83,1.64-5.43.34s-2.56-3.37-3.63-5.27a34.42,34.42,0,0,0-3.1-4.55,6.54,6.54,0,0,0-2.35-2c-2.3-.93-4.74,1-6.8,2.63-1.69,1.37-3.52,2.65-5.53,2.91a4.45,4.45,0,0,1-4.9-3c-.77-2.63.79-6.16-.92-8.07a12.23,12.23,0,0,0-2.25-1.46c-2.18-1.55-2.45-5.09-2.15-8.08s.91-6.22-.26-8.85a10.44,10.44,0,0,0-2.73-3.42,60.19,60.19,0,0,0-16.54-10.86"/><g class="cls-22"><path d="M1457.84,588.8a4.45,4.45,0,0,1-4.9-3c-.78-2.62.79-6.16-.92-8.07a12.34,12.34,0,0,0-2.25-1.45c-2.19-1.55-2.45-5.09-2.15-8.09s.91-6.22-.26-8.85a10.7,10.7,0,0,0-2.74-3.42A60.19,60.19,0,0,0,1428.09,545l1.9.45a6.32,6.32,0,0,1-3.42-2c-.84-1.11-1-3.13.09-4a6.94,6.94,0,0,1,1.93-.84c2.73-1.19,3.16-5.39,5-8a6.59,6.59,0,0,1,2.31-2.05,6.26,6.26,0,0,0-4.14,2.65c-1.84,2.62-2.29,6.84-5,8a7.07,7.07,0,0,0-1.93.84c-1.08.92-1,2.94-.09,4.05a6.65,6.65,0,0,0,3.42,1.95l-1.89-.45a60.36,60.36,0,0,1,16.53,10.9,10.54,10.54,0,0,1,2.73,3.42c1.18,2.64.56,5.85.26,8.85s0,6.54,2.15,8.08a11.69,11.69,0,0,1,2.26,1.47c1.7,1.91.14,5.44.91,8.06a4.45,4.45,0,0,0,4.9,3,6.86,6.86,0,0,0,2.2-.68Z"/><path d="M1479.24,595.07c-1.6-1.29-2.55-3.37-3.62-5.26a32.93,32.93,0,0,0-3.11-4.55,6.2,6.2,0,0,0-2.35-2,4.26,4.26,0,0,0-3.6.39,3.45,3.45,0,0,1,1.77.22,6.36,6.36,0,0,1,2.35,2,33.77,33.77,0,0,1,3.1,4.55c1.07,1.89,2,4,3.63,5.27a4,4,0,0,0,4.72.37A4.47,4.47,0,0,1,1479.24,595.07Z"/></g><polygon class="cls-12" points="1714.58 654.03 1701.47 654.22 1674.38 605 1669.86 596.78 1673.33 575.96 1675.99 580.99 1714.58 654.03"/><polygon class="cls-12" points="1596.02 593.66 1590.62 601.76 1574.48 579.94 1567.1 569.95 1571.54 563.97 1574.93 568.09 1596.02 593.66"/><path class="cls-4" d="M1574.93,568.08c0,.42,0,.85.07,1.28l-.52,10.58-7.38-10,4.43-6Z"/><polygon class="cls-4" points="1675.99 581.16 1674.38 605.16 1669.86 596.94 1673.33 576.12 1675.99 581.16"/><path class="cls-12" d="M1559.61,583.34s-6.47-48.35,17.11-55.58a5.93,5.93,0,0,1,.93-.2c5.42-.65,56-6.48,82.23.45,0,0,17.93,2.7,17.74,12.32l-8,117.81h-12.91l4.24-77.88s6.15-33.94-4-36.28-56.68-6.16-73.07-1.54c0,0-11.95-2.7-10,26.8l-.78,15.81Z"/><path class="cls-6" d="M1598.65,597.8a7.43,7.43,0,0,0-3-6.65c-3.61-2.74-14.75-8.67-14.75-8.67l-3.61.29-10.84,26.89.72,57.11,19.52,24.15Z"/><path class="cls-4" d="M1598.65,597.8a7.43,7.43,0,0,0-3-6.65c-3.61-2.74-14.75-8.67-14.75-8.67l-3.61.29-10.84,26.89.72,57.11,19.52,24.15Z"/><path class="cls-6" d="M1521.24,657.45l.38-58.25s-1.72-22.61,11.79-23c0,0,31.85.23,45.69,4.73a3.08,3.08,0,0,1,2,3.88,3,3,0,0,1-.26.58c-2.72,4.8-7.4,17.5-9.64,50.06v34.92Z"/><polygon class="cls-6" points="1588.64 695.09 1530.32 693.73 1530.27 693.73 1501.6 693.06 1504.92 654.74 1520.83 655.33 1571.44 666.61 1586.91 690.89 1588.64 695.09"/><polygon class="cls-4" points="1588.64 695.09 1530.32 693.73 1530.27 693.73 1501.6 693.06 1504.92 654.74 1520.83 655.33 1571.44 666.61 1586.91 690.89 1588.64 695.09"/><polygon class="cls-6" points="1588.64 695.12 1530.32 693.75 1529.36 668.08 1571.44 666.63 1586.91 690.92 1588.64 695.12"/><path class="cls-23" d="M1530.27,693.75l-28.67-.68,3.33-38.33s9,14.32,24.43,13.31Z"/><path class="cls-12" d="M1736,724.75c-1.16,11-9,9.25-9,9.25l-1.46-.13-14.45-1.31.58-17.06a62.56,62.56,0,0,1,14.65.88C1731.76,717.5,1736.49,719.87,1736,724.75Z"/><path class="cls-24" d="M1535.29,558.19s-26.6,12.13-28.53,15.61-15.06,18.48-15.06,18.48l5.69,9.58,26.31-20.92Z"/><path class="cls-25" d="M1515,620.23l-12.32-1.84-9.06,10.69s-12.63,6.26-14.1,9-6.06,10.76-8.09,10.82-3.92,3-3.94,4.19-7.71,14.61-9.62,15.38-5.22,5.14-5.14,6-7.18,9.46-7.18,9.46-12.32,19.28-14.16,19.9-8.93,13.06-10.73,14.54-6.84,2.81-6.23,4,13,18.13,12.25,22.93c0,0,9.22-7.29,9.59-9.54s11.77-14.08,11.77-14.08l59.75-62.06,11.52-39.12Z"/><path class="cls-4" d="M1548.1,640.17s2.46,28.21-5.69,32.48-13.68,3.77-15.25,5.66-11.12,3.54-12.13,5.25-27.76,16.67-27.76,16.67S1469,711,1466.1,713.36s-18.48,9.21-21.14,12.44-19.38,13.82-19.38,13.82-4.89-15.06-10.52-16.38c0,0,13.53-2.66,14.33-4.79s4.84-4.41,4.84-4.41,19.25-11.17,19.84-13.69,5.34-6.1,5.34-6.1,7.65-10.45,10.46-11.46,19.49-18.13,19.49-18.13,11.34-6,12.6-8,22.75-13.14,22.75-13.14l-24.5-30.43,7.75-2.38,23,6.16,4.11,7.44Z"/><path class="cls-25" d="M1549.48,640.58s2.47,28.21-5.68,32.48-13.68,3.78-15.26,5.66-11.11,3.55-12.13,5.25-27.75,16.67-27.75,16.67-18.31,10.78-21.18,13.11S1449,723,1446.34,726.2,1427,740,1427,740s-4.91-15-10.52-16.38c0,0,13.54-2.66,14.33-4.79s4.84-4.43,4.84-4.43,19.25-11.16,19.85-13.68,5.34-6.11,5.34-6.11,7.65-10.46,10.46-11.45S1490.74,665,1490.74,665s11.34-6,12.6-8-9.72-28.06-9.72-28.06l8-15.53,7.74-2.38,23,6.16,4.11,7.44Z"/><path class="cls-26" d="M1576.72,566.74l-18.72,13s-22.61-8.39-13.68-11.76c5.86-2.21,8-13.62,8.72-21.22.39-3.95.41-6.84.41-6.84s25.52,0,20.83,8.1a12.79,12.79,0,0,0-1.56,7.37A25.4,25.4,0,0,0,1576.72,566.74Z"/><path class="cls-4" d="M1572.68,555.4a18,18,0,0,1-19.69-8.6c.4-4,.42-6.84.42-6.84s25.52,0,20.83,8.1A12.78,12.78,0,0,0,1572.68,555.4Z"/><path class="cls-26" d="M1585.91,542.6a17.89,17.89,0,1,1,.41-1.64A16.37,16.37,0,0,1,1585.91,542.6Z"/><path class="cls-4" d="M1550,559.45s-3.14,0-3.34,4.47-3.37,4.14-3.37,4.14l-14.76,15.32s-6.62,15.87-6.57,16.51-1.49,3.32-1.14,4.68-.14,5.47-1.37,5.11a2.92,2.92,0,0,0-3.26,2.92c0,2-10.37,8.22-9.94,9.72s29.6,17,29.6,17l12.14,9.41,11.33-21.11,9.45-29.1,5.25-16.89,4.34-4.86-2-11.4s-1.79-4.93-3.26-4.24-6.84,6.5-11.89,7-8,1.12-9.18,0S1543.67,566.22,1550,559.45Z"/><path class="cls-4" d="M1551,558s-3.73.11-3.94,4.57-3.37,4.15-3.37,4.15L1528.91,582s-6.62,15.86-6.56,16.51-1.5,3.32-1.15,4.68-.13,5.47-1.37,5.11a2.92,2.92,0,0,0-3.27,2.92c0,2-10.36,8.21-9.93,9.72s29.59,17,29.59,17l12.15,9.41,11.33-21.12,9.45-29.1,5.29-16.88,4.34-4.86-2-11.4s-1.79-4.94-3.25-4.24-6.85,6.5-11.89,7-8,1.13-9.18,0S1552,564.35,1551,558Z"/><path class="cls-27" d="M1550.85,558.42s-3.75.11-3.95,4.57-3.37,4.15-3.37,4.15l-14.76,15.32s-6.62,15.86-6.56,16.5-1.5,3.33-1.15,4.69-.13,5.47-1.37,5.11a2.91,2.91,0,0,0-3.26,2.92c0,2-10.36,8.21-9.93,9.72s29.59,17,29.59,17l12.14,9.41,11.33-21.12,9.46-29.09,5.29-16.89,4.34-4.86-2-11.4s-1.79-4.94-3.25-4.24-6.85,6.5-11.89,7-8,1.13-9.19,0S1551.85,564.85,1550.85,558.42Z"/><path class="cls-4" d="M1551,558.4a27.64,27.64,0,0,1-5.17-1c-1.81-.69-8.49-.15-8.49-.15s-7.68.47-9.1,2.69-7.53,14.21-9.62,15-14.48,20.69-17,22.44-13.44,23.12-13.44,23.12,8.06-3.8,11.75,1.77a4.92,4.92,0,0,1,.28.45c3.55,6.21,6.84,1.42,6.84,1.42s11.74-10.69,12.68-12.55,7.88-15.87,9.66-19.73,16.91-23,17.42-23.82S1551,558.4,1551,558.4Z"/><path class="cls-24" d="M1551,558.4a42.28,42.28,0,0,1-6.09-1.29c-1.81-.68-8.5-.15-8.5-.15s-7.68.48-9.09,2.69-7.53,14.22-9.63,15-14.47,20.69-17,22.45-13.45,23.12-13.45,23.12,8.07-3.8,11.76,1.77c.09.13.19.28.28.44,3.54,6.21,6.84,1.42,6.84,1.42s11.74-10.69,12.68-12.55,7.87-15.86,9.66-19.73,16.91-23,17.42-23.82S1551,558.4,1551,558.4Z"/><path class="cls-4" d="M1573.44,559.11s9.71,7,11,9.18,14,8.82,14,8.82,4.79,8.84,4.07,12-1.48,6.21-.85,7.91,1,1.69.08,3.92-.6,2.46.68,4.47-19.16,8.21-19.16,8.21-2.74.43-3,1.74-16,35.8-18.24,41.29-9.43,27.37-15.43,27.68-1.37.08-1.37.08.92-17.79-2.77-23.95,3.6-29.93,3.6-29.93S1570.21,560.66,1573.44,559.11Z"/><path class="cls-24" d="M1573.44,559.11s10.63,7.33,11.88,9.45,14,8.82,14,8.82,4.79,8.84,4.07,12-1.48,6.22-.86,7.92,1,1.68.09,3.92-.61,2.45.68,4.47-19.16,8.22-19.16,8.22-2.74.43-3,1.73-16,35.82-18.29,41.29-9.43,27.34-15.43,27.67-1.37.08-1.37.08.92-17.8-2.77-24,3.66-29.94,3.66-29.94S1570.21,560.66,1573.44,559.11Z"/><path class="cls-26" d="M1585.78,629.56s-21.53,4.79-22.2,6.16-18.48,12-9.14,17.11,24-7.22,24-7.22l11.64-7.43Z"/><path class="cls-24" d="M1595.4,600.85c.35.11,7.85,4.86,7.85,4.86s3.53,11.73,4.3,14.61,2.74,8,2.61,8.94,2.14,6.29-1.48,8.73-7.4,2-9.14,3.68-13.72,6.84-15.23,7.26,7.47-17.87-3.62-20.69c0,0,7.94.75,8.35-.64s.87-5-.61-6.34-7.9-7.64-7.9-7.64Z"/><path class="cls-4" d="M1586.3,541a5,5,0,0,1-2.14-2.25c-.73-1.42-1.46-3.16-3-3.52-.88-.22-1.94,0-2.59-.58a2.73,2.73,0,0,1-.5-2,8.09,8.09,0,0,0-1.31-4.53,4.72,4.72,0,0,0-4.06-2.12c-2.22.15-4.16,2.18-6.35,1.77-1-.17-1.89-.82-2.83-.57a2.75,2.75,0,0,0-1,.56,14.53,14.53,0,0,0-4.56,6.16c-.91,2.3-1.21,4.79-2.29,7-.43.88-1.26,1.82-2.19,1.54-1.45-.43-.68-2.26-1.49-3.06a2.2,2.2,0,0,0-1.14-.46,17.93,17.93,0,1,1,35.75-2.9A17.67,17.67,0,0,1,1586.3,541Z"/><path class="cls-28" d="M1553.61,542c.93.27,1.76-.69,2.19-1.54,1.08-2.22,1.37-4.74,2.29-7a14.47,14.47,0,0,1,4.57-6.16,2.73,2.73,0,0,1,1-.57c.95-.24,1.88.4,2.83.58,2.19.41,4.11-1.62,6.36-1.77a4.72,4.72,0,0,1,4.05,2.12,8,8,0,0,1,1.31,4.53,2.74,2.74,0,0,0,.51,2c.64.63,1.7.37,2.58.57,1.56.37,2.29,2.1,3,3.53s2.22,2.91,3.71,2.29c.44-.18.81-.54,1.26-.68.85-.28,1.85.18,2.61-.29.95-.59.68-2.05.06-3s-1.37-2-1-3.1a4.18,4.18,0,0,1,1-1.33,6.58,6.58,0,0,0-.39-9c-.61-.55-1.33-1-1.92-1.54-1.2-1.12-1.84-2.69-2.74-4.1a12.53,12.53,0,0,0-4.36-4.11,6.17,6.17,0,0,0-2.53-.88,21.33,21.33,0,0,0-3.7.49c-4.14.42-7.71-2.86-11.77-3.79a3.28,3.28,0,0,0-2.78.33c-.81.63-1,1.76-1.37,2.73a8.25,8.25,0,0,1-4.88,4.37c-2.42.93-5.48,1.42-6.48,3.8-.88,2.05.26,4.41-.2,6.57-.36,1.69-1.62,3-2.6,4.43s-1.7,3.34-.85,4.85a4.24,4.24,0,0,0,2.22,1.73c1.13.47,3.66.22,4.43,1S1552.16,541.58,1553.61,542Z"/><path class="cls-4" d="M1594.15,621.42c.41,0,7.9,1.37,9.65,3.89S1594.15,621.42,1594.15,621.42Z"/><path class="cls-4" d="M1590.41,613.44s8.16,1.85,9.1,2.63S1590.41,613.44,1590.41,613.44Z"/><path class="cls-4" d="M1593.09,593.3s6,2.63,6.69,4.25S1593.09,593.3,1593.09,593.3Z"/><path class="cls-4" d="M1516.39,661.35c.62.44,15.36,11.37,14.16,11.77S1516.39,661.35,1516.39,661.35Z"/><path class="cls-4" d="M1516.28,668.19s8.63,4.18,7.19,5.92S1516.28,668.19,1516.28,668.19Z"/><g class="cls-22"><path d="M1549.37,526c.39-1.86-.39-3.86-.07-5.68v0c-.86,2,.22,4.33-.18,6.47A6,6,0,0,0,1549.37,526Z"/><path d="M1591.25,532.5a1.77,1.77,0,0,0-.09.56,7.68,7.68,0,0,1,.85-1,6,6,0,0,0,1.45-2.83,6.07,6.07,0,0,1-1.17,1.91A4.17,4.17,0,0,0,1591.25,532.5Z"/><path d="M1592.18,538.64c-.76.46-1.77,0-2.61.28-.46.16-.82.52-1.27.69-1.48.61-3-.87-3.71-2.3s-1.46-3.16-3-3.53c-.88-.2-2,.06-2.59-.57a2.77,2.77,0,0,1-.51-2,8,8,0,0,0-1.3-4.54,4.77,4.77,0,0,0-4.06-2.12c-2.22.15-4.16,2.18-6.35,1.78-1-.19-1.89-.83-2.84-.58a3,3,0,0,0-1,.56,14.61,14.61,0,0,0-4.57,6.16,20.65,20.65,0,0,0-.68,2c.11-.36.24-.73.38-1.08a14.41,14.41,0,0,1,4.57-6.16,2.81,2.81,0,0,1,1-.57c1-.25,1.88.4,2.84.57,2.19.41,4.1-1.62,6.35-1.77a4.78,4.78,0,0,1,4.06,2.12,8,8,0,0,1,1.3,4.53,2.71,2.71,0,0,0,.51,2c.64.63,1.7.37,2.59.58,1.56.37,2.28,2.1,3,3.52s2.23,2.92,3.71,2.3a14.18,14.18,0,0,1,1.27-.68c.84-.28,1.85.17,2.6-.29a1.35,1.35,0,0,0,.61-1.23A1.26,1.26,0,0,1,1592.18,538.64Z"/><path d="M1556.07,539.53c-.42.87-1.25,1.8-2.19,1.53-1.45-.43-.68-2.25-1.48-3s-3.3-.51-4.44-1a4.26,4.26,0,0,1-2.21-1.73,3.28,3.28,0,0,1-.29-2.32,3.78,3.78,0,0,0,0,3.25,4.33,4.33,0,0,0,2.22,1.73c1.13.46,3.67.22,4.43,1s0,2.63,1.49,3.05c.93.28,1.76-.68,2.19-1.53a18,18,0,0,0,1.06-3A14.78,14.78,0,0,1,1556.07,539.53Z"/></g><path class="cls-4" d="M1525.54,574s-5.9,8.79-5.19,10.64S1525.54,574,1525.54,574Z"/><path class="cls-4" d="M1526.4,602.61a16.3,16.3,0,0,1,4.27,2.53C1531.81,606.36,1526.4,602.61,1526.4,602.61Z"/><path class="cls-4" d="M1533.27,611.57s6.68,1.62,7.25,2.66S1533.27,611.57,1533.27,611.57Z"/><path class="cls-4" d="M1534.43,620.71s6,.8,6.73,3.14S1534.43,620.71,1534.43,620.71Z"/><path class="cls-4" d="M1736,724.75c-1.16,11-9,9.25-9,9.25l-1.46-.13a14.67,14.67,0,0,1-2.3-8.25,13.89,13.89,0,0,1,3.08-9.24C1731.76,717.5,1736.49,719.87,1736,724.75Z"/><path class="cls-14" d="M1512.54,580.74c-13.2,0-23.9,14.46-23.9,32.3s10.7,32.29,23.9,32.29,23.91-14.47,23.91-32.29S1525.75,580.74,1512.54,580.74Zm-3.37,57.84c-10.06,0-18.22-10.49-18.22-23.43s8.16-23.42,18.22-23.42,18.21,10.49,18.21,23.42S1519.23,638.58,1509.17,638.58Z"/><polygon class="cls-14" points="1513.7 622.97 1524.88 633.95 1528.92 624.12 1512.73 614.67 1513.7 622.97"/><polygon class="cls-6" points="1530.18 514.2 1539.92 515.39 1543.53 519.68 1538.06 544.32 1526.42 584.01 1518.78 611.26 1513.42 627.81 1509.99 649.71 1506.57 664.77 1496.31 675.03 1475.43 650.4 1472.01 642.18 1463.8 625.42 1485.01 615.49 1508.28 613.44 1519.23 585.38 1528.13 552.87 1530.18 514.2"/><polyline class="cls-6" points="1333.39 631.94 1320.66 738.75 1480.87 732 1462.36 679.56 1431.52 659.51 1502.08 660.66 1502.46 631.37 1473.93 625.19 1416.48 620.57 1373.29 618.64 1332.04 632.13"/><polyline class="cls-4" points="1333.39 631.94 1320.66 738.75 1480.87 732 1462.36 679.56 1431.52 659.51 1502.08 660.66 1502.46 631.37 1473.93 625.19 1416.48 620.57 1373.29 618.64 1332.04 632.13"/><path class="cls-14" d="M1552.13,738.07c0,26.54-8.83,50.7-33.29,48.06-30.86-.68-33.29-21.52-33.29-48.06s14.9-46.29,33.29-46.29S1552.13,711.53,1552.13,738.07Z"/><path class="cls-4" d="M1552.32,738.12c0-20.53-8.93-37-21.5-43.42-16.14,3.07-28.54,21.63-28.54,45.86,0,21.75,1.63,39.69,19.21,45.8C1544.09,787.17,1552.32,763.75,1552.32,738.12Z"/><polygon class="cls-6" points="1583.57 696.42 1574.16 707.2 1591.1 704.29 1603.76 692.66 1615.05 670.07 1630.96 660.32 1669.97 665.62 1706.07 666.99 1719.4 655.16 1704.53 653.13 1689.48 652.79 1651.66 651.94 1606.66 650.74 1597.43 675.38 1590.41 692.32 1583.57 696.42"/><path class="cls-6" d="M1713,740.37c-.77,1.15-26,5-26,5l-69.81,12.68H1497.33l-14.07-10.18-7.39,1.32-.3,0-98.74,17.53-1.61-.23-26.91-3.84-140.56-20,1.58-20.4.93-12,1.92-25,1.37-6.55,12.52-1.15,5.84-.54,91.22-8.37,11.93-1.09,6.69-.61,65.16-8.9,95.17,2.31V631l37.85-115.66c8.29,1.36,8.1,6.94,8.1,6.94l-31.58,108.92v66.9c65.73,6.72,67.88-7.78,78.41-2.89l12.73-40.52H1719.4C1723.87,660.55,1713,740.37,1713,740.37Z"/><polygon class="cls-6" points="1435.62 679.64 1471.09 755.79 1483.04 759.65 1485.94 747.31 1472.63 705.09 1458.95 680.61 1435.62 679.64"/><polygon class="cls-29" points="1435.62 679.64 1471.09 755.79 1483.04 759.65 1485.94 747.31 1472.63 705.09 1458.95 680.61 1435.62 679.64"/><ellipse class="cls-14" cx="1412.53" cy="763.5" rx="64.24" ry="72.87"/><path class="cls-4" d="M1435.45,695.18c-33.62,2.34-60.23,34-60.23,72.72,0,31.22,17.31,57.84,41.62,68.22,33.62-2.34,60.23-34,60.23-72.72C1477.07,732.18,1459.77,705.55,1435.45,695.18Z"/><path class="cls-6" d="M1240.33,636.07l-3.18,15L1227.42,697l-41.84-4s-2.51-7.71,4.05-10.6c0,0,2.15-26.1,9.88-34.32a7.77,7.77,0,0,1,3-2.11Z"/><path class="cls-23" d="M1237.15,651.08,1227.42,697l-41.84-4s-2.51-7.71,4.05-10.6c0,0,2.15-26.1,9.88-34.32Z"/><path class="cls-6" d="M1334.61,640.13c5.39,9-7.69,92.52-7.69,92.52l-102.78-17,3.66-73.07c2.12-13.1,9.83-14.64,9.83-14.64,36.28-18.32,119.53-22.18,119.53-22.18,76,2.89,145.16,25.26,145.16,25.26C1416,617.76,1334.61,640.13,1334.61,640.13Z"/><path class="cls-4" d="M1326.92,732.65l-102.78-17,3.66-73.07c2.12-13.1,9.83-14.64,9.83-14.64s75-7.14,97,12.15C1340,649.18,1326.92,732.65,1326.92,732.65Z"/><path class="cls-6" d="M1316,727.84l-85.92-14.48,3.05-62.34c1.77-11.18,8.21-12.5,8.21-12.5s62.7-6.09,81.08,10.36C1327,656.61,1316,727.84,1316,727.84Z"/><ellipse class="cls-4" cx="1308.96" cy="676.55" rx="11.76" ry="21.4"/><ellipse class="cls-12" cx="1308.96" cy="675.98" rx="11.76" ry="21.4"/><path class="cls-13" d="M1310.49,660.17s-4.79.77-2.31,7.13a46,46,0,0,1,2.89,9.64s4.79,2.51,4.63-5.79S1310.49,660.17,1310.49,660.17Z"/><ellipse class="cls-4" cx="1245.92" cy="668.07" rx="10.99" ry="20"/><ellipse class="cls-12" cx="1245.92" cy="667.49" rx="10.99" ry="20"/><path class="cls-13" d="M1247.46,651.68s-4.79.78-2.31,7.14a46,46,0,0,1,2.89,9.64s4.79,2.5,4.63-5.79S1247.46,651.68,1247.46,651.68Z"/><path class="cls-4" d="M1295.44,658.43c-.77,7.91-4.63,66.51-4.63,66.51l-6.54-1.09-3.64-.6-4.84-.81-.59-.1-19.09-3.18,3.77-62.17a7.79,7.79,0,0,1,7.9-7.28h.58c1.32.12,2.74.26,4.23.42l1.89.22c1.84.22,3.73.48,5.59.79.94.16,1.87.33,2.8.51,1.55.31,3.05.65,4.44,1,.94.26,1.84.54,2.66.85C1293.42,654.78,1295.67,656.39,1295.44,658.43Z"/><path class="cls-6" d="M1267.78,649.71,1264,719.52l-2.12-.19,3.71-69.41A7.78,7.78,0,0,1,1267.78,649.71Z"/><path class="cls-6" d="M1274.48,650.56,1271,721.1h-3.27l4.88-70.77C1273.21,650.41,1273.84,650.47,1274.48,650.56Z"/><path class="cls-6" d="M1283.19,651.68l-5.52,70.79h-2.13v-.09l4.84-71.18C1281.33,651.33,1282.26,651.5,1283.19,651.68Z"/><path class="cls-6" d="M1289.74,653.53l-5.3,70.32V724l-3.42-.39v-.34l6.21-70.57A24.51,24.51,0,0,1,1289.74,653.53Z"/><path class="cls-4" d="M1211.56,708s-7.08-36.58,9.11-38.46,69.4,2.05,67.81,17.06-3.31,37.88-3.31,37.88l-11-2.46s8.21-34.41-4.63-35.71-44.39-4.92-44.39-4.92-8.53-1.44-3.61,28.75Z"/><path class="cls-12" d="M1211.56,711.45s-7.08-38.89,9.11-40.77,69.4,2.05,67.81,17.06-3.31,37.88-3.31,37.88l-11-2.46s8.21-34.41-4.63-35.71-44.41-4.89-44.41-4.89-8.53.87-3.61,31.1Z"/><path class="cls-6" d="M1497.33,760.11l-14.26-.19c-10.41-45.85-27.57-74.41-27.57-74.41-5.81-3.09-69-2.67-69-2.67-6.55,1.16-8.29,22-8.29,22s5.6,4.79.2,7.91c-2.41,1.36-10.35,1.63-19.5,1.16-11.34-.59-24.57-2.31-31.4-4.44-12.32-3.86-2.51-11-2.51-11s1.74-2.32,2.9-15.06a51.38,51.38,0,0,1,7-21c.54-.89.87-1.37.87-1.37a6.63,6.63,0,0,1,2.25-1.41c16.35-6.85,96.45-.33,96.45-.33l29.69,9.45c.83.33,2.09,2.42,3.65,5.77C1477.18,694.62,1497.33,760.11,1497.33,760.11Z"/><path class="cls-4" d="M1497.33,760.11l-14.26-.19c-10.41-45.85-27.57-74.41-27.57-74.41-5.81-3.09-69-2.67-69-2.67-6.55,1.16-8.29,22-8.29,22s5.6,4.79.2,7.91c-2.41,1.36-10.35,1.63-19.5,1.16-11.34-.59-24.57-2.31-31.4-4.44-12.32-3.86-2.51-11-2.51-11s1.74-2.32,2.9-15.06a51.38,51.38,0,0,1,7-21c.54-.89.87-1.37.87-1.37a6.63,6.63,0,0,1,2.25-1.41c16.35-6.85,96.45-.33,96.45-.33l29.69,9.45c.83.33,2.09,2.42,3.65,5.77C1477.18,694.62,1497.33,760.11,1497.33,760.11Z"/><path class="cls-6" d="M1467.8,674.23c-27.37-10.65-102.93-5-102.93-5-8-6.84-23.11-7.31-30-7.12.54-.89.87-1.37.87-1.37a6.63,6.63,0,0,1,2.25-1.41c16.35-6.85,96.45-.33,96.45-.33l29.69,9.45C1465,668.79,1466.24,670.88,1467.8,674.23Z"/><path class="cls-6" d="M1369.3,672.12c-1.73,6-8.85,29.89-8.85,29.89a102.39,102.39,0,0,0-1.56,11.57c-11.35-.59-24.57-2.31-31.4-4.44-12.32-3.86-2.51-11-2.51-11s1.73-2.32,2.89-15.06a51.28,51.28,0,0,1,7.91-22.37,6.74,6.74,0,0,1,2.25-1.41C1348.73,661.86,1370.62,667.6,1369.3,672.12Z"/><path class="cls-23" d="M1369.3,672.12c-1.73,6-8.85,29.89-8.85,29.89a102.39,102.39,0,0,0-1.56,11.57c-11.35-.59-24.57-2.31-31.4-4.44-12.32-3.86-2.51-11-2.51-11s1.73-2.32,2.89-15.06a51.28,51.28,0,0,1,7.91-22.37,6.74,6.74,0,0,1,2.25-1.41C1348.73,661.86,1370.62,667.6,1369.3,672.12Z"/><path class="cls-6" d="M1387,520.3c-7.67,1.16-11,17.06-11,17.06l-20.82,69.55,147.18,24.15,37.6-115.67C1505.36,499.77,1387,520.3,1387,520.3Zm118.4,74.19c0,.13-.87,6.78-6.51,7.36l-95.43-3.73-19.57-.77-6.56-.12h-.47c0-.13-7.23,1.17-6.08-4.92,0,0,8-57.84,22-62.17,0,0,1.45-.31,4-.79,4-.76,10.7-2,18.59-3,3.53-.49,7.3-.95,11.18-1.37,10.6-1.08,22-1.66,31.43-.75,0,0,70.26-6.51,65.2,9.11,0,0-14.73,56.55-17.77,61.19Z"/><path class="cls-6" d="M1377.29,597.23h-.46s-7.24,1.3-6.08-4.79c0,0,8-57.83,22-62.17,0,0,1.46-.31,4-.79C1391.65,539.42,1375.31,573.44,1377.29,597.23Z"/><path class="cls-4" d="M1377.29,597.23h-.46s-7.24,1.3-6.08-4.79c0,0,8-57.83,22-62.17,0,0,1.46-.31,4-.79C1391.65,539.42,1375.31,573.44,1377.29,597.23Z"/><path class="cls-4" d="M1390.25,739.74a9.3,9.3,0,0,1-8.72,4.89l-3-.13-27.79-1.2-10-.43-9.25-.76-122.19-19.85.93-12,14,2,5.82.84,86.26,12.32,11.36,1.67,5.51.21,23.33.69h25.25a5,5,0,0,1,3.73.21,9.08,9.08,0,0,1,4.89,4.65A7.6,7.6,0,0,1,1390.25,739.74Z"/><path class="cls-12" d="M1390.25,740.57a9.31,9.31,0,0,1-8.72,4.88l-40.76-1.76-9.25-.77-130.31-21.14-10.27-1.66-5.55-.93c-11-2.32-7.71-13.31-7.71-13.31.77-5,19.66-9.64,25.83-9.44,4.15.13,4.72,6.51,4.65,10.69a27.43,27.43,0,0,1-.22,3.57l6.1.88,119.22,17,48.59-.35a9.33,9.33,0,0,1,8.62,5.36A7.63,7.63,0,0,1,1390.25,740.57Z"/><path class="cls-4" d="M1194.64,703.74s5.21,6.36,13.3,7.32C1207.94,711.06,1204.67,703.93,1194.64,703.74Z"/><path class="cls-4" d="M1193.29,721.67s-17.16-.39-17.16,8.9,10.8,10.8,10.8,10.8l153.27,29.48,43.57.77s15.22-12.14-.59-17.54l-43.94,1.13L1193.1,728.42S1197,723.21,1193.29,721.67Z"/><path class="cls-12" d="M1383.77,772.75,1340.2,772l-136.28-26.23-10-1.92-7-1.37s-10.8-1.55-10.8-10.8c0-6.64,8.85-8.32,13.84-8.73,2-.16,3.32-.13,3.32-.13,3.66,1.54-.19,6.74-.19,6.74l5.32,1,140.82,25.84,44-1.16C1399,760.58,1383.77,772.75,1383.77,772.75Z"/><path class="cls-12" d="M1206.42,714.15l9.06-4,4.63-.2-.39,39L1205.46,746l-6-3.85-2.89-16.2s1.16-6.75,1.73-7.32S1206.42,714.15,1206.42,714.15Z"/><path class="cls-4" d="M1206.42,714.15l9.06-4,4.63-.2-.39,39L1205.46,746l-6-3.85-2.89-16.2s1.16-6.75,1.73-7.32S1206.42,714.15,1206.42,714.15Z"/><path class="cls-4" d="M1203.92,745.76l.16.2-10-1.93-.12-.19c-5.28-8.52-5.74-15.42-4-20.9,2-.16,3.32-.13,3.32-.13,3.66,1.54-.19,6.74-.19,6.74l5.32,1C1198.06,738.17,1202.94,744.56,1203.92,745.76Z"/><path class="cls-4" d="M1218.74,709.94q-2.54,1-4.7,2c-6.49,3.12-10.49,6.63-12.83,10.18l-10.27-1.66c4.45-9.23,15.06-13.45,15.06-13.45l2.15.49Z"/><path class="cls-12" d="M1207.15,707s-28.14,11.18-12,37l10,1.93s-19.85-22.75,14.64-36.06Z"/><polygon class="cls-12" points="1274.26 719.55 1284.67 719.16 1282.93 760.99 1266.16 757.91 1259.03 754.45 1255.75 746.15 1253.44 737.86 1259.03 730.34 1265.39 726.1 1274.26 719.55"/><polygon class="cls-4" points="1274.26 719.55 1284.67 719.16 1282.93 760.99 1266.16 757.91 1259.03 754.45 1255.75 746.15 1253.44 737.86 1259.03 730.34 1265.39 726.1 1274.26 719.55"/><ellipse class="cls-12" cx="1273.11" cy="741.14" rx="5.01" ry="8.48"/><path class="cls-12" d="M1236.72,764.8c-1.45-7.37-7.09-9-7.09-9s-10.84-3.17-11.13,8.86c0,0,.14,7.38,5.06,9.69l.29,8.21s.43,7.67-3.91,6.94-3.76-7.52-3.76-7.52-2.31-7.23-8-3.47c0,0-1.3,4.05,1.6,6.07,1.68,1.18,1.74,3.59,1.5,5.4a7.84,7.84,0,0,0,1.81,6.28,7.28,7.28,0,0,0,6.95,2.49,10.86,10.86,0,0,0,6-3.46,15.84,15.84,0,0,0,4.17-10.54l.21-10.58S1238.16,772.18,1236.72,764.8Zm-8.9,7.45a6.16,6.16,0,1,1,6.16-6.16h0a6.17,6.17,0,0,1-6.15,6.13Z"/><path class="cls-14" d="M1225.1,752.65a2.74,2.74,0,0,0-1.48,3.58l.11.22c1.13,2.13,2.49,4.88,2.36,5.61-.21,1.22,2.54.21,2.89-.08s5.36,0,5.64-3.42a5.85,5.85,0,0,0-2.67-5.21l1.16-7.45-6.84-.57.07,6.79Z"/><path class="cls-4" d="M1225.1,752.65a2.74,2.74,0,0,0-1.48,3.58l.11.22c1.13,2.13,2.49,4.88,2.36,5.61-.21,1.22,2.54.21,2.89-.08s5.36,0,5.64-3.42a5.85,5.85,0,0,0-2.67-5.21l1.16-7.45-6.84-.57.07,6.79Z"/><path class="cls-4" d="M1227.18,752.51s2.31,8,1.3,8.22S1227.18,752.51,1227.18,752.51Z"/><path class="cls-4" d="M1229.78,750.63s2.31,8,1.3,8.22S1229.78,750.63,1229.78,750.63Z"/><path class="cls-14" d="M1257.49,726.63l-3.86,23.91s-4.79-.65-7.4-1.22a5.34,5.34,0,0,1-1.66-.51c-.13-.14-.41-.13-.79,0h0c-1.29.26-3.57,1.32-4,.42a.46.46,0,0,0-.13-.18h0c-.45-.49-1.33-.14-2.17,0a1.86,1.86,0,0,1-1.37-.18c-.69-.48-2.16.29-3.34.54-.74.17-1.36.13-1.68-.54a1.56,1.56,0,0,0-1.15-.82h0c-1.11-.28-2.66-.09-3.56-.28a.82.82,0,0,1-.68-.45c-.18-.52-1.17-.76-2.23-1-1.3-.24-2.69-.43-2.79-.95,0-.18-.16-.25-.35-.26a11.83,11.83,0,0,0-2.11.52h0c-.57.15-1.06.15-1.19-.26s-.82-.41-1.58-.22-1.28.39-1.8.51-.81.12-.87-.1c-.19-.77-2.69,1-3.27-.58s-8.5-11.8,1.77-25.08c0,0,2.73.2,4.87.58a7.62,7.62,0,0,1,2,.57h0c.74.42,2.3.33,3.72.44a4.72,4.72,0,0,1,2,.49,1.32,1.32,0,0,1,.58.61,1.72,1.72,0,0,0,1.87.85c1.1-.07,2.32-.48,2.74-.26h0c.81.35,3.83,0,4.35.51l0,.05c.22.32,1.37,0,2.61-.18h0a2.93,2.93,0,0,1,2.4.38,2.63,2.63,0,0,0,1.87.55,10.66,10.66,0,0,1,2.46.1,1,1,0,0,1,.49.3c.48.61,1.66.53,2.73.59a2.78,2.78,0,0,1,1.54.38,1.5,1.5,0,0,0,.55.23,16.62,16.62,0,0,0,4.65-.23Z"/><path class="cls-4" d="M1215.43,745.16c-.61.15-1.28.39-1.8.51-7.83-12.15-1.24-21.37,2.47-25.16a7.36,7.36,0,0,1,2.05.57C1210.27,730.16,1213.93,741.49,1215.43,745.16Z"/><path class="cls-4" d="M1220.32,745.12a12.75,12.75,0,0,0-2.11.52h0c-6.7-11.84.19-20.71,3.68-24.12a4.86,4.86,0,0,1,2,.49C1216.45,730.21,1218.67,740.41,1220.32,745.12Z"/><path class="cls-4" d="M1226.36,747.7a.82.82,0,0,1-.68-.45c-.18-.52-1.17-.76-2.23-1-5.88-10.73-.63-19,2.94-22.86,1.09-.07,2.31-.48,2.74-.26h0C1220.9,732.47,1224.9,744.24,1226.36,747.7Z"/><path class="cls-4" d="M1232.76,749.39c-.75.17-1.37.13-1.68-.54a1.58,1.58,0,0,0-1.15-.82h0c-6.85-11.95.13-20.89,3.62-24.29l0,0c.22.33,1.37,0,2.61-.17C1226.46,733.44,1231.47,746.5,1232.76,749.39Z"/><path class="cls-4" d="M1239.62,749c-.45-.49-1.33-.14-2.18,0-7.14-11.87-.58-20.83,3-24.5a11.24,11.24,0,0,1,2.46.1C1234.59,733.61,1238,745.05,1239.62,749Z"/><path class="cls-4" d="M1246.23,749.37a5.35,5.35,0,0,1-1.66-.52c-.13-.13-.41-.12-.79,0h0c-6.33-10.85-1.28-19.22,2.35-23.27a2.78,2.78,0,0,1,1.54.38,1.34,1.34,0,0,0,.55.23C1241.3,735.08,1244.79,745.84,1246.23,749.37Z"/><ellipse class="cls-14" cx="1433.12" cy="766.98" rx="31.42" ry="46.26"/><ellipse class="cls-4" cx="1432.06" cy="767.65" rx="22.85" ry="37.5"/><ellipse class="cls-13" cx="1432.06" cy="766.49" rx="22.85" ry="37.5"/><ellipse class="cls-14" cx="1436.2" cy="741.33" rx="2.7" ry="4.63"/><ellipse class="cls-14" cx="1447" cy="781.82" rx="2.7" ry="4.63"/><ellipse class="cls-14" cx="1417.88" cy="762.54" rx="2.7" ry="4.63"/><ellipse class="cls-14" cx="1425.79" cy="789.53" rx="2.7" ry="4.63"/><path class="cls-6" d="M1663.11,681.37s22.58,60.15,21.4,63.91c0,0,9.54,5.78,11.85,4.34s.3-28.06.3-28.06l-4.34-23.42-4.92-13.88Z"/><path class="cls-29" d="M1663.11,681.37s22.58,60.15,21.4,63.91c0,0,9.54,5.78,11.85,4.34s.3-28.06.3-28.06l-4.34-23.42-4.92-13.88Z"/><ellipse class="cls-14" cx="1450.85" cy="756.76" rx="2.7" ry="4.63"/><ellipse class="cls-14" cx="1436.2" cy="767.93" rx="7.9" ry="10.99"/><path class="cls-14" d="M1688.28,761.77c0,34.81-11.57,66.51-43.67,63-40.48-.87-43.66-28.23-43.66-63S1620.48,701,1644.6,701,1688.28,727,1688.28,761.77Z"/><path class="cls-4" d="M1688.52,761.82c0-27-11.72-48.59-28.21-57-21.16,4-37.43,28.37-37.43,60.13,0,28.54,2.14,52,25.19,60.09C1677.73,826.16,1688.52,795.49,1688.52,761.82Z"/><path class="cls-4" d="M1705.47,746.76s-5.77,4.91-9,1.45c0,0-7.8-62.41-17.62-62.7l-33.81-.28s-4,1.73-5.77,9.24l-21.88,62.22-118.15,1.69-9-18.8,97.33.28v-.34c.53-1.93,17.09-61,28.21-68.38h0a5,5,0,0,1,1.23-.59s41.31-5.47,54.89-1.74c0,0,14.15,3.18,17.62,7.52h0c.46.49,5.82,6.52,7.48,23.93Z"/><path class="cls-6" d="M1705.5,748.13s-5.78,4.91-9,1.44c0,0-7.8-62.4-17.62-62.69l-33.81-.28s-4,1.73-5.78,9.24l-21.89,62.22-118.15,1.69-9-18.8,97.33.28v-.35c.53-1.92,17.09-61,28.22-68.37h0a5.09,5.09,0,0,1,1.22-.59s41.32-5.47,54.91-1.74c0,0,14.15,3.18,17.62,7.52v0c.46.48,5.83,6.52,7.49,23.93Z"/><path class="cls-4" d="M1705.5,748.13s-5.78,4.91-9,1.44c0,0-7.8-62.4-17.62-62.69l-33.81-.28s-4,1.73-5.78,9.24l-21.89,62.22-118.15,1.69-9-18.8,97.33.28v-.35c.53-1.92,17.09-61,28.22-68.37h0a5.09,5.09,0,0,1,1.22-.59s41.32-5.47,54.91-1.74c0,0,14.15,3.18,17.62,7.52v0c.46.48,5.83,6.52,7.49,23.93Z"/><path class="cls-6" d="M1632.16,679.93c-2.9,5.47-27.76,73.16-27.76,73.16l-16.77-12.15v0c.53-1.92,17.1-61.16,28.25-68.44C1623.14,673.67,1634.12,676.2,1632.16,679.93Z"/><path class="cls-6" d="M1599.49,650.61l-13.59,42.9-70.85-2,.58,6.65s55.52,8.1,79.23-2.89l12.73-40.5H1719.4l-21.3-4.11Z"/><path class="cls-23" d="M1599.49,650.61l-13.59,42.9-70.85-2,.58,6.65s55.52,8.1,79.23-2.89l12.73-40.5H1719.4l-21.3-4.11Z"/><path class="cls-4" d="M1267.32,719.05s-38,19.09-9.83,37l7.53,1.73s-27.57-19.85,18.47-38.75Z"/><path class="cls-12" d="M1268.48,719.05s-38,19.09-9.84,37l7.53,1.73s-27.56-19.85,18.48-38.75Z"/><ellipse class="cls-14" cx="1661.37" cy="766.68" rx="21.11" ry="36.15"/><ellipse class="cls-4" cx="1660.66" cy="767.46" rx="15.34" ry="29.29"/><ellipse class="cls-13" cx="1660.66" cy="766.31" rx="15.34" ry="29.29"/><ellipse class="cls-14" cx="1663.44" cy="746.65" rx="1.81" ry="3.61"/><ellipse class="cls-14" cx="1670.7" cy="778.28" rx="1.81" ry="3.61"/><ellipse class="cls-14" cx="1651.14" cy="763.22" rx="1.81" ry="3.61"/><ellipse class="cls-14" cx="1656.45" cy="784.3" rx="1.81" ry="3.61"/><ellipse class="cls-14" cx="1673.28" cy="758.7" rx="1.81" ry="3.61"/><ellipse class="cls-14" cx="1663.44" cy="767.43" rx="5.31" ry="8.58"/><path class="cls-4" d="M1354.84,605.91s64.21,2.31,147.48,25.16Z"/><path class="cls-12" d="M1661.14,493.51s-3.48.56-1.67,5.16a32.7,32.7,0,0,1,2.12,7s3.49,1.81,3.34-4.19S1661.14,493.51,1661.14,493.51Z"/><path class="cls-26" d="M1490.38,586.75l0,0A6.56,6.56,0,0,0,1489,590c-.56,3.65-1.1,11.14,4.22,9.9a16.52,16.52,0,0,0,7.93-4.3,6.52,6.52,0,0,0,1.76-4.79h0a5,5,0,0,0-2.2-4.18l-2-1.14a3.43,3.43,0,0,0-1.85-.47l-3.42.12A4.26,4.26,0,0,0,1490.38,586.75Z"/><path class="cls-6" d="M1528.82,524.13l-10.22,50.76-7.24,15.28,4.79,8.9,10.61-25s11.64-36.62,11.64-37.64S1528.82,524.13,1528.82,524.13Z"/><ellipse class="cls-30" cx="210.42" cy="367.81" rx="27.79" ry="21.67"/><circle class="cls-30" cx="265.99" cy="441.17" r="40.01" transform="translate(-212.08 633.06) rotate(-80.78)"/><circle class="cls-30" cx="392.97" cy="796.01" r="10"/><circle class="cls-30" cx="340.74" cy="796.01" r="10"/><rect class="cls-30" x="351.72" y="554.78" width="4.2" height="122.55"/><rect class="cls-30" x="375.53" y="554.78" width="4.2" height="122.55"/><path class="cls-30" d="M352.94,558l-1.11-3.33s12.22-14.45,29.45-2.8l-1.11,5h-4.45s-7.22-6-19.45.87Z"/><rect class="cls-31" x="238.27" y="537.28" width="39.92" height="51.12"/><rect class="cls-31" x="293.59" y="522.57" width="11.9" height="24.51"/><path class="cls-32" d="M243.48,786l-5,15s-2.22,11.11,5,11.67S262.39,811,262.39,811s1.67-5,0-9.45-6.66-16.67-6.66-16.67Z"/><path class="cls-32" d="M281.27,786.58s-7.78,19.45-1.66,22.78,14.45.56,21.12,3.34,25-3.89,25-3.89,2.23-6.11-10-7.78c0,0-13.3-10-13.3-12.23s-7.78-2.22-7.78-2.22Z"/><path class="cls-30" d="M279.61,564.83s-45.57,9.45-51.13,6.67-11.11,37.81-11.11,37.81-2.23,24.45,5.55,57.24,0,48.91,0,48.91S224,746.58,232.38,761a61.25,61.25,0,0,1,8.33,27.79s16.11,1.67,16.68-2.23c0,0-6.68-15.56-5.56-30s-3.34-42.24-3.34-42.24,7.23-35,6.12-48.32,3.89-41.68,6.66-36.68,10,29.45,10,34.46,2.8,38.34,4.45,40.56,1.1,8.9.55,12.23-.55,28.34,2.22,41.68.56,28.34,1.11,30.57,16.68.55,17.23-3.34c0,0,2.23-23.89,3.34-27.23s1.64-45.63,1.64-45.63,1.1-32.79,2.22-36.12,2.8-75-4.45-83.33-4.45-29.46-4.45-29.46Z"/><path class="cls-31" d="M242.15,468a69.25,69.25,0,0,0-5.42,12,23,23,0,0,0-.53,13,32,32,0,0,0,3.59,7.5,25.53,25.53,0,0,0,4.53,6.05c4.2,3.84,10.31,4.61,16,5.21a8.24,8.24,0,0,0,2.93,0,5.53,5.53,0,0,0,2.1-1.15c2.49-2.1,3.62-5.31,4.53-8.4a139.19,139.19,0,0,0,4.63-22.51,10.12,10.12,0,0,0,0-3.64c-.49-2.1-2.17-3.73-3.39-5.54a14.16,14.16,0,0,1-2.41-7.28c0-1.27,0-2.67-.79-3.64A5,5,0,0,0,266,458.4c-3.31-1.4-6.62-2.8-9.93-4.15-2-.82-5.61-3-7.71-1.4-1.8,1.4-.93,4.65-1.7,6.6A91.93,91.93,0,0,1,242.15,468Z"/><path class="cls-4" d="M242.15,468a69.25,69.25,0,0,0-5.42,12,23,23,0,0,0-.53,13,32,32,0,0,0,3.59,7.5,25.53,25.53,0,0,0,4.53,6.05c4.2,3.84,10.31,4.61,16,5.21a8.24,8.24,0,0,0,2.93,0,5.53,5.53,0,0,0,2.1-1.15c2.49-2.1,3.62-5.31,4.53-8.4a139.19,139.19,0,0,0,4.63-22.51,10.12,10.12,0,0,0,0-3.64c-.49-2.1-2.17-3.73-3.39-5.54a14.16,14.16,0,0,1-2.41-7.28c0-1.27,0-2.67-.79-3.64A5,5,0,0,0,266,458.4c-3.31-1.4-6.62-2.8-9.93-4.15-2-.82-5.61-3-7.71-1.4-1.8,1.4-.93,4.65-1.7,6.6A91.93,91.93,0,0,1,242.15,468Z"/><circle class="cls-31" cx="264.04" cy="449.79" r="19.45"/><path class="cls-33" d="M270.87,498.85a38.08,38.08,0,0,1-11.4,2.6,37.63,37.63,0,0,1-8.72-.93,110.05,110.05,0,0,1-17.35-4.95,18.58,18.58,0,0,0-1.63,7.75c-.3,8,1.3,16,1.92,24.06.77,10.21,0,20.64,2.62,30.53a8.47,8.47,0,0,1,1.88-4.58,10.35,10.35,0,0,1,3.14-2.31,25.07,25.07,0,0,1,17.22-2.14c3.37.79,6.94,2.29,10.14,1a9.91,9.91,0,0,0,4.34-4.28,35,35,0,0,0,3.79-10.29c2.11-9.27,2.39-18.86,2.64-28.37.07-2.54,1.16-10.09-.95-12-1.47-1.29-1.91.56-3,1.52A13.56,13.56,0,0,1,270.87,498.85Z"/><path class="cls-6" d="M243.49,465.45c-1.29-1-3.21-.7-4.64.16s-2.59,2.05-4,2.84c-4,2.18-9.42.58-13.24,3.12-3.59,2.38-4.2,7.3-4.48,11.6-.7,10.92-1.3,21.92-3.93,32.56-.7,2.8-1.54,5.67-1.28,8.55a22.26,22.26,0,0,0,1.17,4.83l3.44,10.77c1.6,5,3.22,10.07,3.39,15.32s-1.07,10.23-2.29,15.24a178.48,178.48,0,0,0-4.72,30c-.21,3.35-.31,6.85,1.05,9.93s4.25,5.6,7.24,7.41,6.26,3.22,9.19,5.14c5.89,3.88,10.62,10,17.51,11.56a23.73,23.73,0,0,0,9.64-.19s-1.8-81.74-6.81-93.41-9.44-62.24-9.44-63.91S243.49,465.45,243.49,465.45Z"/><path class="cls-6" d="M270.54,468.13s26.29,0,30.19,13.89-11.12,36.68-11.12,36.68,6.12,45,8.89,49.46,1.67,13.31,1.67,13.31a36.69,36.69,0,0,1,1.11,18.91c-2.22,10-10.56,27.78-10.56,27.78s-11.11,0-13.89,6.67-3.34-28.9-3.34-28.9-10-65-9.45-68.91,3.34-36.13,4.45-45S272,471.46,270.54,468.13Z"/><path class="cls-6" d="M290.72,477s12.79,3.89,12.79,8.33,3.91,28.34,3.91,36.12-1.67,8.9,0,11.68-17.78,1.66-17.78,1.66l-3.54-31.67Z"/><path class="cls-34" d="M215.14,517s25,1.67,29.46-1.67,23.34,4.45,25,8.89-26.69,5-31.13,5-25.56,6.68-25.56,6.68Z"/><path class="cls-30" d="M163.65,775.91S152,805.32,158,808.82s69.93,1,69.93,1,10.64-6.58-1.52-11.15c0,0-10.14-.5-16.72-4.56s-14.19-11.65-14.19-11.65-.51-11.15-4.56-8.61a10.37,10.37,0,0,0-4.56,7.09Z"/><path class="cls-4" d="M163.65,775.91S152,805.32,158,808.82s69.93,1,69.93,1,10.64-6.58-1.52-11.15c0,0-10.14-.5-16.72-4.56s-14.19-11.65-14.19-11.65-.51-11.15-4.56-8.61a10.37,10.37,0,0,0-4.56,7.09Z"/><path class="cls-30" d="M145.66,784.9s-12.78,32.21-6.12,36.12,76.7,1.11,76.7,1.11,11.67-7.22-1.67-12.22c0,0-11.11-.56-18.34-5s-15.56-12.8-15.56-12.8-.55-12.23-5-9.45a11.4,11.4,0,0,0-5,7.78Z"/><path class="cls-32" d="M211.25,580.39l-7.78,70s-2.8,33.34-11.11,40.56c0,0,0,10.56-2.8,13.9l-3.9,43.91s5.56,16.1,5,18.9,2.22,11.67,1.67,12.78-26.68,0-26.68,0L171.22,691l17.22-124.48Z"/><path class="cls-4" d="M211.25,580.39l-7.78,70s-2.8,33.34-11.11,40.56c0,0,0,10.56-2.8,13.9l-3.9,43.91s5.56,16.1,5,18.9,2.22,11.67,1.67,12.78-26.68,0-26.68,0L171.22,691l17.22-124.48Z"/><path class="cls-32" d="M197.36,578.16s-6.12,57.24-8.9,69.47a158.64,158.64,0,0,0-3.33,24.45s-.55,17.79-5.56,22.79a15,15,0,0,0-4.44,11.1s-5,56.13-2.23,62.8,5.56,12.23,2.8,16.67-33.34,4.45-33.34,1.11,0-6.11-1.67-7.78,0-12.23,0-12.23-6.67-49.46-.55-63.9S149,648.72,149,648.72s-4.45-45-10-52.25,1.12-32.78,1.12-32.78Z"/><path class="cls-34" d="M181.71,400.4c.65,1.47,2.19,2.29,3.6,3.07,8.16,4.5,15,11,21.71,17.46a25.47,25.47,0,0,1,1-17.25c.79-1.86,1.85-3.86,1.28-5.8a7.48,7.48,0,0,0-2.8-3.37,88.12,88.12,0,0,0-8.6-5.87c-2.1-1.24-6.35-4.55-8.74-4.2-.13,3.23-.19,6.12-1.61,9.11C187.22,394.29,182,401,181.71,400.4Z"/><circle class="cls-34" cx="210.14" cy="384.76" r="22.79"/><path class="cls-30" d="M211.25,438.67s3.89-19.45-7.23-26.12-23.89-14.44-23.89-14.44-3.89-.56-5.56,7.78c0,0-31.67,6.11-35,36.12s2.22,73.91,2.22,73.91-5,38.35-11.11,58.91c0,0-5,4.45,17.23-2.22S209,591.52,209,591.52s3.9-3.9,3.9-6.68,4.44-18.9,4.44-18.9,3.89-68.36,5.56-76.14S216.25,439.79,211.25,438.67Z"/><path class="cls-6" d="M176.8,477s30.56-17.79,24.44-40.57-19.44-30-19.44-30-21.68-7.23-40,16.11l1.12,10.56s20-40.57,41.68-15S176.8,477,176.8,477Z"/><path class="cls-6" d="M144.43,423.68v91.13l-5.71,31.09-2.67,14.49H116.5l-27.39-10V483.15s22.92-45,30.19-53.35S144.43,423.68,144.43,423.68Z"/><polygon class="cls-4" points="138.32 545.9 135.67 560.39 116.22 560.39 88.99 550.39 138.32 545.9"/><polygon class="cls-6" points="137.34 526.47 185.13 468.12 142.89 528.7 138.44 529.81 137.34 526.47"/><path class="cls-30" d="M204.77,387.11a9.49,9.49,0,0,1,4.47-1.19,8.34,8.34,0,0,0,4.42-1.32c2.15-1.65,2.31-4.84,3.89-7.05,2.27-3.2,6.82-3.58,10.75-3.43,2.4.1,5,.25,7-1.05s3-3.85,3.71-6.21c.83-2.8,1.37-6.22-.7-8.29-1.4-1.44-3.67-1.73-5.25-3s-2.32-3.44-3.21-5.34a14.53,14.53,0,0,0-4.66-5.84c-3-2.1-6.79-2.53-10.42-2.5s-7.29.52-10.89.07c-3-.36-5.91-1.34-8.85-.91-3.75.56-6.85,3.39-8.71,6.71s-2.64,7.09-3.41,10.8l-2.1,10.11c-.64,3.13-1.3,6.35-.8,9.51,1,6.55,6.84,11.76,7.23,18.38a11.3,11.3,0,0,1,6.9-8.19,2.17,2.17,0,0,1,1.4-.17c.57.19.91.76,1.27,1.24.95,1.27,3.94,3.19,5.6,2.29S202.86,388.41,204.77,387.11Z"/><path class="cls-32" d="M350.51,669.64s-15,.56-17.23,17.78,0,97.26,0,97.26,17.23,12.78,38.35,11.11,55-7.78,55-7.78V694.17c0-14-11.68-25.42-25.68-24.62-.33,0-.7.05-1,.08Z"/><circle class="cls-30" cx="371.86" cy="798.79" r="10"/><circle class="cls-30" cx="426.32" cy="794.35" r="10"/><path class="cls-34" d="M147.34,490.91s-3.89,24.45,12.22,22.23c0,0,8.34-1.11,9.46,0s42.23-6.11,47.79-12.23c0,0,6.67-2.22,10,1.12s36.68,6.66,26.69-3.34-25.56-12.23-25.56-12.23l-21.12,1.11s-11.12,3.34-17.78,0-25.58-2.19-25.58-2.19Z"/><path class="cls-30" d="M170.14,413.67s-25,2.8-25,38.9v46.12s13.9-6.12,16.68-5.56,13.89-7.23,13.89-7.23,12.78-30,11.67-38.33S186.81,414.77,170.14,413.67Z"/><polygon class="cls-30" points="284.61 503.13 259.6 520.92 275.16 522.59 296.83 504.25 284.61 503.13"/><path class="cls-31" d="M304.06,529.81s6.11,18.91-2.22,24.46-22.23-19.46-22.23-19.46-15-17.78-5-21.67,14.08,13.06,14.08,13.06l13.13,11.39Z"/><ellipse class="cls-30" cx="265.99" cy="435.33" rx="22.23" ry="14.17"/><circle class="cls-30" cx="269.88" cy="401.16" r="16.11"/><ellipse class="cls-30" cx="210.14" cy="370.59" rx="21.39" ry="11.11"/><ellipse class="cls-30" cx="190.13" cy="372.53" rx="7.5" ry="18.62"/><path class="cls-35" d="M78.49,812.09c2.1-3.86-.28-8.58-3-12s-6-7-6-11.41c.1-6.3,6.79-10,12.13-13.36a59,59,0,0,0,10.9-8.76,15.83,15.83,0,0,0,3.35-4.48c1.1-2.47,1.08-5.27,1-8q-.36-13.49-1.34-27"/><path class="cls-36" d="M106,726.64a9.78,9.78,0,0,0-4.9-8.06l-2.2,4.36.07-5.27a9.83,9.83,0,1,0,7,9Z"/><path class="cls-36" d="M88.23,793.16a9.8,9.8,0,1,1,.48-7.91l-6.14,5,6.75-1.57A9.58,9.58,0,0,1,88.23,793.16Z"/><path class="cls-36" d="M83.13,774.08a9.8,9.8,0,0,1-10.27-9.31v0a9.73,9.73,0,0,1,.84-4.48A9.88,9.88,0,0,1,80,754.79L80,758.85l2.22-4.41h0a9.81,9.81,0,0,1,10.27,9.32v0a9.5,9.5,0,0,1-.42,3.35A9.8,9.8,0,0,1,83.13,774.08Z"/><path class="cls-36" d="M107.22,758.2a9.8,9.8,0,1,1,4.35-18.39l-1.74,4.76,3.57-3.43a9.8,9.8,0,0,1-6.18,17.06Z"/><path class="cls-4" d="M104.42,729.25c-2.27.26-4.48,1-6.76,1.1s-4.77-.4-6.21-2.17a31.43,31.43,0,0,1-1.82-3.2,7.07,7.07,0,0,0-2.47-2.33,9.8,9.8,0,0,0,17.66,8.52,9.44,9.44,0,0,0,.71-2C105.16,729.19,104.79,729.22,104.42,729.25Z"/><path class="cls-4" d="M107.22,758.2a9.84,9.84,0,0,1-9.35-14,7.18,7.18,0,0,1,2,2,30.38,30.38,0,0,0,2,3.25c1.52,1.8,4.14,2.39,6.51,2.28s4.66-.78,7-1c.33,0,.67-.05,1-.06A9.79,9.79,0,0,1,107.22,758.2Z"/><path class="cls-4" d="M83.33,774.08a9.8,9.8,0,0,1-10.27-9.31v0a9.73,9.73,0,0,1,.84-4.48,8,8,0,0,1,2.11,2,36.33,36.33,0,0,0,2.1,3.31c1.66,1.85,4.44,2.5,7,2.44s4.77-.65,7.19-.84A9.8,9.8,0,0,1,83.33,774.08Z"/><path class="cls-4" d="M88.23,793.16a9.81,9.81,0,1,1-17.91-8h0a10.4,10.4,0,0,1,2.16,1.92,39.35,39.35,0,0,0,2.62,3.5c2,2,5.25,2.81,8.15,2.87A41.44,41.44,0,0,0,88.23,793.16Z"/><path class="cls-37" d="M63.67,807.65s7.76-.24,10.09-1.9,11.91-3.66,12.52-1,11.65,13.3,2.9,13.34-20.35-1.36-22.68-2.8S63.67,807.65,63.67,807.65Z"/><path class="cls-11" d="M89.33,817.14c-8.76.07-20.35-1.36-22.68-2.8-1.78-1.08-2.49-5-2.72-6.75h-.26s.49,6.25,2.8,7.7,13.92,2.86,22.68,2.8c2.53,0,3.4-.92,3.35-2.26C92.17,816.63,91.22,817.13,89.33,817.14Z"/><path class="cls-38" d="M841.18,84s11.32,3,10.32,6.31Z"/><path class="cls-39" d="M728,205.24l-1-.23Z"/><path class="cls-39" d="M728.59,205.37l-.54-.11Z"/><path class="cls-39" d="M728.05,204.94h0Z"/></g></g></svg>