<?xml version="1.0" encoding="utf-8"?>
<!-- Generator: Adobe Illustrator 24.0.2, SVG Export Plug-In . SVG Version: 6.00 Build 0)  -->
<svg version="1.1" id="Calque_1" xmlns="http://www.w3.org/2000/svg" xmlns:xlink="http://www.w3.org/1999/xlink" x="0px" y="0px"
	 viewBox="0 0 60 80" style="enable-background:new 0 0 60 80;" xml:space="preserve">
<path d="M29.59,0.55c-15.7,0-28.4,12.7-28.4,28.4c0,9.2,4.7,20.6,13.9,33.9c6.8,9.8,13.7,17.1,13.8,17.2c0.2,0.2,0.5,0.3,0.7,0.3
	l0,0c0.3,0,0.5-0.1,0.7-0.3c0.1-0.1,7-7.6,13.8-17.6c9.2-13.5,13.9-24.7,13.9-33.5C57.99,13.25,45.29,0.55,29.59,0.55z M29.59,77.85
	c-4.3-4.8-26.4-29.9-26.4-48.9c0-14.6,11.8-26.4,26.4-26.4s26.4,11.8,26.4,26.4C55.99,46.95,33.89,72.95,29.59,77.85z"/>
<path d="M29.54,11.16c-5.4,0-10.5,2.6-13.7,6.9l-0.2-0.9c-0.1-0.5-0.6-0.9-1.1-0.8s-0.9,0.6-0.8,1.1l0.6,3.4c0.1,0.5,0.5,0.8,1,0.8
	c0.1,0,0.1,0,0.2,0l3.4-0.6c0.5-0.1,0.9-0.6,0.8-1.1c-0.1-0.5-0.6-0.9-1.1-0.8l-1.2,0.2c2.8-3.9,7.4-6.3,12.3-6.3
	c8.4,0,15.2,6.8,15.2,15.2s-6.8,15.2-15.2,15.2s-15.3-6.8-15.3-15.1c0-0.6-0.4-1-1-1s-1,0.4-1,1c0,9.5,7.7,17.2,17.2,17.2
	s17.1-7.8,17.1-17.2S39.04,11.16,29.54,11.16z"/>
</svg>
