<svg version="1.1" xmlns="http://www.w3.org/2000/svg" xmlns:xlink="http://www.w3.org/1999/xlink" x="0px" y="0px" width="100px"
	 height="75.4px" viewBox="0 0 100 75.4" style="enable-background:new 0 0 100 75.4;" xml:space="preserve">
<style type="text/css">
	.icPhoto{fill:#73CCFF;}
</style>
<defs>
</defs>
<g>
	<path class="icPhoto" d="M28.2,26.4c-3.6,0-6.6,2.9-6.6,6.6c0,3.6,2.9,6.6,6.6,6.6s6.6-2.9,6.6-6.6C34.8,29.3,31.8,26.4,28.2,26.4
		L28.2,26.4z M78.2,10.5H10.7C4.8,10.5,0,15.3,0,21.2v43.5c0,5.9,4.8,10.7,10.7,10.7h67.6c5.9,0,10.7-4.8,10.7-10.7V21.2
		C88.9,15.3,84.1,10.5,78.2,10.5L78.2,10.5z M83.6,64.7c0,2.9-2.4,5.3-5.3,5.3h-0.8c-0.2-0.9-0.5-1.8-1-2.7L58.6,36.6
		c-2.4-4.2-6.4-4.2-8.9,0L35.6,61l-3.8-6.3c-2.5-4.2-6.6-4.2-9.1,0l-7.6,12.8c-0.5,0.8-0.8,1.7-1,2.6h-3.5c-2.9,0-5.3-2.4-5.3-5.3
		c0,0,0,0,0-0.1V21.2c0-2.9,2.4-5.3,5.3-5.3h67.6c2.9,0,5.3,2.4,5.3,5.3L83.6,64.7L83.6,64.7z"/>
	<path class="icPhoto" d="M88.8,0H27.7c-4.9,0-9.3,3.3-10.7,8H23c1.1-1.5,2.8-2.4,4.6-2.4h61.1c3.1,0,5.7,2.5,5.7,5.7v44.5
		c0,1.9-1,3.7-2.7,4.8c0,1.8,0,3.9,0,6c4.8-1.4,8.2-5.7,8.2-10.8V11.2C100,5,95,0,88.8,0z"/>
</g>
</svg>
