<svg id="svg" version="1.1" xmlns="http://www.w3.org/2000/svg" xmlns:xlink="http://www.w3.org/1999/xlink" width="400" height="225" viewBox="0, 0, 400,225"><g id="svgg"><path id="path0" d="M0.208 112.500 L 0.208 224.792 160.156 224.791 L 320.104 224.791 318.333 223.791 C 286.074 205.587,280.818 160.697,308.033 135.809 C 340.435 106.176,392.811 124.527,399.376 167.813 C 399.746 170.254,399.755 168.320,399.773 85.260 L 399.792 0.208 200.000 0.208 L 0.208 0.208 0.208 112.500 M36.472 28.244 C 61.667 33.024,66.410 66.138,43.542 77.609 C 28.948 84.929,11.105 76.578,6.808 60.417 C 2.075 42.613,18.472 24.830,36.472 28.244 M60.639 146.369 C 85.834 151.149,90.576 184.263,67.708 195.734 C 53.115 203.054,35.272 194.703,30.975 178.542 C 26.241 160.738,42.638 142.955,60.639 146.369 M399.325 184.427 C 397.046 200.480,386.535 215.692,372.141 223.765 L 370.313 224.791 385.052 224.791 L 399.792 224.792 399.792 203.333 C 399.792 191.531,399.768 181.875,399.740 181.875 C 399.711 181.875,399.524 183.024,399.325 184.427 " stroke="none" fill="#dcecfc" fill-rule="evenodd"></path><path id="path1" d="M29.531 28.064 C 29.789 28.113,30.211 28.113,30.469 28.064 C 30.727 28.014,30.516 27.973,30.000 27.973 C 29.484 27.973,29.273 28.014,29.531 28.064 M33.906 28.064 C 34.164 28.113,34.586 28.113,34.844 28.064 C 35.102 28.014,34.891 27.973,34.375 27.973 C 33.859 27.973,33.648 28.014,33.906 28.064 M14.674 34.635 L 14.063 35.313 14.740 34.701 C 15.112 34.364,15.417 34.059,15.417 34.024 C 15.417 33.863,15.245 34.004,14.674 34.635 M48.958 34.024 C 48.958 34.059,49.263 34.364,49.635 34.701 L 50.313 35.313 49.701 34.635 C 49.130 34.004,48.958 33.863,48.958 34.024 M51.667 36.771 C 52.055 37.172,52.420 37.500,52.478 37.500 C 52.535 37.500,52.264 37.172,51.875 36.771 C 51.486 36.370,51.121 36.042,51.064 36.042 C 51.007 36.042,51.278 36.370,51.667 36.771 M6.098 52.083 C 6.098 52.599,6.139 52.810,6.189 52.552 C 6.238 52.294,6.238 51.872,6.189 51.615 C 6.139 51.357,6.098 51.568,6.098 52.083 M58.185 52.188 C 58.186 52.760,58.227 52.970,58.274 52.653 C 58.322 52.337,58.321 51.868,58.272 51.612 C 58.222 51.355,58.183 51.615,58.185 52.188 M58.185 55.938 C 58.186 56.510,58.227 56.720,58.274 56.403 C 58.322 56.087,58.321 55.618,58.272 55.362 C 58.222 55.105,58.183 55.365,58.185 55.938 M6.098 56.042 C 6.098 56.557,6.139 56.768,6.189 56.510 C 6.238 56.253,6.238 55.831,6.189 55.573 C 6.139 55.315,6.098 55.526,6.098 56.042 M12.500 71.354 C 12.889 71.755,13.254 72.083,13.311 72.083 C 13.368 72.083,13.097 71.755,12.708 71.354 C 12.320 70.953,11.955 70.625,11.897 70.625 C 11.840 70.625,12.111 70.953,12.500 71.354 M51.549 71.510 L 50.938 72.188 51.615 71.576 C 51.987 71.239,52.292 70.934,52.292 70.899 C 52.292 70.738,52.120 70.879,51.549 71.510 M14.792 73.646 C 15.180 74.047,15.545 74.375,15.603 74.375 C 15.660 74.375,15.389 74.047,15.000 73.646 C 14.611 73.245,14.246 72.917,14.189 72.917 C 14.132 72.917,14.403 73.245,14.792 73.646 M49.466 73.594 L 48.854 74.271 49.531 73.659 C 50.162 73.089,50.304 72.917,50.143 72.917 C 50.107 72.917,49.803 73.221,49.466 73.594 M29.948 80.147 C 30.206 80.197,30.628 80.197,30.885 80.147 C 31.143 80.097,30.932 80.057,30.417 80.057 C 29.901 80.057,29.690 80.097,29.948 80.147 M33.490 80.147 C 33.747 80.197,34.169 80.197,34.427 80.147 C 34.685 80.097,34.474 80.057,33.958 80.057 C 33.443 80.057,33.232 80.097,33.490 80.147 M339.063 121.572 C 304.620 125.376,282.322 160.307,293.254 193.333 C 297.587 206.425,307.670 218.423,319.315 224.346 L 320.192 224.792 345.234 224.792 L 370.277 224.792 371.857 223.929 C 386.366 216.013,396.942 200.713,399.385 184.107 C 404.608 148.608,374.729 117.634,339.063 121.572 M53.698 146.189 C 53.956 146.238,54.378 146.238,54.635 146.189 C 54.893 146.139,54.682 146.098,54.167 146.098 C 53.651 146.098,53.440 146.139,53.698 146.189 M58.073 146.189 C 58.331 146.238,58.753 146.238,59.010 146.189 C 59.268 146.139,59.057 146.098,58.542 146.098 C 58.026 146.098,57.815 146.139,58.073 146.189 M38.841 152.760 L 38.229 153.438 38.906 152.826 C 39.537 152.255,39.679 152.083,39.518 152.083 C 39.482 152.083,39.178 152.388,38.841 152.760 M73.125 152.149 C 73.125 152.184,73.430 152.489,73.802 152.826 L 74.479 153.438 73.867 152.760 C 73.297 152.129,73.125 151.988,73.125 152.149 M75.833 154.896 C 76.222 155.297,76.587 155.625,76.644 155.625 C 76.702 155.625,76.430 155.297,76.042 154.896 C 75.653 154.495,75.288 154.167,75.231 154.167 C 75.173 154.167,75.445 154.495,75.833 154.896 M30.268 170.313 C 30.269 170.885,30.310 171.095,30.358 170.778 C 30.406 170.462,30.404 169.993,30.355 169.737 C 30.306 169.480,30.266 169.740,30.268 170.313 M82.351 170.313 C 82.353 170.885,82.393 171.095,82.441 170.778 C 82.489 170.462,82.488 169.993,82.438 169.737 C 82.389 169.480,82.350 169.740,82.351 170.313 M82.351 174.063 C 82.353 174.635,82.393 174.845,82.441 174.528 C 82.489 174.212,82.488 173.743,82.438 173.487 C 82.389 173.230,82.350 173.490,82.351 174.063 M30.265 174.167 C 30.265 174.682,30.306 174.893,30.355 174.635 C 30.405 174.378,30.405 173.956,30.355 173.698 C 30.306 173.440,30.265 173.651,30.265 174.167 M36.667 189.479 C 37.055 189.880,37.420 190.208,37.478 190.208 C 37.535 190.208,37.264 189.880,36.875 189.479 C 36.486 189.078,36.121 188.750,36.064 188.750 C 36.007 188.750,36.278 189.078,36.667 189.479 M75.716 189.635 L 75.104 190.313 75.781 189.701 C 76.412 189.130,76.554 188.958,76.393 188.958 C 76.357 188.958,76.053 189.263,75.716 189.635 M38.958 191.771 C 39.347 192.172,39.712 192.500,39.769 192.500 C 39.827 192.500,39.555 192.172,39.167 191.771 C 38.778 191.370,38.413 191.042,38.356 191.042 C 38.298 191.042,38.570 191.370,38.958 191.771 M73.633 191.719 L 73.021 192.396 73.698 191.784 C 74.329 191.214,74.471 191.042,74.310 191.042 C 74.274 191.042,73.969 191.346,73.633 191.719 M54.115 198.272 C 54.372 198.322,54.794 198.322,55.052 198.272 C 55.310 198.222,55.099 198.182,54.583 198.182 C 54.068 198.182,53.857 198.222,54.115 198.272 M57.656 198.272 C 57.914 198.322,58.336 198.322,58.594 198.272 C 58.852 198.222,58.641 198.182,58.125 198.182 C 57.609 198.182,57.398 198.222,57.656 198.272 " stroke="none" fill="#e3f4fc" fill-rule="evenodd"></path><path id="path2" d="M30.104 28.044 C 3.836 30.711,-2.883 65.117,20.486 77.295 C 37.511 86.167,58.172 73.429,58.172 54.063 C 58.172 38.899,44.848 26.547,30.104 28.044 M54.271 146.169 C 28.004 148.836,21.285 183.243,44.653 195.420 C 61.677 204.292,82.339 191.554,82.339 172.188 C 82.339 157.024,69.015 144.672,54.271 146.169 " stroke="none" fill="#ecfcfc" fill-rule="evenodd"></path><path id="path3" d="M0.000 112.500 L 0.000 225.000 160.260 224.948 L 320.521 224.896 160.365 224.844 L 0.208 224.791 0.208 112.500 L 0.208 0.208 200.000 0.208 L 399.791 0.208 399.844 86.823 L 399.896 173.438 399.948 86.719 L 400.000 0.000 200.000 0.000 L 0.000 0.000 0.000 112.500 M399.792 201.769 L 399.792 224.789 384.844 224.844 L 369.896 224.899 384.948 224.949 L 400.000 225.000 400.000 201.875 C 400.000 189.156,399.953 178.750,399.896 178.750 C 399.839 178.750,399.792 189.109,399.792 201.769 " stroke="none" fill="#d4d4d4" fill-rule="evenodd"></path><path id="path4" d="M399.873 176.042 C 399.873 177.589,399.906 178.221,399.946 177.448 C 399.986 176.674,399.986 175.409,399.946 174.635 C 399.906 173.862,399.873 174.495,399.873 176.042 M332.760 224.948 C 339.607 224.978,350.810 224.978,357.656 224.948 C 364.503 224.917,358.901 224.892,345.208 224.892 C 331.516 224.892,325.914 224.917,332.760 224.948 " stroke="none" fill="#e4e4e4" fill-rule="evenodd"></path></g></svg>