<?xml version="1.0" encoding="utf-8"?>
<!-- Generator: Adobe Illustrator 24.0.3, SVG Export Plug-In . SVG Version: 6.00 Build 0)  -->
<svg version="1.1" id="svg" xmlns="http://www.w3.org/2000/svg" xmlns:xlink="http://www.w3.org/1999/xlink" x="0px" y="0px"
	 viewBox="0 0 400 225" style="enable-background:new 0 0 400 225;" xml:space="preserve">
<style type="text/css">
	.st0{fill-rule:evenodd;clip-rule:evenodd;fill:#F1FAFF;}
	.st1{fill-rule:evenodd;clip-rule:evenodd;fill:#FCFEFF;}
	.st2{fill-rule:evenodd;clip-rule:evenodd;fill:#D4D4D4;}
	.st3{fill-rule:evenodd;clip-rule:evenodd;fill:#E4E4E4;}
</style>
<g id="svgg">
	<path id="path0" class="st0" d="M0.2,112.5v112.3l159.9,0h159.9l-1.8-1c-32.3-18.2-37.5-63.1-10.3-88c32.4-29.6,84.8-11.3,91.3,32
		c0.4,2.4,0.4,0.5,0.4-82.6l0-85.1H200H0.2V112.5 M36.5,28.2c25.2,4.8,29.9,37.9,7.1,49.4c-14.6,7.3-32.4-1-36.7-17.2
		C2.1,42.6,18.5,24.8,36.5,28.2 M60.6,146.4c25.2,4.8,29.9,37.9,7.1,49.4c-14.6,7.3-32.4-1-36.7-17.2
		C26.2,160.7,42.6,143,60.6,146.4 M399.3,184.4c-2.3,16.1-12.8,31.3-27.2,39.3l-1.8,1h14.7l14.7,0v-21.5c0-11.8,0-21.5-0.1-21.5
		C399.7,181.9,399.5,183,399.3,184.4"/>
	<path id="path1" class="st1" d="M29.5,28.1c0.3,0,0.7,0,0.9,0c0.3,0,0-0.1-0.5-0.1S29.3,28,29.5,28.1 M33.9,28.1c0.3,0,0.7,0,0.9,0
		c0.3,0,0-0.1-0.5-0.1S33.6,28,33.9,28.1 M14.7,34.6l-0.6,0.7L14.7,34.6c0.4-0.3,0.7-0.6,0.7-0.6C15.4,33.9,15.2,34,14.7,34.6
		 M49,34c0,0,0.3,0.3,0.7,0.7l0.7,0.6l-0.6-0.7C49.1,34,49,33.9,49,34 M51.7,36.8c0.4,0.4,0.8,0.7,0.8,0.7c0.1,0-0.2-0.3-0.6-0.7
		S51.1,36,51.1,36S51.3,36.4,51.7,36.8 M6.1,52.1c0,0.5,0,0.7,0.1,0.5c0-0.3,0-0.7,0-0.9C6.1,51.4,6.1,51.6,6.1,52.1 M58.2,52.2
		c0,0.6,0,0.8,0.1,0.5c0-0.3,0-0.8,0-1C58.2,51.4,58.2,51.6,58.2,52.2 M58.2,55.9c0,0.6,0,0.8,0.1,0.5c0-0.3,0-0.8,0-1
		C58.2,55.1,58.2,55.4,58.2,55.9 M6.1,56c0,0.5,0,0.7,0.1,0.5c0-0.3,0-0.7,0-0.9C6.1,55.3,6.1,55.5,6.1,56 M12.5,71.4
		c0.4,0.4,0.8,0.7,0.8,0.7s-0.2-0.3-0.6-0.7c-0.4-0.4-0.8-0.7-0.8-0.7C11.8,70.6,12.1,71,12.5,71.4 M51.5,71.5l-0.6,0.7L51.5,71.5
		c0.4-0.3,0.7-0.6,0.7-0.6C52.3,70.7,52.1,70.9,51.5,71.5 M14.8,73.6c0.4,0.4,0.8,0.7,0.8,0.7c0.1,0-0.2-0.3-0.6-0.7
		c-0.4-0.4-0.8-0.7-0.8-0.7S14.4,73.2,14.8,73.6 M49.5,73.6l-0.6,0.7L49.5,73.6c0.7-0.5,0.8-0.7,0.7-0.7
		C50.1,72.9,49.8,73.2,49.5,73.6 M29.9,80.1c0.3,0,0.7,0,0.9,0c0.3-0.1,0-0.1-0.5-0.1C29.9,80.1,29.7,80.1,29.9,80.1 M33.5,80.1
		c0.3,0,0.7,0,0.9,0c0.3-0.1,0-0.1-0.5-0.1C33.4,80.1,33.2,80.1,33.5,80.1 M339.1,121.6c-34.4,3.8-56.7,38.7-45.8,71.8
		c4.3,13.1,14.4,25.1,26.1,31l0.9,0.4h25h25l1.6-0.9c14.5-7.9,25.1-23.2,27.5-39.8C404.6,148.6,374.7,117.6,339.1,121.6 M53.7,146.2
		c0.3,0,0.7,0,0.9,0c0.3,0,0-0.1-0.5-0.1C53.7,146.1,53.4,146.1,53.7,146.2 M58.1,146.2c0.3,0,0.7,0,0.9,0c0.3,0,0-0.1-0.5-0.1
		C58,146.1,57.8,146.1,58.1,146.2 M38.8,152.8l-0.6,0.7L38.8,152.8c0.7-0.5,0.8-0.7,0.7-0.7C39.5,152.1,39.2,152.4,38.8,152.8
		 M73.1,152.1c0,0,0.3,0.3,0.7,0.7l0.7,0.6l-0.6-0.7C73.3,152.1,73.1,152,73.1,152.1 M75.8,154.9c0.4,0.4,0.8,0.7,0.8,0.7
		c0.1,0-0.2-0.3-0.6-0.7c-0.4-0.4-0.8-0.7-0.8-0.7C75.2,154.2,75.4,154.5,75.8,154.9 M30.3,170.3c0,0.6,0,0.8,0.1,0.5
		c0-0.3,0-0.8,0-1C30.3,169.5,30.3,169.7,30.3,170.3 M82.4,170.3c0,0.6,0,0.8,0.1,0.5c0-0.3,0-0.8,0-1
		C82.4,169.5,82.3,169.7,82.4,170.3 M82.4,174.1c0,0.6,0,0.8,0.1,0.5c0-0.3,0-0.8,0-1C82.4,173.2,82.3,173.5,82.4,174.1 M30.3,174.2
		c0,0.5,0,0.7,0.1,0.5c0.1-0.3,0.1-0.7,0-0.9C30.3,173.4,30.3,173.7,30.3,174.2 M36.7,189.5c0.4,0.4,0.8,0.7,0.8,0.7
		c0.1,0-0.2-0.3-0.6-0.7s-0.8-0.7-0.8-0.7S36.3,189.1,36.7,189.5 M75.7,189.6l-0.6,0.7L75.7,189.6c0.7-0.5,0.8-0.7,0.7-0.7
		C76.4,189,76.1,189.3,75.7,189.6 M39,191.8c0.4,0.4,0.8,0.7,0.8,0.7c0.1,0-0.2-0.3-0.6-0.7c-0.4-0.4-0.8-0.7-0.8-0.7
		C38.3,191,38.6,191.4,39,191.8 M73.6,191.7l-0.6,0.7L73.6,191.7c0.7-0.5,0.8-0.7,0.7-0.7C74.3,191,74,191.3,73.6,191.7 M54.1,198.3
		c0.3,0.1,0.7,0.1,0.9,0c0.3-0.1,0-0.1-0.5-0.1C54.1,198.2,53.9,198.2,54.1,198.3 M57.7,198.3c0.3,0.1,0.7,0.1,0.9,0
		c0.3-0.1,0-0.1-0.5-0.1S57.4,198.2,57.7,198.3"/>
	<path id="path2" class="st1" d="M30.1,28c-26.3,2.7-33,37.1-9.6,49.3c17,8.9,37.7-3.9,37.7-23.2C58.2,38.9,44.8,26.5,30.1,28
		 M54.3,146.2c-26.3,2.7-33,37.1-9.6,49.3c17,8.9,37.7-3.9,37.7-23.2C82.3,157,69,144.7,54.3,146.2"/>
	<path id="path3" class="st2" d="M0,112.5V225l160.3-0.1l160.3-0.1l-160.2-0.1L0.2,224.8V112.5V0.2H200h199.8l0.1,86.6l0.1,86.6
		l0.1-86.7L400,0H200H0V112.5 M399.8,201.8v23l-14.9,0.1l-14.9,0.1l15.1,0.1L400,225v-23.1c0-12.7,0-23.1-0.1-23.1
		S399.8,189.1,399.8,201.8"/>
	<path id="path4" class="st3" d="M399.9,176c0,1.5,0,2.2,0.1,1.4c0-0.8,0-2,0-2.8C399.9,173.9,399.9,174.5,399.9,176 M332.8,224.9
		c6.8,0,18,0,24.9,0c6.8,0,1.2-0.1-12.4-0.1C331.5,224.9,325.9,224.9,332.8,224.9"/>
</g>
</svg>
