<?xml version="1.0" standalone="no"?>
<!DOCTYPE svg PUBLIC "-//W3C//DTD SVG 20010904//EN"
 "http://www.w3.org/TR/2001/REC-SVG-20010904/DTD/svg10.dtd">
<svg version="1.0" xmlns="http://www.w3.org/2000/svg"
 width="435.000000pt" height="435.000000pt" viewBox="0 0 435.000000 435.000000"
 preserveAspectRatio="xMidYMid meet">
<metadata>
Created by potrace 1.15, written by Peter Selinger 2001-2017
</metadata>
<g transform="translate(0.000000,435.000000) scale(0.100000,-0.100000)"
fill="#000000" stroke="none">
<path d="M1950 4329 c-310 -32 -656 -151 -915 -314 -438 -276 -757 -681 -915
-1165 -177 -542 -139 -1117 110 -1625 114 -234 229 -396 414 -581 177 -177
322 -282 541 -392 235 -119 426 -181 670 -219 154 -24 488 -24 644 0 363 57
697 196 986 412 103 76 344 317 420 420 216 289 355 623 412 986 24 156 24
490 0 644 -74 472 -280 880 -611 1211 -186 185 -348 301 -581 414 -361 177
-774 250 -1175 209z m489 -265 c225 -32 408 -91 611 -195 172 -88 295 -176
436 -312 177 -169 284 -312 388 -516 141 -277 206 -552 206 -867 -1 -431 -126
-809 -381 -1149 -66 -89 -218 -259 -225 -252 -2 2 -15 43 -29 93 -100 346
-364 653 -690 805 -84 39 -226 89 -254 89 -9 0 12 15 45 34 268 144 423 400
426 701 1 141 -19 231 -82 360 -81 165 -199 284 -365 365 -232 113 -468 113
-700 0 -166 -81 -284 -199 -365 -365 -61 -125 -84 -227 -83 -360 2 -207 73
-385 216 -542 56 -60 147 -129 219 -164 l47 -22 -97 -32 c-398 -129 -728 -462
-849 -855 -14 -47 -29 -89 -33 -93 -11 -12 -187 178 -262 284 -127 177 -238
420 -293 639 -56 222 -71 510 -40 729 123 840 776 1497 1615 1625 130 19 406
20 539 0z m-93 -1049 c89 -30 143 -62 208 -124 113 -107 166 -231 166 -385 0
-156 -50 -276 -160 -386 -110 -110 -230 -160 -386 -160 -112 0 -196 23 -280
79 -166 109 -254 270 -254 464 0 244 137 435 369 514 96 33 236 32 337 -2z
m77 -1494 c414 -109 710 -416 801 -833 7 -35 16 -70 20 -78 4 -11 -18 -29 -82
-67 -559 -334 -1245 -363 -1827 -77 -60 30 -138 72 -173 94 -51 33 -61 44 -53
58 5 9 12 37 16 62 4 25 21 86 37 135 124 381 461 663 873 729 72 11 311 -3
388 -23z"/>
</g>
</svg>
