<?xml version="1.0" encoding="utf-8"?>
<!-- Generator: Adobe Illustrator 24.0.2, SVG Export Plug-In . SVG Version: 6.00 Build 0)  -->
<svg version="1.1" id="Calque_1" xmlns="http://www.w3.org/2000/svg" xmlns:xlink="http://www.w3.org/1999/xlink" x="0px" y="0px"
	 viewBox="0 0 490 440" style="enable-background:new 0 0 490 440;" xml:space="preserve">
<path d="M364.6,2.99c-30.2,0-53.5,6.6-73.4,20.8c-16.5,11.8-30.9,29-46.3,55.2c-15.4-26.3-29.9-43.5-46.4-55.3
	c-19.8-14.1-43.2-20.7-73.4-20.7c-68.2,0-123.7,49.7-123.7,110.7c0,48.8,24.8,102,75.7,162.6c45.1,53.6,106,107.9,165,160.4
	c0.8,0.7,1.7,1,2.7,1c1,0,1.9-0.3,2.7-1c59-52.5,119.9-106.9,165-160.4c51-60.6,75.8-113.7,75.8-162.6
	C488.3,52.69,432.8,2.99,364.6,2.99z M406.4,271.09c-44,52.3-103.6,105.6-161.5,157.2c-57.9-51.6-117.5-104.9-161.5-157.2
	c-49.7-59.1-73.9-110.6-73.9-157.4c-0.1-56.6,51.8-102.7,115.6-102.7c60.6,0,88.5,28.6,116.2,78c0.7,1.3,2,2,3.5,2
	c1.4,0,2.8-0.8,3.5-2c27.7-49.4,55.6-78,116.2-78c63.8,0,115.7,46.1,115.7,102.7C480.3,160.59,456.1,212.09,406.4,271.09z"/>
</svg>
