<svg xmlns="http://www.w3.org/2000/svg" viewBox="0 0 1124.96 1155.4"><defs><style>.cls-1,.cls-7{fill:#73ccff;}.cls-1,.cls-5{opacity:0.1;}.cls-1,.cls-12,.cls-5{isolation:isolate;}.cls-2{fill:#3f3d56;}.cls-3{fill:#fbbebe;}.cls-4{fill:#3c354c;}.cls-6{fill:#f2f2f2;}.cls-8{fill:#a0616a;}.cls-9{fill:none;stroke:#3f3d56;stroke-miterlimit:10;stroke-width:4px;}.cls-10{fill:#57b894;}.cls-11{fill:#656380;}.cls-12{opacity:0.2;}</style></defs><title>Tripset - background - mobile</title><g id="Calque_2" data-name="Calque 2"><g id="Calque_1-2" data-name="Calque 1"><path class="cls-1" d="M1009.78,761.2c-19.66,40.55-50.16,73.9-86.13,101.24-.33.27-.67.53-1,.78-30.92,23.37-65.8,42.34-101.27,57.67-104,45-218.43,62.79-331.33,55.24q-29.68-2-59.18-6.31A746.82,746.82,0,0,1,233,912.15q-27.19-12.3-53.45-26.74A683.25,683.25,0,0,1,96.05,830.8q-10-7.62-19.7-15.63c-4.49-3.7-8.93-7.48-13.45-11.16-9.53-7.75-19.34-15.11-30.27-20.62a105.05,105.05,0,0,0-10.14-4.47,2.58,2.58,0,0,0-.39-.14A115.94,115.94,0,0,0,0,772.9V.37c92.62-4,186.84,25.37,259.47,83.19,28.18,22.43,53.49,49,85.13,66.18,27.62,15,59.95,21.17,89.54,9.39C458.59,149.47,474.5,144.56,502,146a568.28,568.28,0,0,1,166.22,34.79l.26.1c2.08.76,4.13,1.53,6.19,2.32l.72.27c138.78,53.33,258.07,158.92,320.08,294.54,1.64,3.6,3.24,7.21,4.79,10.86C1037.27,575.4,1050.64,676.87,1009.78,761.2Z"/><path class="cls-1" d="M1008.84,761.68c-36.66,75.84-111.15,126.55-188.3,160-103.9,45-218.31,62.9-331.15,55.35q-29.68-2-59.15-6.32a744.74,744.74,0,0,1-197.75-57.79q-27.19-12.31-53.42-26.78a683.54,683.54,0,0,1-83.45-54.71q-10-7.65-19.69-15.67c-4.48-3.7-8.93-7.5-13.44-11.18-9.52-7.76-19.32-15.13-30.26-20.65a106.42,106.42,0,0,0-10.13-4.49V564.78H279v48.34H390.85V263.71H523.43V403.2h64.91V320.33h55.24V231.94h24.86v-51.4c2.31.79,4.62,1.6,6.91,2.42v49h23.48v88.39h53.86V403.2h80.1V718.08H958.47V488.82h40.81C1036.32,575.54,1049.68,677.19,1008.84,761.68Z"/><rect class="cls-1" x="430.9" y="316.19" width="59.39" height="59.39"/><rect class="cls-1" x="430.9" y="439.1" width="59.39" height="59.39"/><rect class="cls-1" x="430.9" y="560.64" width="59.39" height="59.39"/><rect class="cls-1" x="430.9" y="683.55" width="59.39" height="59.39"/><rect class="cls-1" x="430.9" y="806.47" width="59.39" height="59.39"/><rect class="cls-1" x="41.44" y="640.74" width="207.16" height="26.24"/><rect class="cls-1" x="41.44" y="722.22" width="207.16" height="26.24"/><path class="cls-1" d="M248.6,803.71V830H98.68q-9.78-7.47-19.29-15.31c-4.4-3.63-8.75-7.33-13.18-10.93Z"/><rect class="cls-1" x="588.34" y="476.39" width="38.67" height="38.67"/><rect class="cls-1" x="736.12" y="476.39" width="38.67" height="38.67"/><rect class="cls-1" x="588.34" y="571.69" width="38.67" height="38.67"/><rect class="cls-1" x="736.12" y="571.69" width="38.67" height="38.67"/><rect class="cls-1" x="588.34" y="665.6" width="38.67" height="38.67"/><rect class="cls-1" x="736.12" y="665.6" width="38.67" height="38.67"/><rect class="cls-1" x="588.34" y="760.89" width="38.67" height="38.67"/><rect class="cls-1" x="736.12" y="760.89" width="38.67" height="38.67"/><path class="cls-1" d="M120,212.82s-32.91-2-29,21.09a5.64,5.64,0,0,0,2.92,5.93s.07-1.72,3.38-1.14a14.3,14.3,0,0,0,3.58.18,7.35,7.35,0,0,0,4.36-1.8h0s9.26-3.83,12.86-19c0,0,2.67-3.3,2.56-4.15l-5.53,2.38s1.89,4,.4,7.33c0,0-.18-7.19-1.24-7-.22,0-2.89,1.38-2.89,1.38s3.26,7,.8,12.05c0,0,.94-8.6-1.82-11.54l-3.91,2.28s3.81,7.21,1.23,13.09c0,0,.66-9-2.06-12.54l-3.53,2.76s3.57,7.11,1.38,12c0,0-.29-10.5-2.17-11.3a22.22,22.22,0,0,0-3.58,3.86s2.46,5.16.94,7.88c0,0-.94-7-1.7-7,0,0-3.09,4.64-3.41,7.82a16.87,16.87,0,0,1,2.67-8.29,9.34,9.34,0,0,0-4.74,2.45S92,228.26,97,228c0,0,2.55-3.52,3.23-3.72,0,0-5-.42-8,.92,0,0,2.66-3.09,8.92-1.7l3.51-2.84s-6.66-.9-9.42.07c0,0,3.2-2.77,10.29-.75l3.81-2.28a34.86,34.86,0,0,0-8.94-.77s3.52-1.89,10,.16l2.77-1.23s-4.15-.8-5.31-.92-1.27-.47-1.27-.47a14.21,14.21,0,0,1,7.71.86S120.09,213.14,120,212.82Z"/><path class="cls-1" d="M33.55,325s-11.24,31,12,33.83A5.65,5.65,0,0,0,52,357.73s-1.63-.56-.12-3.57a15.55,15.55,0,0,0,1.17-3.38,7.38,7.38,0,0,0-.48-4.7h0s-1-9.95-14.53-17.7c0,0-2.4-3.5-3.25-3.63l.71,6s4.38-.68,7.14,1.7c0,0-6.91-1.87-7.09-.8,0,.22.51,3.16.51,3.16s7.63-1.15,11.8,2.67c0,0-8-3.35-11.6-1.54l1.07,4.39s8-1.61,12.92,2.55c0,0-8.47-3.21-12.61-1.59l1.64,4.14s7.83-1.38,11.89,2.07c0,0-10.15-2.76-11.45-1.13a22.16,22.16,0,0,0,2.68,4.52s5.65-.89,7.83,1.38c0,0-7-1.09-7.22-.36,0,0,3.56,4.28,6.52,5.52a16.83,16.83,0,0,1-7.17-4.89,9.43,9.43,0,0,0,1,5.22s-3-1.38-1.85-6.27c0,0-2.65-3.45-2.67-4.14,0,0-1.81,4.65-1.38,7.93,0,0-2.22-3.43.91-9l-1.75-4.15s-2.76,6-2.56,9c0,0-1.71-3.84,2.21-10.07l-1.1-4.29A33.78,33.78,0,0,0,32,345s-.82-3.91,3-9.58l-.4-3s-2,3.7-2.41,4.82-.8,1.09-.8,1.09a14.14,14.14,0,0,1,3-7.14S33.94,325,33.55,325Z"/><path class="cls-1" d="M251.81,298.89s-11.25,31,12,33.82a5.59,5.59,0,0,0,6.5-1.11s-1.61-.54-.12-3.57a15.88,15.88,0,0,0,1.19-3.37,7.56,7.56,0,0,0-.5-4.71h0s-1-9.95-14.52-17.7c0,0-2.4-3.48-3.24-3.63l.69,6s4.4-.65,7.17,1.7c0,0-6.91-1.88-7.09-.8,0,.22.51,3.16.51,3.16s7.63-1.14,11.78,2.66c0,0-8-3.35-11.58-1.54l1.07,4.39s8-1.6,12.9,2.55c0,0-8.46-3.19-12.59-1.59l1.64,4.14s7.83-1.38,11.89,2.06c0,0-10.16-2.76-11.45-1.13a22.24,22.24,0,0,0,2.68,4.53s5.65-.9,7.82,1.38c0,0-7-1.09-7.22-.38,0,0,3.57,4.29,6.53,5.53a16.85,16.85,0,0,1-7.17-4.9,9.31,9.31,0,0,0,1,5.23s-3-1.38-1.87-6.28c0,0-2.65-3.44-2.65-4.15,0,0-1.82,4.66-1.38,7.94,0,0-2.21-3.42.91-9L255,316s-2.76,6-2.57,9c0,0-1.71-3.85,2.21-10.08l-1.09-4.3a34.83,34.83,0,0,0-3.27,8.29s-.83-3.91,3-9.59l-.4-2.95s-1.94,3.7-2.41,4.82-.79,1.08-.79,1.08a14.18,14.18,0,0,1,3-7.14S252.19,298.89,251.81,298.89Z"/><path class="cls-1" d="M12.6,444.89a5.66,5.66,0,0,1-4.68,4.67A17.69,17.69,0,0,1,0,451.88v-6.24l.37.12c1.88,4.66,5.14,4.06,5.14,4.06a9.31,9.31,0,0,1-3.84-3.7,16.77,16.77,0,0,0,8.67-.12c-3.11.66-8.49-.72-8.49-.72-.21-.75,6.11-3.87,6.11-3.87-3-.57-7.16,3.41-7.16,3.41-.28-.08-.54-.18-.8-.27v-5A64.76,64.76,0,0,1,6,437a10.83,10.83,0,0,0-6,1.53v-4c1.5-.52,2.56-.8,2.56-.8a10.37,10.37,0,0,0-2.56.1V431A18,18,0,0,1,6.34,435a7.51,7.51,0,0,1,3.13,3.57,16.83,16.83,0,0,1,1,3.45C11,445.39,12.6,444.89,12.6,444.89Z"/><path class="cls-1" d="M214.29,457.27S223,489,243.58,478a5.63,5.63,0,0,0,4.67-4.67s-1.63.5-2.15-2.83a15.13,15.13,0,0,0-1-3.45,7.61,7.61,0,0,0-3.11-3.57h0s-6.59-7.52-22.1-6.09c0,0-4-1.46-4.75-1.09l4,4.51s3.19-3.08,6.82-2.77c0,0-6.75,2.48-6.25,3.44.1.2,2.24,2.28,2.24,2.28s5.52-5.33,11.15-4.63c0,0-8.43,1.88-10.34,5.43l3.41,3s5.61-5.93,12-5.37c0,0-8.75,2.27-11.21,6l3.76,2.47s5.52-5.68,10.91-5.18c0,0-9.86,3.65-10,5.69a21.34,21.34,0,0,0,4.81,2.14s4.14-4,7.15-3.41c0,0-6.32,3.14-6.1,3.87,0,0,5.39,1.38,8.49.72a16.77,16.77,0,0,1-8.67.12,9.25,9.25,0,0,0,3.84,3.7s-3.26.6-5.15-4.06c0,0-4.15-1.28-4.57-1.86,0,0,1.21,4.84,3.45,7.29,0,0-3.79-1.53-4.46-7.91l-3.83-2.41s1.25,6.51,3.08,8.83c0,0-3.62-2.16-4-9.5l-3.37-2.88a34.69,34.69,0,0,0,2.12,8.7s-2.92-2.76-3.06-9.57l-2-2.18s.55,4.14.81,5.32,0,1.38,0,1.38a14.13,14.13,0,0,1-1.65-7.57S214.61,457,214.29,457.27Z"/><path class="cls-1" d="M1125,1113.9v41.5H0v-45.06c8.87-16.74,20.66-30.62,33.44-36.26,15.55-6.86,32.46-9.87,49.36-10.84,10.45-.59,20.85.13,31.25.68,6.63.34,13.27.63,19.91.47,16.49-.42,33.74-5.36,50.14-7.63,3.27-.45,6.54-.88,9.82-1.31h0q18-2.35,36.14-4.25h0c2.61-.28,5.21-.54,7.82-.8l.72-.07c8-.79,15.9-1.49,23.87-2.14h0q29-2.39,58.14-3.66h0q13.47-.6,27-1h0q18.64-.54,37.32-.67,14.6-.12,29.22,0,21.69.17,43.38.8c.66,0,1.31,0,2,.07h0c43.29,1.27,86.52,3.85,129.69,7.33q44.14,3.56,88.2,8.22c73.62,7.72,147,17.28,220.43,26.86s146.89,19.21,220.53,27.06Z"/><ellipse class="cls-2" cx="290.61" cy="501.97" rx="38.38" ry="29.93"/><circle class="cls-2" cx="367.36" cy="603.28" r="55.26"/><circle class="cls-2" cx="542.73" cy="1093.35" r="13.81"/><circle class="cls-2" cx="470.59" cy="1093.35" r="13.81"/><rect class="cls-2" x="485.75" y="760.2" width="5.8" height="169.25"/><rect class="cls-2" x="518.63" y="760.2" width="5.8" height="169.25"/><path class="cls-2" d="M487.44,764.65l-1.54-4.6s16.89-19.95,40.68-3.87L525,763.1H518.9s-10-8.37-26.86,1.19Z"/><rect class="cls-3" x="329.07" y="736.02" width="55.13" height="70.6"/><rect class="cls-3" x="405.48" y="715.71" width="16.44" height="33.85"/><path class="cls-4" d="M336.28,1079.54l-6.91,20.73s-3.08,15.34,6.91,16.11,26.11-2.3,26.11-2.3,2.3-6.91,0-13-9.21-23-9.21-23Z"/><path class="cls-4" d="M388.46,1080.32s-10.74,26.87-2.3,31.47,20,.76,29.17,4.6,34.54-5.36,34.54-5.36,3.07-8.45-13.82-10.75c0,0-18.37-13.82-18.37-16.89s-10.75-3.07-10.75-3.07Z"/><path class="cls-2" d="M386.16,774.07s-62.93,13-70.6,9.21-15.35,52.22-15.35,52.22-3.07,33.77,7.67,79.06,0,67.54,0,67.54,1.54,43,13.06,62.94,11.51,38.38,11.51,38.38,22.24,2.3,23-3.08c0,0-9.21-21.49-7.68-41.44s-4.6-58.34-4.6-58.34,10-48.35,8.44-66.73,5.38-57.56,9.21-50.66,13.82,40.68,13.82,47.59,3.87,53,6.14,56,1.53,12.28.77,16.89-.77,39.14,3.06,57.56.78,39.14,1.54,42.22,23,.76,23.79-4.62c0,0,3.08-33,4.61-37.6s2.27-63,2.27-63,1.53-45.28,3.06-49.88,3.87-103.62-6.14-115.09-6.14-40.68-6.14-40.68Z"/><path class="cls-3" d="M334.43,640.36c-2.85,5.36-5.71,10.77-7.49,16.58s-2.4,12.11-.72,17.95a44.17,44.17,0,0,0,4.95,10.35,35.24,35.24,0,0,0,6.26,8.35c5.8,5.3,14.23,6.37,22.07,7.2a11.25,11.25,0,0,0,4.05-.07,7.68,7.68,0,0,0,2.9-1.58c3.43-2.91,5-7.34,6.25-11.61a191.55,191.55,0,0,0,6.4-31.08,14.17,14.17,0,0,0,0-5c-.68-2.9-3-5.16-4.68-7.65a19.52,19.52,0,0,1-3.33-10.06c-.07-1.75,0-3.69-1.1-5a6.7,6.7,0,0,0-2.6-1.61c-4.58-1.93-9.14-3.87-13.73-5.72-2.76-1.14-7.73-4.18-10.63-1.94-2.49,1.94-1.29,6.43-2.35,9.11C339,632.62,336.48,636.49,334.43,640.36Z"/><path class="cls-5" d="M334.43,640.36c-2.85,5.36-5.71,10.77-7.49,16.58s-2.4,12.11-.72,17.95a44.17,44.17,0,0,0,4.95,10.35,35.24,35.24,0,0,0,6.26,8.35c5.8,5.3,14.23,6.37,22.07,7.2a11.25,11.25,0,0,0,4.05-.07,7.68,7.68,0,0,0,2.9-1.58c3.43-2.91,5-7.34,6.25-11.61a191.55,191.55,0,0,0,6.4-31.08,14.17,14.17,0,0,0,0-5c-.68-2.9-3-5.16-4.68-7.65a19.52,19.52,0,0,1-3.33-10.06c-.07-1.75,0-3.69-1.1-5a6.7,6.7,0,0,0-2.6-1.61c-4.58-1.93-9.14-3.87-13.73-5.72-2.76-1.14-7.73-4.18-10.63-1.94-2.49,1.94-1.29,6.43-2.35,9.11C339,632.62,336.48,636.49,334.43,640.36Z"/><circle class="cls-3" cx="364.67" cy="615.19" r="26.87"/><path class="cls-6" d="M374.1,683c-5.09,1.82-10.34,3.4-15.75,3.59a52.48,52.48,0,0,1-12-1.28,153.37,153.37,0,0,1-24-6.84c-1.67,3.28-2.11,7-2.26,10.7-.41,11.11,1.8,22.13,2.65,33.23,1.08,14.1,0,28.51,3.63,42.16a11.59,11.59,0,0,1,2.59-6.32,14.39,14.39,0,0,1,4.35-3.19,34.54,34.54,0,0,1,23.77-3c4.65,1.1,9.59,3.16,14,1.31,2.63-1.11,4.54-3.45,6-5.91a48.38,48.38,0,0,0,5.24-14.2c2.9-12.81,3.29-26,3.64-39.18.09-3.51,1.6-13.95-1.31-16.52-2-1.79-2.64.76-4.11,2.1A18.87,18.87,0,0,1,374.1,683Z"/><path class="cls-7" d="M336.28,636.82c-1.78-1.4-4.43-1-6.41.22s-3.57,2.84-5.57,3.92c-5.55,3-13,.8-18.28,4.31-4.95,3.29-5.8,10.08-6.19,16-1,15.09-1.8,30.28-5.42,45-1,3.87-2.13,7.84-1.76,11.82a31.88,31.88,0,0,0,1.6,6.68L299,739.61c2.21,6.91,4.44,13.92,4.67,21.16s-1.47,14.13-3.16,21.05a247.54,247.54,0,0,0-6.51,41.5c-.3,4.63-.42,9.46,1.45,13.71,1.94,4.44,5.86,7.74,10,10.24s8.64,4.44,12.69,7.1c8.13,5.35,14.66,13.77,24.18,16a32.87,32.87,0,0,0,13.32-.27s-2.49-112.89-9.4-129-13.05-86-13.05-88.26S336.28,636.82,336.28,636.82Z"/><path class="cls-7" d="M373.64,640.52s36.31,0,41.69,19.18S400,710.36,400,710.36s8.44,62.17,12.27,68.31,2.32,18.38,2.32,18.38a50.77,50.77,0,0,1,1.52,26.11C413,837,401.51,861.54,401.51,861.54s-15.35,0-19.19,9.2-4.6-39.91-4.6-39.91-13.81-89.8-13.05-95.17,4.6-49.89,6.14-62.17S375.7,645.12,373.64,640.52Z"/><path class="cls-7" d="M401.51,652.8s17.66,5.37,17.66,11.51,5.41,39.14,5.41,49.88-2.31,12.29,0,16.13-24.56,2.3-24.56,2.3l-4.88-43.75Z"/><path class="cls-8" d="M297.13,708.06s34.54,2.3,40.68-2.31,32.24,6.14,34.54,12.28-36.85,6.91-43,6.91-35.31,9.22-35.31,9.22Z"/><path class="cls-2" d="M226,1065.58s-16.1,40.62-7.74,45.46,96.58,1.39,96.58,1.39,14.69-9.09-2.1-15.39c0,0-14-.7-23.09-6.3s-19.6-16.09-19.6-16.09-.7-15.4-6.3-11.9a14.39,14.39,0,0,0-6.3,9.8Z"/><path class="cls-5" d="M226,1065.58s-16.1,40.62-7.74,45.46,96.58,1.39,96.58,1.39,14.69-9.09-2.1-15.39c0,0-14-.7-23.09-6.3s-19.6-16.09-19.6-16.09-.7-15.4-6.3-11.9a14.39,14.39,0,0,0-6.3,9.8Z"/><path class="cls-2" d="M201.17,1078s-17.65,44.49-8.45,49.89,105.92,1.54,105.92,1.54,16.13-10-2.3-16.89c0,0-15.35-.77-25.33-6.91S249.52,1088,249.52,1088s-.76-16.88-6.9-13a15.73,15.73,0,0,0-6.91,10.74Z"/><path class="cls-4" d="M291.76,795.56,281,892.27s-3.87,46.06-15.35,56c0,0,0,14.58-3.86,19.19l-5.38,60.64s7.68,22.24,6.91,26.11,3.07,16.11,2.31,17.65-36.85,0-36.85,0l7.68-123.57L260.26,776.4Z"/><path class="cls-5" d="M291.76,795.56,281,892.27s-3.87,46.06-15.35,56c0,0,0,14.58-3.86,19.19l-5.38,60.64s7.68,22.24,6.91,26.11,3.07,16.11,2.31,17.65-36.85,0-36.85,0l7.68-123.57L260.26,776.4Z"/><path class="cls-4" d="M272.57,792.48s-8.44,79.06-12.28,95.94a217.25,217.25,0,0,0-4.61,33.78s-.76,24.56-7.68,31.47A20.79,20.79,0,0,0,241.87,969s-6.91,77.51-3.07,86.73,7.68,16.89,3.87,23-46.06,6.14-46.06,1.53,0-8.44-2.3-10.74,0-16.89,0-16.89-9.21-68.31-.77-88.26,12.29-74.47,12.29-74.47-6.14-62.17-13.82-72.15,1.53-45.28,1.53-45.28Z"/><path class="cls-8" d="M251,547c.89,2,3,3.17,5,4.24,11.27,6.21,20.7,15.21,30,24.11a35.18,35.18,0,0,1,1.4-23.82c1.1-2.56,2.56-5.33,1.77-8-.59-1.93-2.26-3.4-3.87-4.66a119.89,119.89,0,0,0-11.87-8.09c-2.9-1.72-8.78-6.3-12.08-5.81-.17,4.46-.26,8.45-2.21,12.58C258.58,538.54,251.3,547.76,251,547Z"/><circle class="cls-8" cx="290.22" cy="525.38" r="31.47"/><path class="cls-2" d="M291.76,599.84s5.37-26.87-10-36.08-33-20-33-20-5.38-.77-7.68,10.75c0,0-43.74,8.44-48.36,49.88s3.08,102.08,3.08,102.08-6.91,53-15.35,81.36c0,0-6.92,6.14,23.79-3.07s84.42,26.12,84.42,26.12,5.38-5.38,5.38-9.22,6.14-26.11,6.14-26.11,5.37-94.41,7.67-105.15S298.66,601.38,291.76,599.84Z"/><path class="cls-7" d="M244.17,652.8s42.21-24.57,33.77-56-26.86-41.44-26.86-41.44-29.93-10-55.26,22.25l1.54,14.58s27.63-56,57.56-20.73S244.17,652.8,244.17,652.8Z"/><path class="cls-7" d="M199.48,579.14V705l-7.89,42.93-3.69,20h-27l-37.84-13.82V661.27s31.66-62.18,41.7-73.69S199.48,579.14,199.48,579.14Z"/><polygon class="cls-5" points="191.03 747.92 187.37 767.93 160.51 767.93 122.91 754.12 191.03 747.92"/><polygon class="cls-7" points="189.68 721.1 255.68 640.51 197.35 724.17 191.2 725.7 189.68 721.1"/><path class="cls-2" d="M282.8,528.63c1.79-1.21,4-1.43,6.18-1.65s4.39-.5,6.1-1.81c3-2.29,3.2-6.7,5.37-9.74,3.15-4.42,9.42-4.95,14.85-4.74,3.32.13,6.88.34,9.67-1.45s4.16-5.32,5.13-8.58c1.15-3.87,1.88-8.59-1-11.45-1.94-2-5.07-2.39-7.26-4.14s-3.2-4.76-4.43-7.38a19.93,19.93,0,0,0-6.43-8.06c-4.12-2.9-9.38-3.5-14.4-3.45s-10.06.72-15,.1c-4.08-.51-8.15-1.86-12.21-1.26-5.19.76-9.47,4.68-12,9.26s-3.65,9.79-4.71,14.92l-2.9,13.95c-.89,4.34-1.79,8.78-1.11,13.14,1.43,9.05,9.44,16.25,10,25.39a15.6,15.6,0,0,1,9.52-11.31,3,3,0,0,1,1.94-.24c.79.26,1.25,1,1.76,1.72,1.31,1.75,5.44,4.4,7.73,3.16S280.17,530.42,282.8,528.63Z"/><path class="cls-4" d="M484.09,918.83s-20.73.76-23.79,24.55,0,134.32,0,134.32,23.79,17.65,53,15.35,76-10.75,76-10.75V952.71c0-19.35-16.13-35.12-35.45-34a11.87,11.87,0,0,0-1.38.11Z"/><circle class="cls-2" cx="513.57" cy="1097.19" r="13.81"/><circle class="cls-2" cx="588.79" cy="1091.05" r="13.81" transform="translate(-372.71 308.37) rotate(-22.5)"/><path class="cls-8" d="M203.5,672s-5.38,33.76,16.87,30.69c0,0,11.52-1.53,13.06,0s58.33-8.44,66-16.88c0,0,9.2-3.07,13.81,1.54s50.66,9.2,36.86-4.62-35.31-16.88-35.31-16.88l-29.16,1.52s-15.35,4.62-24.56,0-35.33-3-35.33-3Z"/><path class="cls-2" d="M235,565.3s-34.54,3.87-34.54,53.73v63.69s19.19-8.44,23-7.68,19.19-10,19.19-10,17.65-41.43,16.11-52.94S258,566.83,235,565.3Z"/><polygon class="cls-2" points="393.07 688.86 358.53 713.43 380.02 715.73 409.95 690.4 393.07 688.86"/><path class="cls-3" d="M419.93,725.71s8.45,26.11-3.06,33.77-30.71-26.86-30.71-26.86-20.73-24.56-6.91-29.94,19.46,18,19.46,18l18.13,15.74Z"/><ellipse class="cls-2" cx="367.36" cy="595.23" rx="30.7" ry="19.57"/><circle class="cls-2" cx="372.73" cy="548.03" r="22.25"/><ellipse class="cls-2" cx="290.22" cy="505.81" rx="29.55" ry="15.35"/><ellipse class="cls-2" cx="262.59" cy="508.49" rx="10.36" ry="25.72"/><path class="cls-9" d="M108.41,1115.56c2.9-5.33-.39-11.86-4.14-16.62s-8.34-9.67-8.24-15.75c.14-8.71,9.38-13.84,16.76-18.46a81.18,81.18,0,0,0,15-12.1,21.79,21.79,0,0,0,4.62-6.19c1.53-3.4,1.49-7.27,1.39-11q-.48-18.63-1.84-37.22"/><path class="cls-10" d="M146.42,997.54a13.55,13.55,0,0,0-6.77-11.13l-3,6,.1-7.27a13.54,13.54,0,1,0,9.17,16.8A13.22,13.22,0,0,0,146.42,997.54Z"/><path class="cls-10" d="M121.86,1089.41a13.54,13.54,0,1,1,.66-10.92l-8.48,6.89,9.33-2.16A13.47,13.47,0,0,1,121.86,1089.41Z"/><path class="cls-10" d="M114.81,1063.06a13.53,13.53,0,0,1-14.18-12.86v-.07a13.29,13.29,0,0,1,1.17-6.18,13.61,13.61,0,0,1,8.7-7.53l-.07,5.6,3.07-6.08h0a13.54,13.54,0,0,1,14.18,12.86v.07a13.4,13.4,0,0,1-.58,4.63A13.56,13.56,0,0,1,114.81,1063.06Z"/><path class="cls-10" d="M148.08,1041.13a13.54,13.54,0,1,1,6-25.4l-2.4,6.57,4.93-4.73a13.53,13.53,0,0,1-8.54,23.56Z"/><path class="cls-5" d="M144.21,1001.15c-3.12.35-6.18,1.33-9.32,1.52s-6.6-.56-8.58-3c-1.07-1.31-1.62-3-2.52-4.41a9.74,9.74,0,0,0-3.41-3.22,13.54,13.54,0,1,0,25.37,9C145.24,1001.07,144.72,1001.11,144.21,1001.15Z"/><path class="cls-5" d="M148.08,1041.13a13.59,13.59,0,0,1-12.91-19.34,10.2,10.2,0,0,1,2.74,2.74c1,1.46,1.54,3.14,2.68,4.49,2.11,2.48,5.73,3.29,9,3.14s6.44-1.07,9.67-1.37c.45,0,.92-.08,1.37-.09A13.53,13.53,0,0,1,148.08,1041.13Z"/><path class="cls-5" d="M115.09,1063.06a13.53,13.53,0,0,1-14.18-12.86v-.07a13.55,13.55,0,0,1,1.17-6.18,10.88,10.88,0,0,1,2.9,2.76c1.06,1.48,1.72,3.2,2.91,4.57,2.29,2.55,6.14,3.45,9.61,3.37s6.59-.9,9.93-1.16A13.53,13.53,0,0,1,115.09,1063.06Z"/><path class="cls-5" d="M121.86,1089.41a13.55,13.55,0,1,1-24.74-11.07h0a14,14,0,0,1,3,2.65c1.29,1.58,2.14,3.36,3.63,4.84,2.77,2.72,7.25,3.86,11.24,4A58.8,58.8,0,0,0,121.86,1089.41Z"/><path class="cls-11" d="M87.93,1109.42s10.72-.32,13.95-2.63,16.44-5,17.28-1.35,16.1,18.38,4,18.43S95.06,1122,91.84,1120,87.93,1109.42,87.93,1109.42Z"/><path class="cls-12" d="M123.38,1122.54c-12.1.09-28.11-1.89-31.33-3.87-2.45-1.49-3.43-6.86-3.76-9.34h-.36s.68,8.64,3.87,10.64,19.23,4,31.33,3.87c3.49,0,4.69-1.27,4.63-3.11C127.31,1121.82,126,1122.52,123.38,1122.54Z"/></g></g></svg>