<svg xmlns="http://www.w3.org/2000/svg" viewBox="0 0 27 18"><defs><style>.cls-1{fill:#73ccff;}</style></defs><title>menu hamburger</title><g id="Calque_2" data-name="Calque 2"><g id="Calque_1-2" data-name="Calque 1"><path id="Icon_material-menu" data-name="Icon material-menu" class="cls-1" d="M1.5,18h24A1.5,1.5,0,0,0,27,16.5h0A1.5,1.5,0,0,0,25.5,15H1.5A1.5,1.5,0,0,0,0,16.5H0A1.5,1.5,0,0,0,1.5,18Zm0-7.5h24A1.5,1.5,0,0,0,27,9h0a1.5,1.5,0,0,0-1.5-1.5H1.5A1.5,1.5,0,0,0,0,9H0A1.5,1.5,0,0,0,1.5,10.5ZM0,1.5H0A1.5,1.5,0,0,0,1.5,3h24A1.5,1.5,0,0,0,27,1.5h0A1.5,1.5,0,0,0,25.5,0H1.5A1.5,1.5,0,0,0,0,1.5Z"/></g></g></svg>