<?xml version="1.0" encoding="utf-8"?>
<!-- Generator: Adobe Illustrator 24.0.3, SVG Export Plug-In . SVG Version: 6.00 Build 0)  -->
<svg version="1.1" id="Calque_1" xmlns="http://www.w3.org/2000/svg" xmlns:xlink="http://www.w3.org/1999/xlink" x="0px" y="0px"
	 viewBox="0 0 323.8 70.7" style="enable-background:new 0 0 323.8 70.7;" xml:space="preserve">
<style type="text/css">
	.st0{fill:#494342;}
	.st1{fill:#73CCFF;}
	.st2{fill:#6598BB;}
	.st3{fill:#E5E5E5;}
	.st4{fill:#FCFCFC;}
	.st5{fill:#ADABAC;}
</style>
<title>TRIPSET - Head</title>
<g id="Calque_2_1_">
	<g id="Calque_3">
		<path class="st0" d="M72.2,9.7h38.4v1.4H92.1v50h-1.4v-50H72.2V9.7z"/>
		<path class="st0" d="M113.2,61.1V9.7h21c5.4,0,9.3,1.1,11.8,3.2c2.5,2.1,3.8,5.5,3.9,10c0.2,3.1-0.8,6.2-2.7,8.6
			c-2.2,2.4-5,4-8.2,4.6v0.2c1.8,0.2,3.6,0.7,5.2,1.5c1.3,0.7,2.3,1.7,3.1,2.9c0.8,1.3,1.2,2.8,1.4,4.2c0.3,1.8,0.4,3.7,0.4,5.5
			c0,0.7,0,1.6,0.1,2.7s0.1,2.2,0.2,3.2s0.2,2,0.4,2.9c0.1,0.6,0.3,1.2,0.6,1.8h-1.6c-0.3-0.7-0.5-1.4-0.6-2.1
			c-0.1-0.9-0.2-1.8-0.3-2.8s-0.1-2-0.1-3.1s0-2,0-2.8c0-1.9-0.1-3.8-0.5-5.7c-0.3-1.5-0.9-3-1.9-4.2c-1.1-1.2-2.5-2.1-4.1-2.6
			c-2.3-0.7-4.7-1-7.1-0.9h-19.4v24.1H113.2z M133.9,35.5c1.9,0,3.7-0.2,5.5-0.7c1.7-0.4,3.3-1.2,4.6-2.3c1.4-1.1,2.5-2.4,3.2-4
			c0.9-1.8,1.3-3.8,1.2-5.8c-0.1-3.7-1.2-6.5-3.3-8.5s-5.7-3-10.6-3.1h-19.9v24.4L133.9,35.5z"/>
		<path class="st0" d="M158.7,9.7v51.4h-1.4V9.7H158.7z"/>
		<path class="st0" d="M166.5,61.1V9.7h20.8c4.9,0,8.8,1.2,11.5,3.5s4.1,5.9,4.1,10.5c0,2.1-0.4,4.1-1.2,6c-0.8,1.7-1.9,3.2-3.4,4.4
			c-1.5,1.2-3.3,2.1-5.1,2.7c-2.1,0.6-4.4,0.9-6.6,0.9h-18.7v23.4L166.5,61.1z M187.3,36.2c1.9,0,3.8-0.3,5.6-0.8
			c1.6-0.5,3.2-1.3,4.5-2.5c1.3-1.1,2.3-2.4,3-3.9c0.7-1.7,1.1-3.5,1.1-5.3c0-4.1-1.2-7.2-3.5-9.4s-5.9-3.2-10.7-3.2h-19.4v25.1
			H187.3z"/>
		<path class="st0" d="M240.6,17.4c-0.8-1.7-2-3.2-3.5-4.4c-1.5-1.2-3.3-2-5.2-2.4c-2.1-0.5-4.3-0.7-6.5-0.7c-1.9,0-3.7,0.2-5.6,0.5
			c-1.8,0.3-3.6,1-5.2,1.9c-1.6,0.9-2.9,2.2-3.9,3.7c-1.1,1.7-1.6,3.7-1.5,5.7c-0.1,2,0.4,3.9,1.6,5.6c1.1,1.4,2.4,2.6,4,3.4
			c1.8,0.9,3.7,1.6,5.6,2c2.1,0.5,4.3,1,6.5,1.5c2.4,0.6,4.7,1.2,6.8,1.8c2,0.5,3.8,1.3,5.6,2.3c1.6,0.9,2.9,2.2,3.8,3.8
			c1,2,1.5,4.2,1.4,6.4c0.1,2.2-0.5,4.3-1.6,6.2c-1,1.7-2.5,3.2-4.2,4.3c-1.8,1.2-3.8,2-5.8,2.5c-2.1,0.5-4.4,0.8-6.6,0.8
			c-2.7,0-5.5-0.3-8.1-1c-2.3-0.6-4.5-1.7-6.4-3.2c-1.8-1.5-3.3-3.5-4.2-5.7c-1-2.7-1.5-5.5-1.4-8.4h1.4c-0.1,2.7,0.4,5.3,1.4,7.8
			c0.8,2,2.2,3.8,3.8,5.2c1.7,1.4,3.7,2.4,5.9,2.9c2.5,0.6,5,0.9,7.5,0.9c2,0,4-0.2,6-0.7c1.9-0.4,3.7-1.2,5.4-2.2
			c1.6-1,2.9-2.3,3.9-3.9c1-1.7,1.5-3.7,1.5-5.7c0.1-2.2-0.5-4.3-1.7-6.2c-1.1-1.5-2.6-2.8-4.3-3.6c-1.9-0.9-3.8-1.6-5.8-2
			c-2.1-0.4-4.2-0.9-6.1-1.4c-2.1-0.5-4.1-1-6.2-1.5c-1.9-0.5-3.8-1.2-5.6-2.2c-1.6-0.9-3-2.2-4-3.7c-1.1-1.8-1.6-4-1.5-6.1
			c-0.1-2.2,0.5-4.4,1.6-6.4c1-1.7,2.4-3.1,4.1-4.1c1.7-1,3.7-1.8,5.6-2.2c2-0.4,4.1-0.6,6.2-0.6c2.4,0,4.7,0.3,7,0.8
			c2,0.5,3.9,1.4,5.6,2.7c1.7,1.3,3,2.9,3.9,4.8c1,2.3,1.6,4.8,1.7,7.3h-1.4C242.1,21.8,241.6,19.5,240.6,17.4z"/>
		<path class="st0" d="M286.2,59.6v1.4h-34.4V9.7h34.1v1.4h-32.7v22.5H284V35h-30.8v24.6H286.2z"/>
		<path class="st0" d="M285.4,9.7h38.4v1.4h-18.5v50h-1.4v-50h-18.4V9.7z"/>
		<path class="st1" d="M41.9,17.2c-4.1-23-37.3-23-41.4,0c-2.9,16.2,5.6,32.3,20.7,38.9c12.9-5.7,21.2-18.5,21.2-32.6
			C42.5,21.4,42.3,19.3,41.9,17.2z"/>
		<path class="st2" d="M21.2,56.2C6.2,49.5-2.3,33.4,0.6,17.2C2.6,5.9,11.7,0.1,20.9,0C13.8,0.2,4.3,5.9,2.8,17.2
			c-0.3,2.1-0.4,4.2-0.4,6.3C2.3,38.1,11.5,50.6,21.2,56.2z"/>
		<path class="st2" d="M35.8,21.1c0,8-6.5,14.6-14.6,14.6S6.7,29.2,6.7,21.1c0-8,6.5-14.6,14.6-14.6c0,0,0,0,0,0
			C29.3,6.5,35.8,13.1,35.8,21.1C35.8,21.1,35.8,21.1,35.8,21.1z"/>
		<path class="st3" d="M32.7,21.1c0,6.3-5.1,11.4-11.4,11.3S9.9,27.3,9.9,21c0-6.3,5.1-11.4,11.4-11.3c0.4,0,0.8,0,1.2,0.1
			C28.3,10.4,32.7,15.3,32.7,21.1z"/>
		<path class="st4" d="M32.7,21.1c0,5.8-4.4,10.7-10.1,11.4c-6.3-0.7-10.8-6.4-10.1-12.7c0.6-5.3,4.8-9.4,10.1-10.1
			C28.3,10.4,32.7,15.3,32.7,21.1z"/>
		<path class="st5" d="M41.2,65.4c0-2.9-8.9-5.3-20-5.3s-20,2.4-20,5.3c0,2.9,8.9,5.3,20,5.3S41.2,68.3,41.2,65.4z"/>
	</g>
</g>
</svg>
